<svg width="64" height="64" fill="none" xmlns="http://www.w3.org/2000/svg"><path d="M32 47a3.497 3.497 0 0 1-3.5-3.5v-5c0-1.935 1.565-3.5 3.5-3.5s3.5 1.565 3.5 3.5v5c0 1.935-1.565 3.5-3.5 3.5Z" fill="#23221F"/><path d="M50.5 23.5h-6v-7C44.5 9.61 38.895 4 32 4S19.5 9.61 19.5 16.5v7h-6A6.506 6.506 0 0 0 7 30v23c0 3.585 2.915 6.5 6.5 6.5h37c3.585 0 6.5-2.915 6.5-6.5V30c0-3.585-2.915-6.5-6.5-6.5Zm-26-7c0-4.135 3.365-7.5 7.5-7.5s7.5 3.365 7.5 7.5v7h-15v-7ZM52 53c0 .825-.675 1.5-1.5 1.5h-37c-.825 0-1.5-.675-1.5-1.5V30c0-.825.675-1.5 1.5-1.5h37c.825 0 1.5.675 1.5 1.5v23Z" fill="#23221F"/></svg>