<svg width="129" height="128" viewBox="0 0 129 128" fill="none" xmlns="http://www.w3.org/2000/svg">
<path d="M103.5 53V52C103.5 44.83 97.67 39 90.5 39H68.5V33.36C73.72 31.67 77.5 26.77 77.5 21C77.5 13.83 71.67 8 64.5 8C57.33 8 51.5 13.83 51.5 21C51.5 26.77 55.28 31.67 60.5 33.36V39H38.5C31.33 39 25.5 44.83 25.5 52V53H18.5C12.99 53 8.5 57.49 8.5 63V79C8.5 84.51 12.99 89 18.5 89H25.5V90C25.5 97.17 31.33 103 38.5 103H63.02C62.06 101.74 61.5 100.18 61.5 98.5C61.5 96.33 62.42 94.38 63.94 93H38.5C36.85 93 35.5 91.65 35.5 90V52C35.5 50.35 36.85 49 38.5 49H90.5C92.15 49 93.5 50.35 93.5 52V89.98L97.64 91.51C98.67 91.89 99.57 92.49 100.31 93.22C100.86 93.09 101.42 93 102.01 93C102.39 93 102.76 93.03 103.12 93.09C103.36 92.1 103.51 91.07 103.51 90V89H110.51C116.02 89 120.51 84.51 120.51 79V63C120.51 57.49 116.02 53 110.51 53H103.5ZM59.5 21C59.5 19.96 59.81 19 60.35 18.2C61.25 16.87 62.77 16 64.5 16C66.23 16 67.75 16.87 68.65 18.2C69.19 19 69.5 19.96 69.5 21C69.5 21.69 69.36 22.35 69.11 22.95C68.6 24.15 67.65 25.1 66.45 25.61C65.85 25.86 65.19 26 64.5 26C63.81 26 63.15 25.86 62.55 25.61C61.35 25.1 60.4 24.15 59.89 22.95C59.64 22.35 59.5 21.69 59.5 21ZM18.5 81C17.4 81 16.5 80.1 16.5 79V63C16.5 61.9 17.4 61 18.5 61H25.5V81H18.5ZM112.5 79C112.5 80.1 111.6 81 110.5 81H103.5V61H110.5C111.6 61 112.5 61.9 112.5 63V79Z" fill="#23221F"/>
<path d="M95.55 99.86C96.81 99.39 96.81 97.61 95.55 97.14L88.61 94.57L87.3 94.08C86.94 93.95 86.54 93.55 86.41 93.19L83.36 84.94C82.89 83.68 81.11 83.68 80.64 84.94L77.59 93.19C77.46 93.55 77.06 93.95 76.7 94.08L75.39 94.57L68.45 97.14C67.19 97.61 67.19 99.39 68.45 99.86L76.7 102.91C76.75 102.93 76.8 102.96 76.86 102.99C77.17 103.16 77.48 103.49 77.59 103.79L80.64 112.04C81.11 113.3 82.89 113.3 83.36 112.04L86.41 103.79C86.52 103.49 86.83 103.16 87.14 102.99C87.19 102.96 87.25 102.93 87.3 102.91L95.55 99.86Z" fill="#23221F"/>
<path d="M111.81 108.52L106.79 106.66L105.84 106.31C105.58 106.21 105.29 105.93 105.2 105.67L104.31 103.26L102.99 99.7C102.65 98.79 101.36 98.79 101.02 99.7L99.7 103.26L98.81 105.67C98.71 105.93 98.43 106.22 98.17 106.31L97.22 106.66L92.2 108.52C91.29 108.86 91.29 110.15 92.2 110.49L95.76 111.81L98.17 112.7C98.43 112.8 98.72 113.08 98.81 113.34L99.7 115.75L101.02 119.31C101.36 120.22 102.65 120.22 102.99 119.31L104.31 115.75L105.2 113.34C105.3 113.08 105.58 112.79 105.84 112.7L108.25 111.81L111.81 110.49C112.72 110.15 112.72 108.86 111.81 108.52Z" fill="#23221F"/>
</svg>
