<svg width="128" height="128" fill="none" xmlns="http://www.w3.org/2000/svg"><path d="m118.809 36.96-4.27-4.27a6.011 6.011 0 0 0-8.49 0l-14.52 14.52-10.34-10.33L95.7 22.37a6.012 6.012 0 0 0 0-8.49l-4.83-4.83a6.012 6.012 0 0 0-8.49 0L67.87 23.56l-5.77-5.77a6.973 6.973 0 0 0-4.95-2.05c-1.79 0-3.58.68-4.95 2.05L38.67 31.33c-12.6 12.6-13.92 32.21-3.96 46.29l-24.1 24.1a8.002 8.002 0 0 0 0 11.31l4.48 4.48a8.004 8.004 0 0 0 11.31 0l24.1-24.1a36 36 0 0 0 20.79 6.6c9.23 0 18.46-3.52 25.5-10.56l13.54-13.54a7.008 7.008 0 0 0 0-9.9l-6.05-6.05 14.52-14.52a5.998 5.998 0 0 0 1.764-4.238 5.988 5.988 0 0 0-1.754-4.242Zm-29.09 45.43a25.902 25.902 0 0 1-18.43 7.63 25.901 25.901 0 0 1-18.43-7.63l-7.12-7.12c-10.16-10.16-10.16-26.7 0-36.86l11.42-11.42 43.98 43.98-11.42 11.42Z" fill="#23221F"/></svg>