<svg xmlns="http://www.w3.org/2000/svg" width="128" height="128" fill="none"><title>SmartHRHRアナリティクス</title><path fill="#23221F" d="M104 11H24c-7.17 0-13 5.83-13 13v80c0 7.17 5.83 13 13 13h80c7.17 0 13-5.83 13-13V24c0-7.17-5.83-13-13-13Zm3 93c0 1.65-1.35 3-3 3H24c-1.65 0-3-1.35-3-3V24c0-1.65 1.35-3 3-3h80c1.65 0 3 1.35 3 3v80Z"/><path fill="#23221F" d="M96.8 31.04h-23c-2.47 0-4.48 2.01-4.48 4.48 0 2.47 2.01 4.48 4.48 4.48h23c2.47 0 4.48-2.01 4.48-4.48 0-2.47-2.01-4.48-4.48-4.48ZM96.8 48.55h-23c-2.47 0-4.48 2.01-4.48 4.48 0 2.47 2.01 4.48 4.48 4.48h23c2.47 0 4.48-2.01 4.48-4.48 0-2.47-2.01-4.48-4.48-4.48ZM44.18 62.77c5.48 0 10.65-2.42 14.18-6.63 2.79-3.32 4.32-7.54 4.32-11.87 0-10.2-8.3-18.5-18.5-18.5s-18.5 8.3-18.5 18.5 8.3 18.5 18.5 18.5Zm11.5-18.5c0 1.5-.3 2.97-.86 4.35l-7.14-5.98v-9.32c4.63 1.48 8 5.83 8 10.96v-.01Zm-15-10.95v10.96c0 1.04.46 2.02 1.25 2.68l8.4 7.03a11.438 11.438 0 0 1-6.15 1.79c-6.34 0-11.5-5.16-11.5-11.5 0-5.12 3.37-9.47 8-10.96ZM90.92 66.81c-4.97 0-9.02 4.04-9.02 9.02 0 .68.08 1.34.22 1.97L69.6 85.65a8.947 8.947 0 0 0-5.6-1.96c-2.88 0-5.43 1.36-7.09 3.46l-11.44-3.86c-.22-4.78-4.16-8.6-9-8.6s-9.02 4.04-9.02 9.02c0 4.98 4.04 9.02 9.02 9.02 2.98 0 5.61-1.46 7.26-3.69l11.25 3.8c.07 4.91 4.08 8.89 9.01 8.89s9.02-4.04 9.02-9.02c0-.68-.08-1.34-.22-1.97l12.52-7.85a8.926 8.926 0 0 0 5.6 1.96c4.97 0 9.02-4.04 9.02-9.02 0-4.98-4.04-9.02-9.02-9.02h.01Z"/></svg>