<svg xmlns="http://www.w3.org/2000/svg" width="128" height="128" fill="none"><title>SmartHR IdP</title><path fill="#23221F" d="M69.7 86.45H58.3c-7.87 0-14.25 6.381-14.25 14.25 0 1.57 1.28 2.85 2.85 2.85h34.2c1.57 0 2.85-1.28 2.85-2.85 0-7.87-6.38-14.25-14.25-14.25ZM64 80.752a11.395 11.395 0 0 0 11.4-11.4A11.395 11.395 0 0 0 64 57.95a11.4 11.4 0 0 0 0 22.8v.002Z"/><path fill="#23221F" d="M120.07 31.28c0-12.96-10.539-23.5-23.5-23.5A23.393 23.393 0 0 0 79.65 15H34.58c-7.21 0-13.08 5.851-13.08 13.04v78.919c0 7.191 5.87 13.042 13.08 13.042h58.85c7.211 0 13.08-5.851 13.08-13.042V52.572c8.01-3.75 13.57-11.881 13.57-21.29h-.01v-.002ZM93.42 110H34.57c-1.7 0-3.08-1.36-3.08-3.039v-78.92c0-1.68 1.379-3.041 3.08-3.041h39.35a23.225 23.225 0 0 0-.86 6.28c0 12.94 10.51 23.46 23.43 23.5v52.181c0 1.678-1.38 3.039-3.08 3.039h.01Zm3.149-62.22c-9.1 0-16.5-7.4-16.5-16.5s7.4-16.5 16.5-16.5c9.099 0 16.499 7.4 16.499 16.5s-7.4 16.5-16.5 16.5Z"/><path fill="#23221F" d="M93.31 40.86c-.9 0-1.79-.34-2.47-1.02l-5.03-5.03a3.493 3.493 0 0 1 0-4.949 3.493 3.493 0 0 1 4.95 0l2.55 2.55 8.84-8.84a3.483 3.483 0 0 1 2.474-1.027 3.496 3.496 0 0 1 2.475 1.027 3.483 3.483 0 0 1 1.027 2.474 3.481 3.481 0 0 1-1.027 2.475l-11.31 11.311a3.491 3.491 0 0 1-2.469 1.02l-.01.01Zm-32.6-1.6h-20a4 4 0 0 1 0-8h20a4 4 0 1 1 0 8Zm0 13.832h-20a4 4 0 1 1 0-8.002h20a4 4 0 0 1 0 8v.002Z"/></svg>