<svg width="129" height="128" viewBox="0 0 129 128" fill="none" xmlns="http://www.w3.org/2000/svg">
<path d="M119.904 50.8614C118.081 45.2434 112.024 42.1654 106.406 43.9883C101.774 45.4924 98.8757 49.8753 99.0152 54.5171L92.2416 56.7783C87.8986 47.0264 78.5651 39.964 67.4983 38.8683V30.5508C71.9509 29.2558 75.2181 25.1419 75.2181 20.2709C75.2181 14.364 70.4169 9.56274 64.51 9.56274C58.603 9.56274 53.8018 14.364 53.8018 20.2709C53.8018 25.1419 57.069 29.2459 61.5216 30.5508V38.8583C50.4349 39.9341 41.0815 46.9965 36.7285 56.7584L29.9848 54.5072C30.1342 49.8653 27.2256 45.4824 22.5937 43.9783C16.9756 42.1554 10.9193 45.2434 9.09642 50.8515C7.27354 56.4695 10.3615 62.5159 15.9696 64.3487C17.0653 64.7073 18.1809 64.8767 19.2767 64.8767C22.8029 64.8767 26.1299 63.1136 28.1321 60.195L34.8558 62.4362C34.3777 64.5778 34.1087 66.8091 34.1087 69.0902C34.1087 78.105 38.0533 86.2034 44.3089 91.7716L40.0156 97.6387C38.3422 97.0311 36.5293 96.8518 34.7064 97.1307C31.8774 97.5789 29.3971 99.103 27.7137 101.414C26.0303 103.725 25.3529 106.564 25.8012 109.383C26.2494 112.212 27.7735 114.692 30.0844 116.376C31.977 117.75 34.1784 118.418 36.3699 118.418C39.6869 118.418 42.9542 116.884 45.046 114.005C47.9048 110.07 47.6757 104.821 44.8368 101.155L49.13 95.2879C53.6424 97.9375 58.882 99.4715 64.4801 99.4715C70.0782 99.4715 75.3377 97.9375 79.85 95.2779L84.1433 101.155C81.3044 104.821 81.0753 110.07 83.9341 114.005C86.0259 116.884 89.2932 118.418 92.6102 118.418C94.7917 118.418 96.9931 117.75 98.8956 116.376C101.207 114.692 102.731 112.212 103.179 109.383C103.627 106.554 102.95 103.725 101.266 101.414C99.583 99.103 97.1026 97.5789 94.2737 97.1307C92.4608 96.8418 90.6479 97.0311 88.9644 97.6387L84.6612 91.7617C90.9069 86.1934 94.8415 78.095 94.8415 69.0902C94.8415 66.8091 94.5825 64.5778 94.0944 62.4362L100.838 60.185C102.83 63.1036 106.167 64.8667 109.693 64.8667C110.789 64.8667 111.895 64.6974 113.001 64.3388C118.619 62.5159 121.697 56.4596 119.874 50.8415L119.904 50.8614ZM23.789 55.6328C22.9822 58.1131 20.3026 59.4778 17.8223 58.6709C15.342 57.8641 13.9774 55.1845 14.7842 52.7042C15.4317 50.702 17.2944 49.437 19.2866 49.437C19.7747 49.437 20.2628 49.5167 20.7409 49.6661C23.2212 50.4729 24.5859 53.1525 23.7791 55.6328H23.789ZM40.2149 110.508C38.6809 112.62 35.7124 113.088 33.6007 111.554C32.5747 110.807 31.9073 109.712 31.7081 108.466C31.5089 107.221 31.8077 105.966 32.5548 104.94C33.4812 103.665 34.9255 102.988 36.3898 102.988C37.356 102.988 38.3322 103.277 39.1689 103.894C41.2807 105.428 41.7489 108.397 40.2149 110.508ZM89.8311 103.894C91.9428 102.36 94.9112 102.828 96.4452 104.94C97.1923 105.966 97.4911 107.211 97.2919 108.466C97.0927 109.712 96.4253 110.817 95.3993 111.554C93.2875 113.088 90.3191 112.62 88.7851 110.508C87.2511 108.397 87.7193 105.428 89.8311 103.894ZM59.7784 20.2809C59.7784 17.6711 61.9002 15.5494 64.51 15.5494C67.1198 15.5494 69.2415 17.6711 69.2415 20.2809C69.2415 22.8907 67.1198 25.0124 64.51 25.0124C61.9002 25.0124 59.7784 22.8907 59.7784 20.2809ZM64.49 92.5087C51.5805 92.5087 41.0815 82.0098 41.0815 69.1002C41.0815 56.1906 51.5805 45.6916 64.49 45.6916C77.3996 45.6916 87.8986 56.1906 87.8986 69.1002C87.8986 82.0098 77.3996 92.5087 64.49 92.5087ZM111.178 58.6709C108.707 59.4778 106.018 58.1131 105.211 55.6328C104.404 53.1525 105.769 50.4729 108.249 49.6661C108.737 49.5067 109.225 49.437 109.703 49.437C111.696 49.437 113.558 50.712 114.206 52.7042C115.013 55.1845 113.648 57.8641 111.168 58.6709H111.178Z" fill="#23221F"/>
<path d="M64.49 67.9347C69.0522 67.9347 72.7478 64.2591 72.7478 59.7168C72.7478 55.1746 69.0522 51.4989 64.49 51.4989C59.9279 51.4989 56.2323 55.1746 56.2323 59.7168C56.2323 64.2591 59.9378 67.9347 64.49 67.9347Z" fill="#23221F"/>
<path d="M68.6139 72.0487H60.3562C54.6584 72.0487 50.0365 76.6407 50.0365 82.3185C50.0365 83.4441 50.9629 84.3705 52.0984 84.3705H76.8617C77.9973 84.3705 78.9237 83.4541 78.9237 82.3185C78.9237 76.6407 74.3017 72.0487 68.604 72.0487H68.6139Z" fill="#23221F"/>
</svg>
