<svg xmlns="http://www.w3.org/2000/svg" width="128" height="128" fill="none"><path fill="#23221F" d="M110.78 101.5 97.99 86.56c8.1-8.62 12.68-20.04 12.68-31.95 0-25.74-20.94-46.67-46.67-46.67S17.32 28.87 17.32 54.61c0 11.92 4.61 23.38 12.73 32L17.31 101.5a4.008 4.008 0 0 0-.57 4.33 4.035 4.035 0 0 0 3.74 2.27l12.11-.4 2.22 9.21c.35 1.47 1.5 2.61 2.97 2.96a3.98 3.98 0 0 0 3.98-1.32l14.96-17.83c2.41.38 4.84.58 7.27.58 2.43 0 4.92-.2 7.35-.59l14.97 17.84c.77.92 1.9 1.43 3.06 1.43.3 0 .61-.03.92-.11a3.997 3.997 0 0 0 2.97-2.96l2.22-9.21 12.11.4c1.57.05 3.05-.84 3.74-2.27a3.99 3.99 0 0 0-.57-4.33h.02Zm-70.04 5.82-1.13-4.67a4 4 0 0 0-3.89-3.06h-.13l-6.29.21 6.73-7.87c3.7 2.78 7.79 4.99 12.12 6.55l-7.41 8.83v.01Zm30.55-16.77c-4.73.95-9.67.97-14.45.02a36.594 36.594 0 0 1-17.32-8.67 36.74 36.74 0 0 1-12.2-27.3c0-20.22 16.45-36.67 36.67-36.67 20.22 0 36.67 16.45 36.67 36.67 0 10.45-4.48 20.43-12.3 27.4-4.86 4.32-10.76 7.28-17.09 8.55h.02Zm21.22 9.04a3.969 3.969 0 0 0-4.02 3.06l-1.13 4.67-7.43-8.86c4.33-1.57 8.41-3.79 12.11-6.57l6.77 7.9-6.29-.21-.01.01Zm-7.63-59.34a4.48 4.48 0 0 0-3.17-1.31c-1.2 0-2.32.47-3.17 1.31L57.91 60.88l-8.74-8.73A4.439 4.439 0 0 0 46 50.84c-1.2 0-2.32.47-3.17 1.31-.85.84-1.31 1.97-1.31 3.17s.46 2.32 1.31 3.17l11.9 11.9c.85.85 1.97 1.31 3.17 1.31s2.32-.47 3.17-1.31l23.8-23.8c1.7-1.7 1.74-4.45.12-6.2-.04-.04-.07-.09-.11-.13v-.01Z"/></svg>