<svg width="128" height="128" fill="none" xmlns="http://www.w3.org/2000/svg"><title>SmartHRファイル一括アップロード</title><path d="M70.42 104.48H25.06c-1.65 0-3-1.35-3-3V26.86c0-1.65 1.35-3 3-3h31.88v14.5c0 3.69 3 6.72 6.7 6.77l14.53.19v12.22c3.01-2.09 6.38-3.69 10-4.69V40.62c0-3.44-1.33-6.69-3.75-9.14L70.8 17.72a13.08 13.08 0 0 0-9.25-3.86h-36.5c-7.17 0-13 5.83-13 13v74.62c0 7.17 5.83 13 13 13h50.11c1.86 0 3.62-.4 5.22-1.1-3.89-2.27-7.28-5.3-9.96-8.9Z" fill="#23221F"/><path d="M96.97 57.65c-14.96 0-27.08 12.13-27.08 27.1s12.13 27.1 27.08 27.1c14.95 0 27.08-12.13 27.08-27.1.01-14.97-12.12-27.1-27.08-27.1Zm13.18 29.27c-.59.58-1.35.88-2.12.88s-1.54-.29-2.12-.88l-5.94-5.94v14.25c0 1.66-1.34 3-3 3s-3-1.34-3-3V80.98l-5.94 5.94a3 3 0 0 1-4.24 0 3 3 0 0 1 0-4.24l10.14-10.14c.81-.81 1.89-1.26 3.04-1.26 1.15 0 2.23.45 3.04 1.26l10.13 10.14a2.99 2.99 0 0 1 .01 4.24Z" fill="#23221F"/></svg>