<?xml version="1.0" encoding="UTF-8"?>
<svg id="_レイヤー_1" data-name="レイヤー 1" xmlns="http://www.w3.org/2000/svg" width="128" height="128" viewBox="0 0 128 128">
  <defs>
    <style>
      .cls-1 {
        fill: none;
      }

      .cls-2 {
        fill: #23221f;
      }
    </style>
  </defs>
  <path class="cls-1" d="M0,0h128v128H0V0Z"/>
  <path class="cls-2" d="M64,116c-3.43,0-6.45-1.93-7.9-5.03-.06-.12-.11-.25-.16-.38l-10.41-28.12-28.12-10.41c-.13-.05-.25-.1-.38-.16-3.1-1.45-5.03-4.48-5.03-7.9s1.93-6.45,5.03-7.9c.12-.06.25-.11.38-.16l28.12-10.41,10.41-28.12c.05-.13.1-.25.16-.38,1.45-3.1,4.48-5.03,7.9-5.03s6.45,1.93,7.9,5.03c.06.12.11.25.16.38l10.41,28.12,28.12,10.41c.13.05.25.1.38.16,3.1,1.45,5.03,4.48,5.03,7.9s-1.93,6.45-5.03,7.9c-.12.06-.25.11-.38.16l-28.12,10.41-10.41,28.12c-.05.13-.1.25-.16.38-1.45,3.1-4.48,5.03-7.9,5.03M24.44,64l26.71,9.89c1.37.51,2.45,1.58,2.95,2.95l9.89,26.71,9.89-26.71c.5-1.37,1.58-2.45,2.95-2.95l26.71-9.89-26.71-9.89c-1.37-.5-2.45-1.58-2.95-2.95l-9.89-26.71-9.89,26.71c-.5,1.37-1.58,2.45-2.95,2.95l-26.71,9.89ZM30.54,30.54c1.95-1.95,1.95-5.12,0-7.07l-14-14c-1.95-1.95-5.12-1.95-7.07,0-1.95,1.95-1.95,5.12,0,7.07l14,14c.98.98,2.26,1.46,3.54,1.46s2.56-.49,3.54-1.46h-.01ZM16.54,118.54l14-14c1.95-1.95,1.95-5.12,0-7.07-1.95-1.95-5.12-1.95-7.07,0l-14,14c-1.95,1.95-1.95,5.12,0,7.07.98.98,2.26,1.46,3.54,1.46s2.56-.49,3.54-1.46h-.01ZM104.54,30.54l14-14c1.95-1.95,1.95-5.12,0-7.07-1.95-1.95-5.12-1.95-7.07,0l-14,14c-1.95,1.95-1.95,5.12,0,7.07.98.98,2.26,1.46,3.54,1.46s2.56-.49,3.54-1.46h-.01ZM118.54,118.54c1.95-1.95,1.95-5.12,0-7.07l-14-14c-1.95-1.95-5.12-1.95-7.07,0-1.95,1.95-1.95,5.12,0,7.07l14,14c.98.98,2.26,1.46,3.54,1.46s2.56-.49,3.54-1.46h-.01Z"/>
</svg>