<svg xmlns="http://www.w3.org/2000/svg" data-name="レイヤー 2" viewBox="0 0 128 128"><path d="M0 0h128v128H0z" style="fill:none"/><path d="M64 116c-3.43 0-6.45-1.93-7.9-5.03-.06-.12-.11-.25-.16-.38L45.53 82.47 17.41 72.06c-.13-.05-.25-.1-.38-.16C13.93 70.45 12 67.42 12 64s1.93-6.45 5.03-7.9c.12-.06.25-.11.38-.16l28.12-10.41 10.41-28.12c.05-.13.1-.25.16-.38C57.55 13.93 60.58 12 64 12s6.45 1.93 7.9 5.03c.06.12.11.25.16.38l10.41 28.12 28.12 10.41c.13.05.25.1.38.16 3.1 1.45 5.03 4.48 5.03 7.9s-1.93 6.45-5.03 7.9c-.12.06-.25.11-.38.16L82.47 82.47l-10.41 28.12c-.05.13-.1.25-.16.38-1.45 3.1-4.48 5.03-7.9 5.03M24.44 64l26.71 9.89c1.37.51 2.45 1.58 2.95 2.95l9.89 26.71 9.89-26.71a4.97 4.97 0 0 1 2.95-2.95L103.54 64l-26.71-9.89a4.97 4.97 0 0 1-2.95-2.95l-9.89-26.71-9.89 26.71a4.97 4.97 0 0 1-2.95 2.95zm6.1-33.46a5.003 5.003 0 0 0 0-7.07l-14-14a5.003 5.003 0 0 0-7.07 0 5.003 5.003 0 0 0 0 7.07l14 14c.98.98 2.26 1.46 3.54 1.46s2.56-.49 3.54-1.46Zm-14 88 14-14a5.003 5.003 0 0 0 0-7.07 5.003 5.003 0 0 0-7.07 0l-14 14a5.003 5.003 0 0 0 0 7.07c.98.98 2.26 1.46 3.54 1.46s2.56-.49 3.54-1.46Zm88-88 14-14a5.003 5.003 0 0 0 0-7.07 5.003 5.003 0 0 0-7.07 0l-14 14a5.003 5.003 0 0 0 0 7.07c.98.98 2.26 1.46 3.54 1.46s2.56-.49 3.54-1.46Zm14 88a5.003 5.003 0 0 0 0-7.07l-14-14a5.003 5.003 0 0 0-7.07 0 5.003 5.003 0 0 0 0 7.07l14 14c.98.98 2.26 1.46 3.54 1.46s2.56-.49 3.54-1.46Z" style="fill:#23221f"/></svg>