<?xml version="1.0" encoding="UTF-8"?>
<svg id="_レイヤー_1" data-name="レイヤー 1" xmlns="http://www.w3.org/2000/svg" width="128" height="128" viewBox="0 0 128 128">
  <defs>
    <style>
      .cls-1 {
        fill: #23221f;
      }
    </style>
  </defs>
  <path class="cls-1" d="M107,33h-15.5V12.5c0-2.48-2.01-4.5-4.49-4.5,0,0,0,0-.01,0h-46c-2.48,0-4.5,2.01-4.5,4.49,0,0,0,0,0,.01v20.5h-15.5c-4.97,0-8.99,4.03-9,9v65c0,7.17,5.83,13,13,13h78c7.17,0,13-5.83,13-13V42c0-4.97-4.03-8.99-9-9h0ZM45.5,17h37v6.18h-37v-6.18ZM45.5,32.18h37v15.82h-37v-15.82ZM106,107c0,1.65-1.35,3-3,3H25c-1.65,0-3-1.35-3-3V43h14.5v5h-1.5c-2.48,0-4.5,2.01-4.5,4.49,0,0,0,0,0,.01,0,2.48,2.01,4.5,4.49,4.5,0,0,0,0,.01,0h58c2.48,0,4.5-2.01,4.5-4.49h0c0-2.49-2.01-4.51-4.49-4.51,0,0,0,0-.01,0h-1.5v-5h14.5v64h0Z"/>
  <path class="cls-1" d="M64,61.38c-12.15,0-22,9.85-22,22s9.85,22,22,22,22-9.85,22-22-9.85-22-22-22ZM64,97.87c-7.99,0-14.49-6.5-14.49-14.49s6.5-14.49,14.49-14.49,14.49,6.5,14.49,14.49-6.5,14.49-14.49,14.49Z"/>
  <path class="cls-1" d="M67.49,81.9v-7.48c0-1.93-1.56-3.49-3.48-3.49h0c-1.93,0-3.49,1.56-3.49,3.48h0v8.94c0,.92.37,1.81,1.02,2.47l5.21,5.21c.65.66,1.54,1.02,2.47,1.02.89,0,1.79-.34,2.47-1.02,1.36-1.36,1.36-3.57,0-4.93l-4.19-4.19s0,0,0,0Z"/>
</svg>