<svg width="128" height="128" fill="none" xmlns="http://www.w3.org/2000/svg"><path d="M22.64 47.73c0 3.97 2.39 4.54 3.35 4.54 1.91 0 4.06-2.06 5.07-3.11-1.05-3.63-1.53-8.08-1.53-12.1-4.02 2.44-6.88 6.02-6.88 10.66l-.01.01ZM35.12 44.14c3.39-4.69 4.88-8.18 5.64-10.04-1.48 0-3.2.05-6.07.76-.05 2.25-.14 5.74.43 9.28Z" fill="#23221F"/><path d="M106.78 52.09H71.16V16c0-4.42-3.58-8-8-8H16.07c-4.42 0-8 3.58-8 8v47.09c0 4.42 3.58 8 8 8h35.99v35.72c0 6.48 5.27 11.75 11.75 11.75h42.97c6.48 0 11.75-5.27 11.75-11.75V63.84c0-6.48-5.27-11.75-11.75-11.75Zm-67.84 3.67c0-2.2 1.43-2.3 2.82-2.34 3.35-.19 12.14-.81 12.14-9.56 0-6.6-5.26-8.37-8.18-9.13-1.48 3.73-5.16 10.66-8.89 14.97.81 1.62.96 1.91.96 2.58 0 1.39-1.34 2.58-2.82 2.58-1.05 0-1.53-.67-1.96-1.24-1.48 1.24-3.97 3.35-7.55 3.35-4.92 0-7.7-4.26-7.7-9.18 0-7.12 5.12-12.81 11.86-15.73.05-3.63.05-4.02.1-5.69h-8.08c-.86 0-2.87 0-2.87-2.49s1.72-2.49 4.3-2.49c1.1 0 5.83.05 6.79 0 .05-1.43.1-3.78.29-4.35.1-.38.62-1.39 2.34-1.39 1.72 0 2.82.62 2.82 2.53 0 .48-.14 2.68-.14 3.11 2.82-.05 8.41-.14 11.95-.34 1.2-.05 7.08-.38 8.22-.38.67 0 2.72 0 2.72 2.53 0 2.25-1.58 2.34-2.77 2.44-6.55.43-13.53.57-20.32.72-.05.57-.14 3.39-.14 4.16 2.58-.53 4.88-.67 6.65-.67 12.19 0 17.83 6.41 17.83 14.39 0 5.88-2.96 9.08-4.83 10.47-5.07 3.78-12.29 3.78-12.48 3.78-.86 0-3.06 0-3.06-2.63Zm72.09 51.05a4.26 4.26 0 0 1-4.25 4.25H63.81a4.26 4.26 0 0 1-4.25-4.25V63.84a4.26 4.26 0 0 1 4.25-4.25h42.97a4.26 4.26 0 0 1 4.25 4.25v42.97Z" fill="#23221F"/><path d="M91.2 69.33c-.56-1.79-1.69-2.62-3.56-2.62h-4.69c-1.86 0-2.99.83-3.55 2.62l-9.54 31.71c-.29.99-.25 1.71.12 2.21.46.62 1.27.7 2.07.7h2.78c1.65 0 2.39-.67 2.96-2.64l1.92-6.9h10.95l1.92 6.91c.56 1.97 1.31 2.63 2.95 2.63h3.08c.79 0 1.58-.08 2.03-.69.37-.5.41-1.22.11-2.23l-9.54-31.71-.01.01Zm-9.61 18.28 3.58-12.95 3.58 12.95h-7.17.01Z" fill="#23221F"/></svg>