<svg xmlns="http://www.w3.org/2000/svg" width="128" height="128" fill="none"><title>SmartHR学習管理</title><path fill="#23221F" d="M25 103.67h78c7.17 0 13-5.83 13-13V48.45c0-7.17-5.83-13-13-13H88.3v-1.28l10.32-4.34a4.007 4.007 0 0 0 2.45-3.69c0-1.61-.96-3.06-2.45-3.69L65.55 8.53c-.99-.42-2.11-.42-3.1 0L29.38 22.45a4.007 4.007 0 0 0-2.45 3.69c0 1.61.96 3.06 2.45 3.69l10.32 4.34v1.28H25c-7.17 0-13 5.83-13 13v42.22c0 7.17 5.83 13 13 13Zm39-87.11 22.76 9.58L64 35.72l-22.76-9.58L64 16.56Zm16.3 20.97v12.73c-2.08.89-7.89 1.95-16.3 1.95s-14.22-1.06-16.3-1.95V37.53l14.75 6.21c.5.21 1.02.31 1.55.31s1.06-.1 1.55-.31l14.75-6.21ZM22 48.45c0-1.65 1.35-3 3-3h14.7v6.12c0 5.46 7.19 6.93 9.55 7.41 3.94.8 9.18 1.24 14.76 1.24s10.82-.44 14.76-1.24c2.36-.48 9.55-1.94 9.55-7.41v-6.12h14.7c1.65 0 3 1.35 3 3v42.22c0 1.65-1.35 3-3 3H25c-1.65 0-3-1.35-3-3V48.45ZM115 110H13c-2.76 0-5 2.24-5 5s2.24 5 5 5h102c2.76 0 5-2.24 5-5s-2.24-5-5-5Z"/><path fill="#23221F" d="M34.56 84.98c.69.87 1.7 1.41 2.8 1.5.11 0 .22.01.33.01.98 0 1.94-.36 2.68-1.03l13.79-12.42a4 4 0 0 0 .29-5.65 3.992 3.992 0 0 0-5.65-.29l-10.62 9.57-3.58-4.52a4.004 4.004 0 0 0-5.62-.65 4.004 4.004 0 0 0-.65 5.62l6.23 7.86ZM66.82 74.04H96.8c2.21 0 4-1.79 4-4s-1.79-4-4-4H66.82c-2.21 0-4 1.79-4 4s1.79 4 4 4ZM66.82 88.08H96.8c2.21 0 4-1.79 4-4s-1.79-4-4-4H66.82c-2.21 0-4 1.79-4 4s1.79 4 4 4Z"/></svg>