<svg xmlns="http://www.w3.org/2000/svg" width="128" height="128" fill="none"><path fill="#23221F" d="M107.06 8.04h-50c-7.17 0-13 5.83-13 13V24H21c-7.17 0-13 5.83-13 13v70c0 7.17 5.83 13 13 13h34.49c3.43 0 6.67-1.33 9.12-3.73l12.46-12.26h29.99c7.16 0 12.99-5.84 12.99-13V21.04c.01-7.17-5.83-13-12.99-13ZM18 107V37c0-1.65 1.35-3 3-3h27.66c.13.01.26.04.4.04s.26-.03.4-.04H71c1.65 0 3 1.35 3 3v49.68H57.1c-3.86 0-7 3.14-7 7V110H21c-1.66 0-3-1.35-3-3Zm92.06-16a3 3 0 0 1-2.99 3H83.79c.13-.74.21-1.5.21-2.26V37c0-7.17-5.83-13-13-13H54.06v-2.96c0-1.65 1.35-3 3-3h50c1.65 0 3 1.35 3 3V91Z"/><path fill="#23221F" d="M31 56.06h30c2.76 0 5-2.24 5-5s-2.24-5-5-5H31c-2.76 0-5 2.24-5 5s2.24 5 5 5ZM61 76.06c2.76 0 5-2.24 5-5s-2.24-5-5-5H31c-2.76 0-5 2.24-5 5s2.24 5 5 5h30Z"/></svg>