<svg width="128" height="128" fill="none" xmlns="http://www.w3.org/2000/svg"><path d="M99.38 25.4C78.24 4.27 43.96 4.13 22.64 24.97V13.88c0-2.76-2.24-5-5-5s-5 2.24-5 5v23c0 2.76 2.24 5 5 5h23c2.76 0 5-2.24 5-5s-2.24-5-5-5H29.87c17.43-16.77 45.25-16.58 62.43.59 17.38 17.38 17.38 45.67 0 63.05-17.38 17.38-45.67 17.38-63.05 0a5.003 5.003 0 0 0-7.07 0 5.004 5.004 0 0 0 0 7.07c10.64 10.64 24.62 15.96 38.6 15.96s27.96-5.32 38.6-15.96c21.28-21.27 21.28-55.9 0-77.19Z" fill="#23221F"/><path d="M60.78 36.73c-2.76 0-5 2.24-5 5V64c0 1.33.53 2.6 1.46 3.54l12.99 12.99a4.98 4.98 0 0 0 3.54 1.46c1.28 0 2.56-.49 3.54-1.46a5.003 5.003 0 0 0 0-7.07L65.78 61.93v-20.2c0-2.76-2.24-5-5-5Z" fill="#23221F"/></svg>