<?xml version="1.0" encoding="UTF-8"?>
<svg id="_レイヤー_1" data-name="レイヤー 1" xmlns="http://www.w3.org/2000/svg" width="128" height="128" viewBox="0 0 128 128">
  <defs>
    <style>
      .cls-1 {
        fill: #23221f;
      }
    </style>
  </defs>
  <path class="cls-1" d="M104.23,9.41L13.24,61.89c-7.52,4.35-6.8,15.49,1.25,18.79l25,10.35v18.46c0,10.15,12.95,14.33,18.94,6.26l9.58-12.93,24.48,10.11c1.29.52,2.65.79,4,.79,1.79,0,3.57-.46,5.16-1.36,2.8-1.57,4.72-4.37,5.23-7.55l12.99-84.69c1.33-8.77-8.07-15.05-15.64-10.7h0ZM49.99,109.48v-14.13l8.01,3.3-8.01,10.83ZM96.49,103.2l-33.64-13.89,30.67-44.25c2.34-3.39-2.08-7.33-5.18-4.64l-46.26,40.31-23.58-9.76L109.48,18.49l-12.99,84.72h0Z"/>
</svg>