<svg xmlns="http://www.w3.org/2000/svg" width="128" height="128" fill="none"><path fill="#23221F" fill-rule="evenodd" d="M68 21.3c0 2.21-1.79 4-4 4s-4-1.79-4-4V12c0-2.21 1.79-4 4-4s4 1.79 4 4v9.3Zm8.7 5.98c-.79 0-1.59-.23-2.29-.72a4.008 4.008 0 0 1-.98-5.58l5.09-7.28a3.996 3.996 0 0 1 5.57-.98 3.996 3.996 0 0 1 .98 5.57l-5.09 7.28a3.98 3.98 0 0 1-3.28 1.71ZM46.27 45.2c0 8.7-7.08 15.78-15.78 15.78S14.71 53.9 14.71 45.2s7.08-15.78 15.78-15.78S46.27 36.5 46.27 45.2Zm-8 0c0-4.29-3.49-7.78-7.78-7.78s-7.78 3.49-7.78 7.78 3.49 7.78 7.78 7.78 7.78-3.49 7.78-7.78Zm58.944 20.85.396.06h.009c9.629 1.45 22.811 3.436 21.241 23.72l-.93 14.28c-.08 5.26-4.38 9.51-9.65 9.51H88.49c-5.29 0-9.6-4.29-9.65-9.57l-.8-21c-5.23-2.12-9.93-5.84-14.03-11.08-4.1 5.28-8.77 8.95-14.07 11.08l-.8 21c-.04 5.29-4.36 9.57-9.65 9.57H19.7c-5.27 0-9.57-4.26-9.65-9.51l-.93-14.33C7.56 69.543 20.745 67.56 30.385 66.11h.005l.071-.011c2.014-.306 3.91-.594 5.68-1.01 5.98-1.4 13.85-6.54 17.99-16.73 1.6-3.95 5.28-6.3 9.86-6.3 4.58 0 8.28 2.36 9.88 6.3 4.15 10.18 12.01 15.32 17.99 16.73 1.673.403 3.46.674 5.353.96ZM42.01 81.34c.07-2.41 1.65-4.54 4.03-5.37 5.55-1.94 10.34-6.24 14.48-13 .015-.025.028-.05.04-.075.013-.025.025-.05.04-.075.87-1.43 1.71-2.97 2.54-4.61a89.214 89.214 0 0 0 1.17-2.505 94.6 94.6 0 0 0 1.17-2.745c.12-.31.16-.64.14-.96-.01-.23-.06-.45-.15-.67-.22-.52-.63-.93-1.16-1.14a1.715 1.715 0 0 0-.311-.116h-.001a.398.398 0 0 0-.108-.024c-1.805.04-2.174.916-2.336 1.3l-.004.01C56.26 64.37 45.91 71 37.99 72.87c-1.999.473-4.06.785-6.066 1.089l-.334.05-.015.003C21.944 75.46 16.12 76.336 17.12 89.2l.95 14.49v.26c0 .91.74 1.65 1.65 1.65h19.79c.91 0 1.65-.74 1.65-1.65v-.15l.85-22.46Zm67.94 22.36.97-14.43c1-12.916-4.816-13.79-14.46-15.239l-.01-.001c-2.11-.31-4.29-.64-6.4-1.14-5.97-1.41-13.31-5.51-18.83-13.01-.025.054-.052.11-.08.164v.001a93.889 93.889 0 0 1-1.111 2.275c-.037.071-.075.145-.109.22-.4.78-.8 1.54-1.21 2.28 3.89 5.74 8.25 9.4 13.27 11.16 2.37.82 3.96 2.95 4.03 5.4l.85 22.43v.15c0 .91.74 1.65 1.65 1.65h19.79c.91 0 1.65-.74 1.65-1.65v-.26ZM97.51 60.98c8.7 0 15.78-7.08 15.78-15.78s-7.08-15.78-15.78-15.78S81.73 36.5 81.73 45.2s7.08 15.78 15.78 15.78Zm0-23.56c4.29 0 7.78 3.49 7.78 7.78s-3.49 7.78-7.78 7.78-7.78-3.49-7.78-7.78 3.49-7.78 7.78-7.78ZM48.05 25.57a4.006 4.006 0 0 0 3.28 1.71 3.996 3.996 0 0 0 3.27-6.29l-5.09-7.28a3.996 3.996 0 0 0-5.57-.98 3.996 3.996 0 0 0-.98 5.57l5.09 7.27Z" clip-rule="evenodd"/></svg>