<svg width="128" height="128" fill="none" xmlns="http://www.w3.org/2000/svg"><path d="M121.25 57.83c0-8.05-3.94-14.78-9.2-16.45V20.37c0-2.55-1.43-4.83-3.73-5.94a6.545 6.545 0 0 0-6.97.78l-.2.17C88.09 26.92 71.33 33.81 53.93 34.79l-9.22.52H20c-6.63 0-12 5.37-12 12v19.63c0 6.63 5.37 12 12 12h4.39v25.26c0 6.45 5.25 11.7 11.7 11.7h5.29c6.45 0 11.7-5.25 11.7-11.7V79.16l.83.05c17.4.97 34.18 7.87 47.23 19.42l.2.17c1.2.95 2.64 1.44 4.09 1.44.97 0 1.96-.22 2.88-.66a6.552 6.552 0 0 0 3.73-5.94V74.28c5.27-1.67 9.21-8.4 9.21-16.45ZM18 66.93V47.31c0-1.1.9-2 2-2h22.08v23.63H20c-1.1-.01-2-.9-2-2.01Zm23.38 38.97h-5.29c-.94 0-1.7-.76-1.7-1.7V78.93h8.69v25.26a1.7 1.7 0 0 1-1.7 1.71Zm60.67-19.41c-13.76-10.23-30.4-16.31-47.58-17.27l-.12-.01V44.78l.15-.01c17.17-.96 33.8-7.04 47.56-17.26v58.98h-.01Z" fill="#23221F"/></svg>