<svg width="128" height="128" viewBox="0 0 128 128" fill="none" xmlns="http://www.w3.org/2000/svg">
<path d="M48.2121 41.8965C50.0943 41.8967 50.7314 43.3004 50.7315 45.0035V47.6241H50.7422C50.7421 49.3272 50.0942 50.7311 48.2218 50.7311H42.9426V82.4977C42.9425 84.8184 41.8067 85.6056 40.4222 85.6056H37.215C35.8304 85.6056 34.6946 84.8084 34.6946 82.4977V50.7311H29.4154C27.5329 50.7311 26.8951 49.3273 26.8949 47.6241V45.0035C26.895 43.3003 27.5428 41.8965 29.4154 41.8965H48.2121Z" fill="#23221F"/>
<path d="M82.7665 41.9062C84.2408 41.9062 84.988 42.5733 85.6255 44.8245L88.3346 54.1981H88.4348L91.4922 44.7642C92.2293 42.5132 92.9672 41.9062 94.4514 41.9062H98.6449C99.8302 41.9063 100.965 42.3343 100.128 44.7049L93.5146 63.0833H93.5243L100.339 82.736C101.175 85.1662 99.9897 85.5948 98.8045 85.5949H94.4611C92.9868 85.5949 92.2398 84.9872 91.5525 82.736L88.2451 71.7195H88.1459L84.7393 82.736C84.052 84.987 83.3147 85.5948 81.8307 85.5949H77.537C76.3517 85.5949 75.1663 85.1666 76.0525 82.7963L83.1051 63.2029L76.7899 44.7642C75.9534 42.3341 77.0889 41.9062 78.3239 41.9062H82.7665Z" fill="#23221F"/>
<path fill-rule="evenodd" clip-rule="evenodd" d="M65.1848 41.9062C66.659 41.9062 67.8447 42.5731 68.2432 44.8839V44.8741L74.9572 82.6066C75.4553 85.3459 74.2694 85.5852 72.9844 85.5852H69.0399C67.6058 85.5851 66.9187 84.9176 66.57 82.5473L65.6829 76.1621H58.9698L58.1333 82.5473C57.8344 84.9178 57.1464 85.5852 55.7121 85.5852H51.857C50.5722 85.5852 49.3973 85.3459 49.8852 82.5473L56.3998 44.9442C56.7883 42.5737 57.9732 41.9064 59.4572 41.9062H65.1848ZM60.1051 67.5259H64.4981L62.3268 51.8274H62.177L60.1051 67.5259Z" fill="#23221F"/>
<path fill-rule="evenodd" clip-rule="evenodd" d="M106.265 20.4004C113.586 20.4004 119.543 26.3564 119.543 33.6776V93.8128C119.543 101.134 113.586 107.091 106.265 107.091H33.2996C29.7935 107.091 26.4963 105.737 23.9961 103.287L11.8541 92.1397C9.35387 89.6395 7.9689 86.3025 7.96887 82.7564V33.6883C7.96887 26.3669 13.9257 20.4101 21.2471 20.4101H106.255L106.265 20.4004ZM21.2471 30.3809C19.4142 30.3809 17.93 31.8752 17.93 33.6981V82.7661C17.93 83.6228 18.2587 84.4297 18.8463 85.0473L30.9591 96.164C31.5866 96.7815 32.4132 97.1299 33.2996 97.13H106.255C108.088 97.13 109.572 95.6357 109.572 93.8128L109.582 93.8333V33.6981C109.582 31.8652 108.087 30.3809 106.265 30.3809H21.2471Z" fill="#23221F"/>
</svg>
