<svg xmlns="http://www.w3.org/2000/svg" data-name="レイヤー 2" viewBox="0 0 128 128"><g data-name="発令管理_outline_ol"><path d="M0 0h128v128H0z" style="fill:none"/><path d="M52.86 41.86c0-6.15 4.99-11.14 11.14-11.14s11.14 4.99 11.14 11.14S70.15 53 64 53s-11.14-4.99-11.14-11.14m15.55 15.32h-8.83c-8.33 0-15.09 6.76-15.09 15.09 0 1.67 1.35 3.02 3.02 3.02h32.97c1.67 0 3.02-1.35 3.02-3.02 0-8.33-6.76-15.09-15.09-15.09M120 22.5V35c0 2.76-2.24 5-5 5h-14v65.5c0 8-6.5 14.5-14.5 14.5h-64c-8 0-14.5-6.5-14.5-14.5V93c0-2.76 2.24-5 5-5h14V22.5C27 14.5 33.5 8 41.5 8h64c8 0 14.5 6.5 14.5 14.5M72.71 110c-.46-1.42-.71-2.93-.71-4.5V98H18v7.5c0 2.48 2.02 4.5 4.5 4.5zM91 22.5c0-1.57.26-3.08.72-4.5H41.5c-2.48 0-4.5 2.02-4.5 4.5V88h40c2.76 0 5 2.24 5 5v12.5c0 2.48 2.02 4.5 4.5 4.5s4.5-2.02 4.5-4.5zm19 0c0-2.48-2.02-4.5-4.5-4.5s-4.5 2.02-4.5 4.5V30h9z" style="fill:#23221f"/></g></svg>