<?xml version="1.0" encoding="UTF-8"?>
<svg id="_レイヤー_1" data-name="レイヤー 1" xmlns="http://www.w3.org/2000/svg" width="128" height="128" viewBox="0 0 128 128">
  <defs>
    <style>
      .cls-1 {
        fill: none;
      }

      .cls-2 {
        fill: #23221f;
      }
    </style>
  </defs>
  <path class="cls-1" d="M0,0h128v128H0V0Z"/>
  <path class="cls-2" d="M52.86,41.86c0-6.15,4.99-11.14,11.14-11.14s11.14,4.99,11.14,11.14-4.99,11.14-11.14,11.14-11.14-4.99-11.14-11.14M68.41,57.18h-8.83c-8.33,0-15.09,6.76-15.09,15.09,0,1.67,1.35,3.02,3.02,3.02h32.97c1.67,0,3.02-1.35,3.02-3.02,0-8.33-6.76-15.09-15.09-15.09M120,22.5v12.5c0,2.76-2.24,5-5,5h-14v65.5c0,8-6.5,14.5-14.5,14.5H22.5c-8,0-14.5-6.5-14.5-14.5v-12.5c0-2.76,2.24-5,5-5h14V22.5c0-8,6.5-14.5,14.5-14.5h64c8,0,14.5,6.5,14.5,14.5M72.71,110c-.46-1.42-.71-2.93-.71-4.5v-7.5H18v7.5c0,2.48,2.02,4.5,4.5,4.5h50.21ZM91,22.5c0-1.57.26-3.08.72-4.5h-50.22c-2.48,0-4.5,2.02-4.5,4.5v65.5h40c2.76,0,5,2.24,5,5v12.5c0,2.48,2.02,4.5,4.5,4.5s4.5-2.02,4.5-4.5V22.5ZM110,22.5c0-2.48-2.02-4.5-4.5-4.5s-4.5,2.02-4.5,4.5v7.5h9v-7.5Z"/>
</svg>