<svg xmlns="http://www.w3.org/2000/svg" width="128" height="128" fill="none"><path fill="#23221F" d="M95 40h18c3.86 0 7-3.14 7-7V15c0-3.86-3.14-7-7-7H95c-3.86 0-7 3.14-7 7v4H76.5c-3.86 0-7 3.14-7 7v33H61V32.5c0-3.86-3.14-7-7-7H15c-3.86 0-7 3.14-7 7v63c0 3.86 3.14 7 7 7h39c3.86 0 7-3.14 7-7V69h8.5v33c0 3.86 3.14 7 7 7H88v4c0 3.86 3.14 7 7 7h18c3.86 0 7-3.14 7-7V95c0-3.86-3.14-7-7-7H95c-3.86 0-7 3.14-7 7v4h-8.5V69H88v4c0 3.86 3.14 7 7 7h18c3.86 0 7-3.14 7-7V55c0-3.86-3.14-7-7-7H95c-3.86 0-7 3.14-7 7v4h-8.5V29H88v4c0 3.86 3.14 7 7 7Zm3-22h12v12H98V18ZM34.82 44c5.52 0 10 4.48 10 10s-4.48 10-10 10-10-4.48-10-10 4.49-10 10-10Zm15 40h-30a2.5 2.5 0 0 1-2.5-2.5c0-6.91 5.6-12.5 12.5-12.5h10c6.9 0 12.5 5.6 12.5 12.5 0 1.37-1.12 2.5-2.5 2.5ZM98 98h12v12H98V98Zm0-40h12v12H98V58Z"/></svg>