<?xml version="1.0" encoding="UTF-8"?>
<svg id="_レイヤー_1" data-name="レイヤー 1" xmlns="http://www.w3.org/2000/svg" width="128" height="128" viewBox="0 0 128 128">
  <defs>
    <style>
      .cls-1 {
        fill: #23221f;
      }
    </style>
  </defs>
  <path class="cls-1" d="M97.01,7.99H31.01c-7.19,0-13.04,5.85-13.04,13.04v86c0,7.19,5.85,13.04,13.04,13.04h66c7.19,0,13.04-5.85,13.04-13.04V21.03c0-7.19-5.85-13.04-13.04-13.04ZM99.97,107.03c0,1.63-1.33,2.96-2.96,2.96H31.01c-1.63,0-2.96-1.33-2.96-2.96V21.03c0-1.63,1.33-2.96,2.96-2.96h66c1.63,0,2.96,1.33,2.96,2.96v86Z"/>
  <path class="cls-1" d="M87.01,22.55h-46c-2.49,0-4.5,2.01-4.5,4.5v20.71c0,2.49,2.01,4.5,4.5,4.5h46c2.49,0,4.5-2.01,4.5-4.5v-20.71c0-2.49-2.01-4.5-4.5-4.5ZM82.51,43.26h-37v-11.71h37v11.71Z"/>
  <path class="cls-1" d="M56.12,64.97h-4.74v-4.74c0-1.93-1.57-3.5-3.5-3.5s-3.5,1.57-3.5,3.5v4.74h-4.74c-1.93,0-3.5,1.57-3.5,3.5s1.57,3.5,3.5,3.5h4.74v4.74c0,1.93,1.57,3.5,3.5,3.5s3.5-1.57,3.5-3.5v-4.74h4.74c1.93,0,3.5-1.57,3.5-3.5s-1.57-3.5-3.5-3.5Z"/>
  <path class="cls-1" d="M87.08,64.97h-16.48c-1.93,0-3.5,1.57-3.5,3.5s1.57,3.5,3.5,3.5h16.48c1.93,0,3.5-1.57,3.5-3.5s-1.57-3.5-3.5-3.5Z"/>
  <path class="cls-1" d="M87.48,90.49h-17.28c-1.66,0-3,1.34-3,3s1.34,3,3,3h17.28c1.66,0,3-1.34,3-3s-1.34-3-3-3Z"/>
  <path class="cls-1" d="M56.71,85.76c-1.29-1.29-3.38-1.29-4.67,0l-4.17,4.17-4.17-4.17c-1.29-1.29-3.38-1.29-4.67,0-1.29,1.29-1.29,3.38,0,4.67l4.17,4.17-4.17,4.17c-1.29,1.29-1.29,3.38,0,4.67.64.64,1.49.97,2.33.97s1.69-.32,2.33-.97l4.17-4.17,4.17,4.17c.64.64,1.49.97,2.33.97s1.69-.32,2.33-.97c1.29-1.29,1.29-3.38,0-4.67l-4.17-4.17,4.17-4.17c1.29-1.29,1.29-3.38,0-4.67h.02Z"/>
  <path class="cls-1" d="M78.85,88.77c1.93,0,3.5-1.57,3.5-3.5s-1.57-3.5-3.5-3.5-3.5,1.57-3.5,3.5,1.57,3.5,3.5,3.5Z"/>
  <path class="cls-1" d="M78.85,105.2c1.93,0,3.5-1.57,3.5-3.5s-1.57-3.5-3.5-3.5-3.5,1.57-3.5,3.5,1.57,3.5,3.5,3.5Z"/>
</svg>