<svg width="64" height="64" viewBox="0 0 64 64" fill="none" xmlns="http://www.w3.org/2000/svg">
<path d="M48.5051 4.00977H15.5051C11.9101 4.00977 8.98511 6.93477 8.98511 10.5298V53.5298C8.98511 57.1248 11.9101 60.0498 15.5051 60.0498H48.5051C52.1001 60.0498 55.0251 57.1248 55.0251 53.5298V10.5298C55.0251 6.93477 52.1001 4.00977 48.5051 4.00977ZM49.9851 53.5298C49.9851 54.3448 49.3201 55.0098 48.5051 55.0098H15.5051C14.6901 55.0098 14.0251 54.3448 14.0251 53.5298V10.5298C14.0251 9.71477 14.6901 9.04977 15.5051 9.04977H48.5051C49.3201 9.04977 49.9851 9.71477 49.9851 10.5298V53.5298Z" fill="#23221F"/>
<path d="M43.5051 11.2898H20.5051C19.2601 11.2898 18.2551 12.2948 18.2551 13.5398V23.8948C18.2551 25.1398 19.2601 26.1448 20.5051 26.1448H43.5051C44.7501 26.1448 45.7551 25.1398 45.7551 23.8948V13.5398C45.7551 12.2948 44.7501 11.2898 43.5051 11.2898ZM41.2551 21.6448H22.7551V15.7898H41.2551V21.6448Z" fill="#23221F"/>
<path d="M28.0601 32.4998H25.6901V30.1298C25.6901 29.1648 24.9051 28.3798 23.9401 28.3798C22.9751 28.3798 22.1901 29.1648 22.1901 30.1298V32.4998H19.8201C18.8551 32.4998 18.0701 33.2848 18.0701 34.2498C18.0701 35.2148 18.8551 35.9998 19.8201 35.9998H22.1901V38.3698C22.1901 39.3348 22.9751 40.1198 23.9401 40.1198C24.9051 40.1198 25.6901 39.3348 25.6901 38.3698V35.9998H28.0601C29.0251 35.9998 29.8101 35.2148 29.8101 34.2498C29.8101 33.2848 29.0251 32.4998 28.0601 32.4998Z" fill="#23221F"/>
<path d="M43.5401 32.4998H35.3001C34.3351 32.4998 33.5501 33.2848 33.5501 34.2498C33.5501 35.2148 34.3351 35.9998 35.3001 35.9998H43.5401C44.5051 35.9998 45.2901 35.2148 45.2901 34.2498C45.2901 33.2848 44.5051 32.4998 43.5401 32.4998Z" fill="#23221F"/>
<path d="M43.7401 45.2598H35.1001C34.2701 45.2598 33.6001 45.9298 33.6001 46.7598C33.6001 47.5898 34.2701 48.2598 35.1001 48.2598H43.7401C44.5701 48.2598 45.2401 47.5898 45.2401 46.7598C45.2401 45.9298 44.5701 45.2598 43.7401 45.2598Z" fill="#23221F"/>
<path d="M28.3551 42.8948C27.7101 42.2498 26.6651 42.2498 26.0201 42.8948L23.9351 44.9798L21.8501 42.8948C21.2051 42.2498 20.1601 42.2498 19.5151 42.8948C18.8701 43.5398 18.8701 44.5848 19.5151 45.2298L21.6001 47.3148L19.5151 49.3998C18.8701 50.0448 18.8701 51.0898 19.5151 51.7348C19.8351 52.0548 20.2601 52.2198 20.6801 52.2198C21.1001 52.2198 21.5251 52.0598 21.8451 51.7348L23.9301 49.6498L26.0151 51.7348C26.3351 52.0548 26.7601 52.2198 27.1801 52.2198C27.6001 52.2198 28.0251 52.0598 28.3451 51.7348C28.9901 51.0898 28.9901 50.0448 28.3451 49.3998L26.2601 47.3148L28.3451 45.2298C28.9901 44.5848 28.9901 43.5398 28.3451 42.8948H28.3551Z" fill="#23221F"/>
<path d="M39.4251 44.3998C40.3916 44.3998 41.1751 43.6163 41.1751 42.6498C41.1751 41.6833 40.3916 40.8998 39.4251 40.8998C38.4586 40.8998 37.6751 41.6833 37.6751 42.6498C37.6751 43.6163 38.4586 44.3998 39.4251 44.3998Z" fill="#23221F"/>
<path d="M39.4251 52.6148C40.3916 52.6148 41.1751 51.8313 41.1751 50.8648C41.1751 49.8983 40.3916 49.1148 39.4251 49.1148C38.4586 49.1148 37.6751 49.8983 37.6751 50.8648C37.6751 51.8313 38.4586 52.6148 39.4251 52.6148Z" fill="#23221F"/>
</svg>
