<svg width="128" height="128" fill="none" xmlns="http://www.w3.org/2000/svg"><path d="M78.16 31.33c-4.53-3.13-11.5-2.83-15.55.66-4.05 3.49-3.67 8.87.86 12C68 47.12 75 46.82 79 43.33s3.69-8.87-.84-12ZM36.46 48.14l24.63 17A3.35 3.35 0 0 0 65 65c5.07-4.37 4.59-11.07-1.08-15l-8.21-5.67c-5.67-3.91-14.37-3.54-19.44.83a1.811 1.811 0 0 0 .19 2.98Z" fill="#23221F"/><path d="M20.43 53.21 58.05 81A10 10 0 0 0 70 81l6.71-5v-9.91L65.19 74.6a2 2 0 0 1-2.38 0L25.18 46.77a2 2 0 0 1 0-3.21l37.63-27.82a2 2 0 0 1 2.38 0l37.63 27.82a2.003 2.003 0 0 1 .594 2.503c-.14.279-.344.521-.594.707l-11.21 8.29 6.25 5.29 9.69-7.16a10.002 10.002 0 0 0 2.983-12.542 10.003 10.003 0 0 0-2.983-3.538L70 9.3a10 10 0 0 0-11.9 0L20.43 37.12a10 10 0 0 0 0 16.09ZM101.53 60.63a4.008 4.008 0 0 0-.77 2.19l6.47 5.48 1.92 1.63a5.547 5.547 0 0 0 2.2-4.26c0-2.75-2-4.27-4.23-5.88a4 4 0 0 0-5.59.84Z" fill="#23221F"/><path d="M26.47 60.63a4 4 0 0 0-5.59-.84c-2.18 1.61-4.23 3.13-4.23 5.88s2.05 4.26 4.23 5.87L58.05 99A9.996 9.996 0 0 0 70 99l6.8-5v-9.91L65.19 92.6a2 2 0 0 1-2.38 0l-36.51-27a4 4 0 0 0 .17-4.97Z" fill="#23221F"/><path d="m76.79 102-11.6 8.58a2 2 0 0 1-2.38 0L26.3 83.6a4 4 0 0 0-5.42-5.81c-2.18 1.61-4.23 3.13-4.23 5.88s2.05 4.26 4.23 5.87L58.05 117A9.996 9.996 0 0 0 70 117l9.32-6.9a7.992 7.992 0 0 1-2.47-5.77l-.06-2.33ZM120 87 87.75 59.66c-1.8-1.53-5.17 0-5.16 2.4l.21 42.27c0 2.16 2.93 2.94 4.84 1.28l9.18-7.93 7.65 16.4a5.004 5.004 0 0 0 9.234-.395 5 5 0 0 0-.164-3.825l-7.65-16.41 12-1.93c2.47-.4 3.76-3.14 2.11-4.52Z" fill="#23221F"/></svg>