<svg width="128" height="128" fill="none" xmlns="http://www.w3.org/2000/svg"><title>SmartHR電子申請</title><path d="M17.61 45.92h92.78c4.33 0 7.95-2.96 8.82-7.2.86-4.24-1.31-8.38-5.29-10.08L67.52 8.89a9.076 9.076 0 0 0-7.05 0L14.08 28.64c-3.98 1.69-6.16 5.84-5.29 10.08.87 4.24 4.49 7.2 8.82 7.2ZM64 18.26l41.49 17.66H22.51L64 18.26Zm51 91.91H13c-2.76 0-5 2.24-5 5s2.24 5 5 5h102c2.76 0 5-2.24 5-5s-2.24-5-5-5ZM29.5 52c-2.76 0-5 2.24-5 5v37.13H18c-2.76 0-5 2.24-5 5s2.24 5 5 5h92c2.76 0 5-2.24 5-5s-2.24-5-5-5h-6.5V57c0-2.76-2.24-5-5-5s-5 2.24-5 5v37.13h-13V57c0-2.76-2.24-5-5-5s-5 2.24-5 5v37.13h-13V57c0-2.76-2.24-5-5-5s-5 2.24-5 5v37.13h-13V57c0-2.76-2.24-5-5-5Z" fill="#23221F"/></svg>