<svg width="129" height="128" viewBox="0 0 129 128" fill="none" xmlns="http://www.w3.org/2000/svg">
<path d="M8.5 63V79C8.5 84.51 12.99 89 18.5 89H21.5V53H18.5C12.99 53 8.5 57.49 8.5 63Z" fill="#23221F"/>
<path d="M110.5 53H107.5V89H110.5C116.01 89 120.5 84.51 120.5 79V63C120.5 57.49 116.01 53 110.5 53Z" fill="#23221F"/>
<path d="M95.91 99.57L97.86 98.85C99.25 98.34 99.25 96.37 97.86 95.86L88.78 92.49C88.39 92.34 87.95 91.91 87.8 91.51L86.65 88.4L87.13 89.68L84.44 82.44C83.93 81.05 81.96 81.05 81.45 82.44L78.76 89.68L79.1 88.76L78.08 91.51C77.93 91.9 77.5 92.34 77.1 92.49L68.02 95.86C66.63 96.37 66.63 98.34 68.02 98.85L77.09 102.22C77.48 102.37 77.92 102.8 78.07 103.2L81.44 112.27C81.95 113.66 83.92 113.66 84.43 112.27L87.8 103.2C87.94 102.81 88.38 102.37 88.78 102.22L96.89 99.21L95.9 99.58L95.91 99.57Z" fill="#23221F"/>
<path d="M65.96 90.23L73.16 87.56L73.82 85.77L75.83 80.36C76.95 77.35 79.74 75.4 82.95 75.4C86.16 75.4 88.96 77.35 90.07 80.36L92.08 85.78L92.74 87.57L99.94 90.24C100.76 90.54 101.49 90.98 102.13 91.5C102.55 91.32 102.99 91.18 103.45 91.08C103.48 90.73 103.5 90.37 103.5 90.01V52C103.5 44.83 97.67 39 90.5 39H68.5V29.24C72.59 27.64 75.5 23.66 75.5 19C75.5 12.93 70.57 8 64.5 8C58.43 8 53.5 12.93 53.5 19C53.5 23.65 56.41 27.63 60.5 29.24V39H38.5C31.33 39 25.5 44.83 25.5 52V90C25.5 97.17 31.33 103 38.5 103H63.53C61.95 101.59 60.99 99.58 60.99 97.35C60.99 94.14 62.94 91.34 65.95 90.23H65.96Z" fill="#23221F"/>
<path d="M115.75 107.37L109.17 104.93C108.89 104.83 108.57 104.51 108.46 104.22L106.03 97.65C105.66 96.64 104.24 96.64 103.86 97.65L101.43 104.22C101.32 104.5 101.01 104.82 100.72 104.93L94.14 107.37C93.13 107.74 93.13 109.16 94.14 109.54L100.71 111.97C100.99 112.08 101.31 112.39 101.42 112.68L103.85 119.25C104.22 120.26 105.64 120.26 106.02 119.25L108.45 112.68C108.55 112.4 108.87 112.08 109.16 111.97L115.73 109.54C116.74 109.17 116.74 107.75 115.73 107.37H115.75Z" fill="#23221F"/>
</svg>
