<svg width="128" height="128" fill="none" xmlns="http://www.w3.org/2000/svg"><path d="m118.171 36.18-2.86-2.86a7.009 7.009 0 0 0-9.9 0l-13.89 13.89-10.33-10.33 13.86-13.86a7.008 7.008 0 0 0 0-9.9l-3.41-3.42a7.008 7.008 0 0 0-9.9 0l-13.87 13.86-5.77-5.77a7.008 7.008 0 0 0-9.9 0l-13.53 13.54c-12.6 12.6-13.92 32.21-3.96 46.29l-24.02 24.02a8.002 8.002 0 0 0 0 11.31l4.48 4.48a8.004 8.004 0 0 0 11.31 0l24.02-24.01c14.08 9.96 33.69 8.64 46.29-3.96l13.54-13.54a7.008 7.008 0 0 0 0-9.9l-6.05-6.05 13.89-13.89a7.002 7.002 0 0 0 2.055-4.95 7 7 0 0 0-2.055-4.95Z" fill="#23221F"/></svg>