<svg xmlns="http://www.w3.org/2000/svg" width="128" height="128" fill="none"><title>SmartHRHRアナリティクス</title><path fill="#23221F" d="M54.95 43.77c0 1.65-.33 3.27-.94 4.78l-7.86-6.58V31.72c5.1 1.63 8.8 6.42 8.8 12.05ZM38.45 43.77c0 1.14.5 2.22 1.38 2.95l9.24 7.73c-2 1.27-4.34 1.96-6.77 1.96-6.98 0-12.65-5.67-12.65-12.65 0-5.63 3.7-10.42 8.8-12.05v12.06Z"/><path fill="#23221F" fill-rule="evenodd" d="M104 117H24c-7.17 0-13-5.83-13-13V24c0-7.17 5.83-13 13-13h80c7.17 0 13 5.83 13 13v80c0 7.17-5.83 13-13 13ZM74.88 39.07h25.3c2.72 0 4.93-2.21 4.93-4.93 0-2.72-2.21-4.93-4.93-4.93h-25.3c-2.72 0-4.93 2.21-4.93 4.93 0 2.72 2.21 4.93 4.93 4.93Zm0 9.41h25.3c2.72 0 4.93 2.21 4.93 4.93 0 2.72-2.21 4.93-4.93 4.93h-25.3c-2.72 0-4.93-2.21-4.93-4.93 0-2.72 2.21-4.93 4.93-4.93ZM42.3 64.12c6.03 0 11.72-2.66 15.6-7.29v-.01a20.35 20.35 0 0 0 4.74-13.05c0-11.22-9.13-20.35-20.35-20.35s-20.35 9.13-20.35 20.35 9.13 20.35 20.35 20.35h.01Zm41.72 13.86c0-5.468 4.447-9.917 9.915-9.92 5.468.003 9.915 4.452 9.915 9.92 0 5.47-4.45 9.92-9.92 9.92-2.34 0-4.5-.82-6.2-2.19l-14.05 8.71c.15.68.23 1.39.23 2.12 0 5.47-4.49 9.92-9.92 9.92s-9.85-4.39-9.91-9.81l-12.06-4.12c-1.81 2.44-4.7 4.03-7.96 4.03-5.47 0-9.92-4.45-9.92-9.92s4.59-9.92 9.92-9.92 9.67 4.22 9.9 9.49l12.27 4.19a9.87 9.87 0 0 1 13.97-1.59l14.05-8.71c-.15-.68-.23-1.39-.23-2.12Zm9.915-9.92h.005-.01.005Z" clip-rule="evenodd"/></svg>