<svg xmlns="http://www.w3.org/2000/svg" width="128" height="128" fill="none"><title>SmartHR IdP</title><path fill="#23221F" fill-rule="evenodd" d="M79.57 31.28c0-9.369 7.63-17 17-17 9.37 0 17 7.631 17 17 0 9.37-7.63 17-17 17-9.37 0-17-7.63-17-17Zm11.27 8.56a3.472 3.472 0 0 0 2.47 1.02l.01-.01c.89 0 1.79-.34 2.47-1.019L107.1 28.52a3.5 3.5 0 0 0-2.476-5.977 3.494 3.494 0 0 0-2.475 1.028l-8.84 8.84-2.55-2.55a3.493 3.493 0 0 0-4.95 0 3.494 3.494 0 0 0 0 4.95l5.03 5.03Z" clip-rule="evenodd"/><path fill="#23221F" fill-rule="evenodd" d="M73.57 30.28c0 12.68 10.32 23 23 23h.01c3.55 0 6.919-.81 9.93-2.26v54.94c0 7.191-5.869 13.04-13.08 13.04H34.58c-7.21 0-13.08-5.849-13.08-13.04V27.04C21.5 19.85 27.37 14 34.58 14H80.34a22.938 22.938 0 0 0-6.77 16.282v-.002Zm-12.86 8.98h-20a4 4 0 1 1 0-8h20a4 4 0 0 1 0 8Zm0 13.83h-20a4 4 0 1 1 0-8h20a4 4 0 0 1 0 8ZM58.3 91.45h11.4c7.87 0 14.251 6.38 14.251 14.251a2.855 2.855 0 0 1-2.852 2.848H46.9a2.855 2.855 0 0 1-2.849-2.85c0-7.869 6.38-14.25 14.251-14.25l-.001.001Zm17.1-17.1a11.402 11.402 0 1 1-22.798.505 11.402 11.402 0 0 1 22.799-.506Z" clip-rule="evenodd"/></svg>