<svg width="129" height="128" viewBox="0 0 129 128" fill="none" xmlns="http://www.w3.org/2000/svg">
<path d="M120.13 50.1099C118.3 44.4699 112.22 41.3699 106.58 43.2099C101.93 44.7199 99.02 49.1199 99.16 53.7799L92.37 56.0499C88.01 46.2599 78.64 39.1699 67.53 38.0699V29.7299C72 28.4299 75.28 24.2999 75.28 19.4099C75.28 13.4799 70.46 8.65991 64.53 8.65991C58.6 8.65991 53.78 13.4799 53.78 19.4099C53.78 24.2999 57.06 28.4199 61.53 29.7299V38.0699C50.4 39.1499 41.01 46.2399 36.64 56.0399L29.87 53.7799C29.93 51.9899 29.54 50.1899 28.7 48.5499C27.4 45.9899 25.17 44.0899 22.44 43.2099C16.8 41.3799 10.72 44.4699 8.89002 50.1099C8.00002 52.8399 8.23002 55.7499 9.54002 58.3099C10.85 60.8699 13.07 62.7699 15.8 63.6499C16.89 64.0099 18.02 64.1799 19.13 64.1799C20.8 64.1799 22.46 63.7799 24 62.9999C25.64 62.1699 27 60.9499 28 59.4699L34.74 61.7199C34.26 63.8699 33.99 66.1099 33.99 68.3999C33.99 77.4499 37.95 85.5799 44.23 91.1699L39.93 97.0599C38.24 96.4499 36.42 96.2699 34.6 96.5599C31.76 97.0099 29.27 98.5399 27.58 100.86C24.1 105.66 25.16 112.39 29.96 115.88C31.86 117.26 34.07 117.93 36.27 117.93C39.6 117.93 42.88 116.39 44.98 113.5C46.67 111.18 47.35 108.33 46.9 105.5C46.61 103.68 45.88 102.01 44.78 100.6L49.08 94.7099C53.61 97.3699 58.87 98.9099 64.49 98.9099C70.11 98.9099 75.39 97.3699 79.92 94.6999L84.23 100.6C81.38 104.28 81.16 109.55 84.02 113.5C85.71 115.82 88.2 117.35 91.04 117.8C91.61 117.89 92.18 117.93 92.75 117.93C95 117.93 97.19 117.22 99.05 115.87C101.37 114.18 102.9 111.69 103.35 108.85C103.8 106.01 103.12 103.17 101.43 100.85C99.74 98.5299 97.25 96.9999 94.41 96.5499C92.59 96.2599 90.77 96.4399 89.08 97.0499L84.77 91.1499C91.04 85.5599 94.99 77.4299 94.99 68.3899C94.99 66.0999 94.73 63.8599 94.25 61.7099L101.02 59.4499C103.02 62.3799 106.37 64.1499 109.91 64.1499C111.01 64.1499 112.12 63.9799 113.23 63.6199C115.96 62.7299 118.18 60.8299 119.49 58.2799C120.8 55.7299 121.02 52.8099 120.14 50.0799L120.13 50.1099ZM64.5 50.7499C69.08 50.7499 72.79 54.4399 72.79 58.9999C72.79 63.5599 69.08 67.2499 64.5 67.2499C59.92 67.2499 56.21 63.5499 56.21 58.9999C56.21 54.4499 59.92 50.7499 64.5 50.7499ZM76.93 83.7499H52.07C50.93 83.7499 50 82.8199 50 81.6899C50 75.9899 54.63 71.3799 60.36 71.3799H68.65C74.37 71.3799 79.01 75.9899 79.01 81.6899C79.01 82.8299 78.08 83.7499 76.94 83.7499H76.93Z" fill="#23221F"/>
</svg>
