<svg width="128" height="128" fill="none" xmlns="http://www.w3.org/2000/svg"><path d="M121.25 57.83c0-8.65-4.54-15.76-10.38-16.73V23.13c0-2.9-1.62-5.48-4.23-6.73a7.416 7.416 0 0 0-7.9.88l-.24.2C86.66 27.95 71.46 34.21 55.68 35.09l-3.87.22H20c-6.63 0-12 5.37-12 12v19.63c0 6.63 5.37 12 12 12h5.39v25.26c0 5.9 4.8 10.7 10.7 10.7h5.29c5.9 0 10.7-4.8 10.7-10.7V78.71l3.58.2c15.78.88 30.99 7.14 42.83 17.61l.24.2a7.449 7.449 0 0 0 4.64 1.64c1.1 0 2.21-.25 3.26-.75a7.422 7.422 0 0 0 4.23-6.73V74.56c5.85-.97 10.39-8.09 10.39-16.73ZM98.87 81.58C86.7 73.14 72.35 68.05 57.52 67V47c14.83-1.04 29.18-6.14 41.35-14.58v49.16Z" fill="#23221F"/></svg>