<svg width="128" height="128" fill="none" xmlns="http://www.w3.org/2000/svg"><title>SmartHRサービス連携</title><path d="M120 90.02c0-11.07-8.97-20.05-20.05-20.05h-1.91c-8.98 0-16.58 5.91-19.13 14.04H53c-4.14 0-7.5-3.36-7.5-7.5 0-4.14 3.36-7.5 7.5-7.5h22c10.75 0 19.5-8.75 19.5-19.5s-8.75-19.5-19.5-19.5H49.08c-2.55-8.14-10.15-14.04-19.13-14.04h-1.91C16.97 15.98 8 24.95 8 36.02s8.97 20.05 20.05 20.05h1.91c8.98 0 16.58-5.91 19.13-14.05H75c4.14 0 7.5 3.36 7.5 7.5 0 4.14-3.36 7.5-7.5 7.5H53c-10.75 0-19.5 8.75-19.5 19.5s8.75 19.5 19.5 19.5h25.92c2.55 8.14 10.15 14.05 19.13 14.05h1.91c11.07 0 20.04-8.98 20.04-20.05Z" fill="#23221F"/></svg>