<svg xmlns="http://www.w3.org/2000/svg" id="uuid-fed8c7f8-e799-4451-9591-617a1b8db353" viewBox="0 0 128 128"><defs><style>.uuid-0370cf5e-8ded-4f3c-aed6-a78578058268{fill:#23221f}</style></defs><path d="m118.27 81.22-4.39-22.76c-.06-.3-.15-.59-.26-.87-.03-.09-.07-.17-.11-.25-.09-.2-.19-.38-.3-.56-.05-.08-.09-.15-.14-.23a5.94 5.94 0 0 0-.55-.67l-.03-.03c-.2-.19-.41-.37-.64-.53-.07-.05-.14-.09-.21-.14-.18-.11-.36-.21-.56-.3a5.05 5.05 0 0 0-.94-.33c-.05-.01-.1-.03-.16-.04h-.02c-.28-.06-.56-.08-.84-.09h-.26c-.23 0-.45.03-.67.06-.05 0-.1 0-.16.01l-22.58 4.35a4.992 4.992 0 0 0-3.96 5.86 4.993 4.993 0 0 0 5.85 3.96l10.83-2.09-22.94 34.33-28.15-16.81a4.993 4.993 0 0 0-6.46 1.17l-19 23.7c-1.73 2.15-1.38 5.3.77 7.03.92.74 2.03 1.1 3.12 1.1 1.46 0 2.92-.64 3.9-1.87l16.28-20.3 28.49 17.01c2.29 1.37 5.24.7 6.72-1.51l25.47-38.12 2.08 10.81a4.997 4.997 0 0 0 5.86 3.96 4.992 4.992 0 0 0 3.96-5.86ZM71.6 29.16c5.78-1.11 9.57-6.71 8.45-12.49-1.11-5.78-6.71-9.57-12.49-8.45-5.78 1.11-9.57 6.71-8.45 12.49 1.11 5.78 6.71 9.57 12.49 8.45Z" class="uuid-0370cf5e-8ded-4f3c-aed6-a78578058268"/><path d="M27.35 83.7c2.09 0 4.14-1.01 5.39-2.86l8.25-12.21 27.95 18.31A6.46 6.46 0 0 0 72.5 88c2.12 0 4.2-1.03 5.44-2.94a6.5 6.5 0 0 0-1.87-9L56.64 63.33l10.01-14.74c.11-.16.2-.33.3-.49l9.02 5.85a6.495 6.495 0 0 0 8.99-1.91c1.95-3.01 1.1-7.04-1.92-8.99l-14.07-9.13c-3.79-2.7-7.99-4.66-12.5-5.84-.12-.03-.25-.06-.38-.09l-21.93-4.36c-2.56-.51-5.19.57-6.65 2.73l-8.32 12.3c-2.01 2.97-1.23 7.01 1.74 9.03 2.97 2.01 7.01 1.23 9.03-1.74l5.9-8.72 9.43 1.88-7.96 11.73-11.91 17.63-7.58-4.54c-3.08-1.85-7.07-.84-8.92 2.24a6.51 6.51 0 0 0 2.24 8.92l12.86 7.7c1.04.62 2.2.92 3.33.92Z" class="uuid-0370cf5e-8ded-4f3c-aed6-a78578058268"/></svg>