<svg xmlns="http://www.w3.org/2000/svg" id="uuid-f14a52b3-abf2-4518-8310-63ba1de430e2" viewBox="0 0 128 128"><defs><style>.uuid-16f5b247-7e51-4669-85fd-50a6829a526b{fill:#23221f}</style></defs><path d="M14.65 120.92c-.86 0-1.72-.17-2.55-.51a6.66 6.66 0 0 1-4.14-6.23c.11-14.53.16-22.92.16-24.96V43.96c0-2.76 2.24-5 5-5s5 2.24 5 5v45.26c0 1.71-.04 7.49-.11 17.59l15.05-13.29a8.963 8.963 0 0 1 5.96-2.25h37.95c2.76 0 5 2.24 5 5s-2.24 5-5 5H39.4l-20.16 17.81a6.639 6.639 0 0 1-4.59 1.85ZM71.47 43.58c1.28.6 2.78.6 4.05 0l44.06-25.79C118.53 12.22 113.65 8 107.81 8H38.96c-5.8 0-10.66 4.16-11.75 9.67l44.27 25.91Z" class="uuid-16f5b247-7e51-4669-85fd-50a6829a526b"/><path d="m119.81 29.25-39.65 23.2a14.784 14.784 0 0 1-13.3 0l-.27-.15-39.62-23.18V65.3c0 6.64 5.38 12.04 11.99 12.04h46.55l23.11 21.74a6.626 6.626 0 0 0 7.21 1.41 6.664 6.664 0 0 0 4.14-6.24c-.05-7.22-.16-26.04-.16-28.96V29.25Z" class="uuid-16f5b247-7e51-4669-85fd-50a6829a526b"/></svg>