<svg width="128" height="128" fill="none" xmlns="http://www.w3.org/2000/svg"><title>SmartHR人事評価</title><path d="M115.56 74.58c-2.96-2.94-7.72-2.94-10.66 0l-4.03 4.03 13.35 13.37 4.03-4.03c2.96-2.96 2.96-7.72 0-10.66l-2.69-2.71ZM75.2 105.49l-2.83 11.17c-.26 1.19.04 2.28.79 3.03a3.07 3.07 0 0 0 2.86.79l11.32-2.84c1.05-.26 2.03-.81 2.81-1.58l19.81-19.81-13.37-13.36-19.81 19.64c-.77.94-1.31 1.9-1.58 2.96Z" fill="#23221F"/><path d="m66.53 115.28.03-.1 2.82-11.15c.43-1.74 1.26-3.36 2.49-4.94H42c-1.66 0-3-1.34-3-3s1.34-3 3-3h35.78l8.07-8H42c-1.66 0-3-1.34-3-3s1.34-3 3-3h44c1.62 0 2.93 1.28 2.99 2.89l3.38-3.35 8.29-8.29c1.52-1.52 3.35-2.63 5.34-3.28V19.09c0-6.07-4.93-11-11-11H33c-6.07 0-11 4.93-11 11v86c0 6.07 4.93 11 11 11h33.4c.03-.24.06-.48.11-.71l.02-.1ZM38 26.09c0-2.21 1.79-4 4-4h44c2.21 0 4 1.79 4 4v40c0 2.21-1.79 4-4 4H42c-2.21 0-4-1.79-4-4v-40Z" fill="#23221F"/><path d="M64 28.56a8.79 8.79 0 1 1 .001 17.579A8.79 8.79 0 0 1 64 28.56Zm15.39 32.97c0-6.07-4.92-10.99-10.99-10.99h-8.8c-6.07 0-10.99 4.92-10.99 10.99 0 1.21.98 2.2 2.2 2.2h26.38c1.21 0 2.2-.99 2.2-2.2Z" fill="#23221F"/></svg>