<svg xmlns="http://www.w3.org/2000/svg" data-name="レイヤー 2" viewBox="0 0 128 128"><path d="M0 0h128v128H0z" style="fill:none"/><path d="M116 64c0 3.43-1.93 6.45-5.03 7.9-.12.06-.25.11-.38.16L82.47 82.47l-10.41 28.12c-.05.13-.1.25-.16.38-1.45 3.1-4.48 5.03-7.9 5.03s-6.45-1.93-7.9-5.03c-.06-.12-.11-.25-.16-.38L45.53 82.47 17.41 72.06c-.13-.05-.25-.1-.38-.16C13.93 70.45 12 67.42 12 64s1.93-6.45 5.03-7.9c.12-.06.25-.11.38-.16l28.12-10.41 10.41-28.12c.05-.13.1-.25.16-.38C57.55 13.93 60.58 12 64 12s6.45 1.93 7.9 5.03c.06.12.11.25.16.38l10.41 28.12 28.12 10.41c.13.05.25.1.38.16 3.1 1.45 5.03 4.48 5.03 7.9M32.24 32.24a6 6 0 0 0 0-8.48l-14-14a6 6 0 0 0-8.48 0 6 6 0 0 0 0 8.48l14 14a5.99 5.99 0 0 0 8.48 0m-14 86 14-14a6 6 0 0 0 0-8.48 6 6 0 0 0-8.48 0l-14 14A6 6 0 0 0 14 120c1.53 0 3.07-.59 4.24-1.76m86-86 14-14a6 6 0 0 0 0-8.48 6 6 0 0 0-8.48 0l-14 14A6 6 0 0 0 100 34c1.53 0 3.07-.59 4.24-1.76m14 86a6 6 0 0 0 0-8.48l-14-14a6 6 0 0 0-8.48 0 6 6 0 0 0 0 8.48l14 14a5.99 5.99 0 0 0 8.48 0" style="fill:#23221f"/></svg>