<?xml version="1.0" encoding="UTF-8"?>
<svg id="_レイヤー_1" data-name="レイヤー 1" xmlns="http://www.w3.org/2000/svg" width="128" height="128" viewBox="0 0 128 128">
  <defs>
    <style>
      .cls-1 {
        fill: none;
      }

      .cls-2 {
        fill: #23221f;
      }
    </style>
  </defs>
  <path class="cls-1" d="M0,0h128v128H0V0Z"/>
  <path class="cls-2" d="M116,64c0,3.43-1.93,6.45-5.03,7.9-.12.06-.25.11-.38.16l-28.12,10.41-10.41,28.12c-.05.13-.1.25-.16.38-1.45,3.1-4.48,5.03-7.9,5.03s-6.45-1.93-7.9-5.03c-.06-.12-.11-.25-.16-.38l-10.41-28.12-28.12-10.41c-.13-.05-.25-.1-.38-.16-3.1-1.45-5.03-4.48-5.03-7.9s1.93-6.45,5.03-7.9c.12-.06.25-.11.38-.16l28.12-10.41,10.41-28.12c.05-.13.1-.25.16-.38,1.45-3.1,4.48-5.03,7.9-5.03s6.45,1.93,7.9,5.03c.06.12.11.25.16.38l10.41,28.12,28.12,10.41c.13.05.25.1.38.16,3.1,1.45,5.03,4.48,5.03,7.9M32.24,32.24c2.34-2.34,2.34-6.14,0-8.48l-14-14c-2.34-2.34-6.14-2.34-8.48,0-2.34,2.34-2.34,6.14,0,8.48l14,14c2.34,2.34,6.13,2.35,8.47,0,0,0,0,0,0,0M18.24,118.24l14-14c2.34-2.34,2.34-6.14,0-8.48-2.34-2.34-6.14-2.34-8.48,0l-14,14c-2.34,2.34-2.34,6.14,0,8.49,1.12,1.12,2.65,1.75,4.23,1.75,1.53,0,3.07-.59,4.24-1.76M104.24,32.24l14-14c2.34-2.34,2.34-6.14,0-8.48-2.34-2.34-6.14-2.34-8.48,0l-14,14c-2.34,2.34-2.34,6.14,0,8.49,1.12,1.12,2.65,1.75,4.23,1.75,1.53,0,3.07-.59,4.24-1.76M118.24,118.24c2.34-2.34,2.34-6.14,0-8.48l-14-14c-2.34-2.34-6.14-2.34-8.48,0-2.34,2.34-2.34,6.14,0,8.48l14,14c2.34,2.34,6.13,2.35,8.47,0,0,0,0,0,0,0"/>
</svg>