<svg xmlns="http://www.w3.org/2000/svg" width="90" height="90" fill="none"><title>SmartHR勤怠</title><path fill="#23221F" d="M60.469 17.543H29.53V33.49H60.47V17.543ZM60.469 7.031a1.41 1.41 0 0 0-1.407-1.406H30.939a1.41 1.41 0 0 0-1.407 1.406v4.887H60.47V7.031ZM45 49.627c-6.202 0-11.25 5.048-11.25 11.25s5.048 11.25 11.25 11.25 11.25-5.048 11.25-11.25-5.048-11.25-11.25-11.25Zm5.569 16.798a2.466 2.466 0 0 1-1.744.724 2.42 2.42 0 0 1-1.737-.724l-3.832-3.832a2.46 2.46 0 0 1-.724-1.737v-6.56a2.464 2.464 0 0 1 2.461-2.461 2.464 2.464 0 0 1 2.46 2.46v5.541l3.109 3.108a2.457 2.457 0 0 1 0 3.48h.007Z"/><path fill="#23221F" d="M73.125 25.313h-7.031v8.184H67.5a2.812 2.812 0 1 1 0 5.625H22.5a2.812 2.812 0 1 1 0-5.625h1.406v-8.184h-7.031a6.338 6.338 0 0 0-6.328 6.328v43.593c0 5.042 4.1 9.141 9.14 9.141h50.626c5.04 0 9.14-4.1 9.14-9.14V31.64a6.338 6.338 0 0 0-6.328-6.328ZM45 77.047c-8.93 0-16.172-7.242-16.172-16.171 0-8.93 7.242-16.172 16.172-16.172s16.172 7.242 16.172 16.172S53.93 77.048 45 77.048Z"/></svg>