<?xml version="1.0" encoding="UTF-8"?>
<svg id="_レイヤー_1" data-name="レイヤー_1" xmlns="http://www.w3.org/2000/svg" version="1.1" viewBox="0 0 128 128">
  <!-- Generator: Adobe Illustrator 29.8.5, SVG Export Plug-In . SVG Version: 2.1.1 Build 2)  -->
  <defs>
    <style>
      .st0 {
        fill: #23221f;
      }
    </style>
  </defs>
  <path class="st0" d="M86,25h-44v22.7h44v-22.7h0ZM86,10c0-1.1-.9-2-2-2h-40c-1.1,0-2,.9-2,2v7h44v-7h0ZM64,70.6c-8.8,0-16,7.2-16,16s7.2,16,16,16,16-7.2,16-16-7.2-16-16-16ZM71.9,94.5c-.7.7-1.5,1-2.5,1-.9,0-1.8-.4-2.5-1l-5.4-5.4c-.7-.7-1-1.5-1-2.5v-9.3c0-1.9,1.6-3.5,3.5-3.5,1.9,0,3.5,1.6,3.5,3.5v7.9l4.4,4.4c1.4,1.4,1.4,3.6,0,4.9,0,0,0,0,0,0h0ZM104,36h-10v11.6h2c2.2,0,4,1.8,4,4s-1.8,4-4,4h-64c-2.2,0-4-1.8-4-4s1.8-4,4-4h2v-11.6h-10c-5,0-9,4-9,9v62c0,7.2,5.8,13,13,13h72c7.2,0,13-5.8,13-13v-62c0-5-4-9-9-9h0ZM64,109.6c-12.7,0-23-10.3-23-23s10.3-23,23-23,23,10.3,23,23-10.3,23-23,23h0Z"/>
</svg>