<svg width="128" height="128" fill="none" xmlns="http://www.w3.org/2000/svg"><path d="M71.15 52.56V16c0-4.42-3.58-8-8-8H16.07c-4.42 0-8 3.58-8 8v47.09c0 4.42 3.58 8 8 8h36.46v34.76c0 6.75 5.5 12.25 12.25 12.25h41.04c6.75 0 12.25-5.5 12.25-12.25V64.81c0-6.75-5.5-12.25-12.25-12.25H71.15Zm-32.46 3.2c0-2.49 1.77-2.55 3.06-2.59 11.9-.68 11.9-7.18 11.9-9.31 0-5.96-4.37-7.91-7.78-8.83-1.48 3.65-5.08 10.43-8.75 14.7.75 1.5.91 1.83.91 2.54 0 1.51-1.43 2.83-3.07 2.83-1.04 0-1.58-.59-2-1.13-1.55 1.3-4.01 3.24-7.51 3.24-4.68 0-7.95-3.88-7.95-9.43 0-6.59 4.54-12.67 11.86-15.9l.02-1.34c.03-2.14.04-2.71.07-3.93h-7.82c-.85 0-3.12 0-3.12-2.74s2.01-2.74 4.55-2.74h1.48c1.67 0 4.12.02 5.07 0v-.34c.07-1.8.13-3.34.29-3.84.05-.2.49-1.57 2.58-1.57s3.07.88 3.07 2.78c0 .25-.04.96-.08 1.64-.03.47-.05.92-.06 1.22 2.81-.05 8.24-.14 11.68-.33.4-.02 1.29-.06 2.36-.12 2.15-.11 5.1-.26 5.87-.26 1.97 0 2.97.94 2.97 2.78 0 2.45-1.78 2.59-2.96 2.68-6.52.43-13.42.57-20.1.72h-.05c-.04.76-.11 2.69-.12 3.61 2.1-.41 4.25-.61 6.39-.61 8.74 0 18.08 3.85 18.08 14.64 0 6.09-3.09 9.3-4.93 10.67-5.08 3.78-12.32 3.83-12.63 3.83-.82 0-3.31 0-3.31-2.88l.03.01Zm70.87 50.08c0 2.07-1.68 3.75-3.75 3.75H64.77c-2.07 0-3.75-1.68-3.75-3.75V64.8c0-2.07 1.68-3.75 3.75-3.75h41.04c2.07 0 3.75 1.68 3.75 3.75v41.04Z" fill="#23221F"/><path d="M34.94 35.07c-.05 2.1-.11 5.22.34 8.42 3.01-4.25 4.43-7.5 5.11-9.14-1.38.01-2.99.11-5.45.71v.01ZM22.89 47.73c0 4.08 2.58 4.29 3.1 4.29 1.28 0 2.94-1.01 4.79-2.93-.92-3.25-1.46-7.43-1.5-11.58-3 1.91-6.39 5.18-6.39 10.21v.01ZM91.44 69.25c-.59-1.88-1.83-2.8-3.8-2.8h-4.69c-1.96 0-3.2.92-3.79 2.8l-9.54 31.71c-.31 1.07-.26 1.87.17 2.43.6.8 1.73.8 2.27.8h2.78c2 0 2.68-1.03 3.2-2.82l1.87-6.72h10.57l1.87 6.72c.51 1.78 1.2 2.82 3.19 2.82h3.08c.53 0 1.64 0 2.23-.79.42-.56.47-1.36.15-2.45l-9.54-31.71-.02.01Zm-9.52 18.1 3.25-11.76 3.25 11.76h-6.51.01Z" fill="#23221F"/></svg>