<svg xmlns="http://www.w3.org/2000/svg" width="128" height="128" fill="none"><path fill="#23221F" d="M107.06 8.04h-50c-7.17 0-13 5.83-13 13V24H21c-7.17 0-13 5.83-13 13v70c0 7.17 5.83 13 13 13h37V96.18c0-2.76 2.24-5 5-5h21V37c0-7.17-5.83-13-13-13H54.06v-2.96c0-1.65 1.35-3 3-3h50c1.65 0 3 1.35 3 3V91c0 1.65-1.34 3-3 3H95.01c-2.76 0-5 2.24-5 5s2.24 5 5 5h12.06c7.16 0 12.99-5.84 12.99-13V21.04c0-7.17-5.84-13-13-13ZM61 76.06H31c-2.76 0-5-2.24-5-5s2.24-5 5-5h30c2.76 0 5 2.24 5 5s-2.24 5-5 5Zm5-25c0 2.76-2.24 5-5 5H31c-2.76 0-5-2.24-5-5s2.24-5 5-5h30c2.76 0 5 2.24 5 5Z"/><path fill="#23221F" d="m64 116.86 20-19.67v-.01H64v19.68Z"/></svg>