<svg width="128" height="128" fill="none" xmlns="http://www.w3.org/2000/svg"><path d="M59.86 31.13a6.5 6.5 0 0 0-6.5 6.5v22.26c0 1.72.68 3.38 1.9 4.6l12.99 12.99a6.471 6.471 0 0 0 4.6 1.9 6.494 6.494 0 0 0 4.6-11.09L66.36 57.2V37.63a6.5 6.5 0 0 0-6.5-6.5Zm59.17 46.69-2.69-2.71c-2.96-2.94-7.72-2.94-10.66 0l-4.03 4.03L115 92.5l4.03-4.03c2.96-2.95 2.96-7.72 0-10.65Zm-41.46 25.23c-.77.94-1.32 1.9-1.58 2.96l-2.83 11.17c-.26 1.19.04 2.28.79 3.03a3.07 3.07 0 0 0 2.86.79l11.32-2.84c1.05-.26 2.03-.81 2.81-1.58l19.81-19.81-13.37-13.36-19.81 19.64Z" fill="#23221F"/><path d="M59.1 98.48c-21.7 0-39.35-17.65-39.35-39.35 0-21.7 17.65-39.35 39.35-39.35 21.7 0 39.35 17.65 39.35 39.35 0 6.22-1.46 12.11-4.04 17.35l6.32-6.32c2.74-2.74 6.39-4.25 10.27-4.25.29-2.22.45-4.47.45-6.77 0-28.91-23.44-52.35-52.35-52.35S6.75 30.22 6.75 59.13c0 28.91 23.44 52.35 52.35 52.35 2.88 0 5.7-.24 8.45-.69l1.64-6.48c.51-2.02 1.47-3.88 2.96-5.7l.23-.28.26-.25 3.52-3.49a39.16 39.16 0 0 1-17.06 3.89Z" fill="#23221F"/></svg>