<svg width="128" height="128" fill="none" xmlns="http://www.w3.org/2000/svg"><path d="M100.44 24.34C80.97 4.87 50.63 2.75 28.78 17.95l-7.61-7.61a4.989 4.989 0 0 0-5.45-1.08 5 5 0 0 0-3.09 4.62v23c0 2.76 2.24 5 5 5h23a5.007 5.007 0 0 0 3.54-8.54l-6.01-6.01c16.61-10.24 38.7-8.18 53.08 6.2 16.8 16.8 16.8 44.13 0 60.93-16.8 16.8-44.13 16.8-60.93 0a6.494 6.494 0 0 0-9.19 0 6.494 6.494 0 0 0 0 9.19c10.93 10.93 25.3 16.4 39.66 16.4 14.36 0 28.72-5.47 39.66-16.4 21.86-21.86 21.86-57.44 0-79.31Z" fill="#23221F"/><path d="M60.78 35.23a6.5 6.5 0 0 0-6.5 6.5V64c0 1.72.68 3.38 1.9 4.6l12.99 12.99a6.471 6.471 0 0 0 4.6 1.9 6.494 6.494 0 0 0 4.6-11.09L67.28 61.31V41.73a6.5 6.5 0 0 0-6.5-6.5Z" fill="#23221F"/></svg>