<svg width="128" height="128" fill="none" xmlns="http://www.w3.org/2000/svg"><title>SmartHR手続き</title><path d="M78 8v28h28L78 8Zm-7 28V8H31.51C26.26 8 22 12.26 22 17.51v92.99c0 5.25 4.26 9.51 9.51 9.51H96.5c5.25 0 9.51-4.26 9.51-9.51V43H78.2c-4.07 0-7.2-3.13-7.2-7Zm10.5 63H45.99c-.82 0-1.61-.37-2.1-1.03-2.13-2.83-.11-5.97 2.61-5.97h35.51c.82 0 1.61.37 2.1 1.03 2.13 2.83.11 5.97-2.61 5.97Zm0-14H45.99c-.82 0-1.61-.37-2.1-1.03-2.13-2.83-.11-5.97 2.61-5.97h35.51c.82 0 1.61.37 2.1 1.03 2.13 2.83.11 5.97-2.61 5.97Zm2.61-15.03c-.49.66-1.28 1.03-2.1 1.03H45.99c-.82 0-1.61-.37-2.1-1.03-2.13-2.83-.11-5.97 2.61-5.97h35c2.72 0 4.74 3.14 2.61 5.97Z" fill="#23221F"/></svg>