<svg width="129" height="128" viewBox="0 0 129 128" fill="none" xmlns="http://www.w3.org/2000/svg">
<path d="M77.81 8.29999V25.09H94.97L77.81 8.29999Z" fill="#23221F"/>
<path d="M114.64 89.84H98.28C95.07 89.84 92.46 92.45 92.46 95.66V99.64H79.45C79.45 99.64 79.37 99.54 79.33 99.49L68.53 88.69C68.53 88.69 68.51 88.68 68.5 88.67V78H88.5C92.36 78 95.5 74.86 95.5 71V31.1H75.81C73.6 31.1 71.81 29.31 71.81 27.1V7.98999H40.5C36.64 7.98999 33.5 11.13 33.5 14.99V70.99C33.5 74.85 36.64 77.99 40.5 77.99H60.5V88.66C60.5 88.66 60.48 88.67 60.47 88.68L49.67 99.48C49.67 99.48 49.59 99.58 49.54 99.63H36.46V95.65C36.46 92.44 33.85 89.83 30.64 89.83H14.28C11.07 89.83 8.46002 92.44 8.46002 95.65V112.01C8.46002 115.22 11.07 117.83 14.28 117.83H30.64C33.85 117.83 36.46 115.22 36.46 112.01V107.62H49.76L60.47 118.33C61.58 119.44 63.04 119.99 64.5 119.99C65.96 119.99 67.42 119.44 68.53 118.32L79.24 107.61H92.47V112C92.47 115.21 95.08 117.82 98.29 117.82H114.65C117.86 117.82 120.47 115.21 120.47 112V95.64C120.47 92.43 117.86 89.82 114.65 89.82L114.64 89.84ZM51.34 43.23H77.34C79.55 43.23 81.34 45.02 81.34 47.23C81.34 49.44 79.55 51.23 77.34 51.23H51.34C49.13 51.23 47.34 49.44 47.34 47.23C47.34 45.02 49.13 43.23 51.34 43.23ZM51.34 65.07C49.13 65.07 47.34 63.28 47.34 61.07C47.34 58.86 49.13 57.07 51.34 57.07H77.34C79.55 57.07 81.34 58.86 81.34 61.07C81.34 63.28 79.55 65.07 77.34 65.07H51.34Z" fill="#23221F"/>
</svg>
