<svg width="128" height="128" fill="none" xmlns="http://www.w3.org/2000/svg"><title>SmartHR源泉徴収票</title><path d="M73 80H55v11h18V80ZM31 90c0 .55.45 1 1 1h17V80H31v10Zm42-27H55v11h18V63Zm-42 1v10h18V63H32c-.55 0-1 .45-1 1Zm66 26V80H79v11h17c.55 0 1-.45 1-1Zm0-26c0-.55-.45-1-1-1H79v11h18V64Z" fill="#23221F"/><path d="M83.12 46.03V22H21c-6.07 0-11 4.93-11 11v62c0 6.07 4.93 11 11 11h86c6.07 0 11-4.93 11-11V53.03H90.12c-3.85 0-7-3.14-7-7ZM103 64v26c0 3.86-3.14 7-7 7H32c-3.86 0-7-3.14-7-7V64c0-3.86 3.14-7 7-7h64c3.86 0 7 3.14 7 7Z" fill="#23221F"/><path d="M90.12 47.03H118v-.38L89.12 22.28v23.75c0 .55.45 1 1 1Z" fill="#23221F"/></svg>