<svg width="128" height="128" viewBox="0 0 128 128" fill="none" xmlns="http://www.w3.org/2000/svg">
<path d="M62.5703 52.0303L64.75 67.79H60.3398L62.4199 52.0303H62.5703Z" fill="#23221F"/>
<path fill-rule="evenodd" clip-rule="evenodd" d="M106.68 20.4902C114.03 20.4902 120.01 26.4703 120.01 33.8203V94.1904C120.01 101.54 114.03 107.521 106.68 107.521H33.4297C29.9098 107.52 26.5998 106.16 24.0898 103.7L11.9004 92.5098C9.39042 89.9998 8 86.6498 8 83.0898V33.8203C8 26.4703 13.9801 20.4902 21.3301 20.4902H106.68ZM28.5195 42.0605C26.6299 42.0608 25.9902 43.4708 25.9902 45.1807V47.8105C25.9903 49.5303 26.64 50.9304 28.5195 50.9307H33.8203V82.8203C33.8203 85.15 34.9598 85.9403 36.3496 85.9404H39.5703C40.9602 85.9403 42.0996 85.1401 42.0996 82.8203V50.9307H47.4004C49.29 50.9305 49.9296 49.5203 49.9297 47.8105H49.9199V45.1807C49.9199 43.4707 49.2696 42.0605 47.3896 42.0605H28.5195ZM59.6904 42.0801C58.2005 42.0801 57.0202 42.7502 56.6201 45.1299L50.0801 82.8799C49.5801 85.6896 50.7697 85.9306 52.0596 85.9307H55.9297C57.3697 85.9307 58.0604 85.2599 58.3604 82.8799L59.2002 76.4707H65.9404L66.8301 82.8799C67.18 85.2596 67.8699 85.9305 69.3096 85.9307H73.2695C74.5595 85.9307 75.7499 85.6903 75.25 82.9404L68.5098 45.0703C68.1198 42.7505 66.9302 42.0802 65.4404 42.0801H59.6904ZM79.6201 42.0703C78.3801 42.0703 77.2401 42.5004 78.0801 44.9404L84.4199 63.4502L77.3398 83.1201C76.4498 85.5001 77.6401 85.9307 78.8301 85.9307H83.1396C84.6196 85.9307 85.3696 85.3202 86.0596 83.0605L89.4805 72H89.5801L92.9004 83.0605C93.5904 85.3202 94.3304 85.9307 95.8203 85.9307H100.17C101.36 85.9307 102.55 85.5003 101.71 83.0605L94.8701 63.3301L101.51 44.8799C102.35 42.5001 101.209 42.0703 100.02 42.0703H95.8096C94.3299 42.0704 93.5798 42.6806 92.8398 44.9404L89.7695 54.4102H89.6699L86.9502 45C86.3102 42.7402 85.57 42.0703 84.0801 42.0703H79.6201Z" fill="#23221F"/>
</svg>
