<svg width="128" height="128" fill="none" xmlns="http://www.w3.org/2000/svg"><title>SmartHR申請</title><path d="M86 53.54v-30.7c0-4.96-4.04-9-9-9H21c-4.96 0-9 4.04-9 9v82.32c0 4.96 4.04 9 9 9h56c1.26 0 2.47-.27 3.56-.74-9.89-5.72-16.57-16.43-16.57-28.68 0-14.39 9.2-26.65 22.01-31.2Zm-22.79 7.29H35.53c-2.21 0-4-1.79-4-4s1.79-4 4-4h27.68c2.21 0 4 1.79 4 4s-1.79 4-4 4Zm0-18.56H35.53c-2.21 0-4-1.79-4-4s1.79-4 4-4h27.68c2.21 0 4 1.79 4 4s-1.79 4-4 4Z" fill="#23221F"/><path d="M97 57.64c-14.91 0-27 12.13-27 27.1s12.09 27.1 27 27.1 27-12.13 27-27.1-12.09-27.1-27-27.1Zm12.92 23.03L96.03 94.6c-1.05 1.27-2.94 1.27-4.1 0L84 86.64c-1.15-1.06-1.15-2.95 0-4.12 1.17-1.16 3.05-1.16 4.1 0l5.94 5.86 11.78-11.83c1.17-1.16 3.05-1.16 4.1 0 1.26 1.17 1.26 3.06 0 4.12Z" fill="#23221F"/></svg>