<?xml version="1.0" encoding="UTF-8"?>
<svg id="_レイヤー_2" data-name="レイヤー 2" xmlns="http://www.w3.org/2000/svg" viewBox="0 0 128 128">
  <defs>
    <style>
      .cls-1 {
        fill: none;
      }

      .cls-2 {
        fill: #23221f;
      }
    </style>
  </defs>
  <g id="design_アウトライン">
    <g id="_発令管理_solid_ol" data-name="発令管理_solid_ol">
      <rect class="cls-1" width="128" height="128"/>
      <path class="cls-2" d="M90.28,119.48c-1.21.33-2.47.52-3.78.52H22.5c-8.01,0-14.5-6.49-14.5-14.5v-6.77c0-2.76,2.24-5,5-5h64.55c.55,0,1,.45,1,1v10.4c0,7.13,5.09,13.13,11.73,14.36ZM120,22.5v12.5c0,2.76-2.24,5-5,5h-14v65.5c0,.28-.03.56-.04.84-.19,1.91-1.03,3.67-2.42,5.03-1.59,1.56-3.66,2.41-5.92,2.35-4.45-.08-8.07-3.94-8.07-8.6v-10.4c0-3.86-3.14-7-7-7H27V22.5c0-8,6.5-14.5,14.5-14.5h64c8,0,14.5,6.5,14.5,14.5ZM52.86,40.72c0,6.15,4.99,11.14,11.14,11.14s11.14-4.99,11.14-11.14-4.99-11.14-11.14-11.14-11.14,4.99-11.14,11.14ZM83.5,71.13c0-8.33-6.76-15.09-15.09-15.09h-8.83c-8.33,0-15.09,6.76-15.09,15.09,0,1.67,1.35,3.02,3.02,3.02h32.97c1.67,0,3.02-1.35,3.02-3.02ZM110,22.5c0-2.48-2.02-4.5-4.5-4.5s-4.5,2.02-4.5,4.5v7.5h9v-7.5Z"/>
    </g>
  </g>
</svg>