<svg width="128" height="128" fill="none" xmlns="http://www.w3.org/2000/svg"><title>SmartHR給与明細</title><path d="M112.15 46.95c-2.21 0-4 1.79-4 4s1.79 4 4 4c.91 0 1.65.74 1.65 1.66 0 .92-.74 1.66-1.65 1.66h-5.16c-1.33-22.86-20.23-41.05-43.27-41.05a43.1 43.1 0 0 0-20.61 5.25c-4.92-2.49-10.94-3.75-15.19-4.37-2.11-.31-4.14.48-5.49 2.04A6.084 6.084 0 0 0 21.01 25c.62 4.32 1.9 10.44 4.41 15.41-.75 1.42-1.42 2.89-2 4.34l-.06.13c-1.55 3.44-4.35 6.13-8.31 7.98a12.524 12.524 0 0 0-6.77 14.83l2.86 10c.65 2.78 2.28 5.2 4.61 6.81 2.79 1.94 9.21 6.4 16.87 10.53l4.61 15.82a6.075 6.075 0 0 0 5.77 4.17h9.35c2.85 0 5.25-2.05 5.73-4.91l.85-5.86c1.33.14 2.62.21 3.84.21l.54-.01c2.05.05 4.15-.11 6.24-.4l.9 6.09c.47 2.82 2.87 4.87 5.72 4.87h8.79a6.08 6.08 0 0 0 5.34-3.17c3.47-6.41 12.22-25.49 15.58-40.41.08-.33.12-.69.13-1.06.3-1.36.53-2.73.7-4.11h5.43c5.32 0 9.65-4.33 9.65-9.66s-4.32-9.65-9.64-9.65Zm-32.48 9.76c1.66 0 3 1.34 3 3s-1.34 3-3 3h-7.31l-2.04 3.2h9.35c1.66 0 3 1.34 3 3s-1.34 3-3 3h-9.71v7.83c0 2.76-2.24 5-5 5s-5-2.24-5-5v-7.83h-9.71c-1.66 0-3-1.34-3-3s1.34-3 3-3h9.26l-2.18-3.2h-7.08c-1.66 0-3-1.34-3-3s1.34-3 3-3h3l-6.21-9.12a5.011 5.011 0 0 1 1.32-6.95c2.28-1.56 5.39-.96 6.95 1.32l9.51 13.97 8.79-13.83a5 5 0 0 1 8.44 5.36l-5.88 9.26h3.5v-.01Z" fill="#23221F"/></svg>