<?xml version="1.0" encoding="UTF-8"?>
<svg id="_レイヤー_1" data-name="レイヤー_1" xmlns="http://www.w3.org/2000/svg" version="1.1" viewBox="0 0 128 128">
  <!-- Generator: Adobe Illustrator 29.8.5, SVG Export Plug-In . SVG Version: 2.1.1 Build 2)  -->
  <defs>
    <style>
      .st0 {
        fill: #23221f;
      }
    </style>
  </defs>
  <path class="st0" d="M97,8H31c-7.2,0-13,5.9-13,13v86c0,7.2,5.8,13,13,13h66c7.2,0,13-5.8,13-13V21c0-7.2-5.8-13-13-13ZM56.2,102.4c1.3,1.3,1.3,3.4,0,4.7-.6.6-1.5,1-2.3,1s-1.7-.3-2.3-1l-4.7-4.7-4.7,4.7c-.6.6-1.5,1-2.3,1s-1.7-.3-2.3-1c-1.3-1.3-1.3-3.4,0-4.7l4.7-4.7-4.7-4.7c-1.3-1.3-1.3-3.4,0-4.7,1.3-1.3,3.4-1.3,4.7,0l4.7,4.7,4.7-4.7c1.3-1.3,3.4-1.3,4.7,0,1.3,1.3,1.3,3.4,0,4.7l-4.7,4.7,4.7,4.7h0ZM55.5,70.2h-5.1v5.1c0,1.9-1.6,3.5-3.5,3.5s-3.5-1.6-3.5-3.5v-5.1h-5.1c-1.9,0-3.5-1.6-3.5-3.5s1.6-3.5,3.5-3.5h5.1v-5.1c0-1.9,1.6-3.5,3.5-3.5s3.5,1.6,3.5,3.5v5.1h5.1c1.9,0,3.5,1.6,3.5,3.5s-1.6,3.5-3.5,3.5ZM79.8,109.6c-2.1,0-3.8-1.7-3.8-3.8s1.7-3.8,3.8-3.8,3.8,1.7,3.8,3.8-1.7,3.8-3.8,3.8ZM88.5,99.8h-17.3c-1.7,0-3-1.3-3-3s1.3-3,3-3h17.3c1.7,0,3,1.3,3,3s-1.3,3-3,3ZM76.1,87.7c0-2.1,1.7-3.8,3.8-3.8s3.8,1.7,3.8,3.8-1.7,3.8-3.8,3.8-3.8-1.7-3.8-3.8ZM88.5,70.2h-17.3c-1.9,0-3.5-1.6-3.5-3.5s1.6-3.5,3.5-3.5h17.3c1.9,0,3.5,1.6,3.5,3.5s-1.6,3.5-3.5,3.5ZM96.5,39c0,2.5-2,4.5-4.5,4.5h-56c-2.5,0-4.5-2-4.5-4.5v-14c0-2.5,2-4.5,4.5-4.5h56c2.5,0,4.5,2,4.5,4.5v14Z"/>
</svg>