<svg width="128" height="128" fill="none" xmlns="http://www.w3.org/2000/svg"><title>SmartHR通勤経路検索</title><path fill-rule="evenodd" clip-rule="evenodd" d="M111.497 16.23A37.358 37.358 0 0 0 99.57 8.19a37.27 37.27 0 0 0-14.61-2.95H42.77c-5.063 0-9.98.991-14.614 2.952A37.435 37.435 0 0 0 16.23 16.23a37.415 37.415 0 0 0-8.038 11.93 37.27 37.27 0 0 0-2.953 14.61v42.19c0 5.064.992 9.977 2.953 14.611a37.427 37.427 0 0 0 8.038 11.93 37.48 37.48 0 0 0 11.927 8.038 37.344 37.344 0 0 0 14.614 2.953H84.96c5.064 0 9.978-.995 14.611-2.953a37.404 37.404 0 0 0 11.927-8.038 37.413 37.413 0 0 0 8.041-11.93 37.31 37.31 0 0 0 2.953-14.611V42.77c0-5.064-.994-9.978-2.953-14.611a37.402 37.402 0 0 0-8.041-11.93Zm-2.289 67.219c0 14.225-11.534 25.758-25.758 25.758H44.28c-14.227 0-25.758-11.533-25.758-25.758v-39.17c0-14.227 11.53-25.758 25.759-25.758H83.45c14.224 0 25.758 11.53 25.758 25.759v39.169Z" fill="#000"/><path d="M37.638 65.68V46.835a3.467 3.467 0 0 1 3.467-3.467H68.84a3.47 3.47 0 0 1 3.467 3.467v3.969h6.932v-9.17c0-4.853-10.743-8.667-24.266-8.667-13.522 0-24.27 3.814-24.27 8.668v41.38a3.467 3.467 0 0 0 3.466 3.466v3.467a3.469 3.469 0 0 0 3.468 3.468h3.467a3.467 3.467 0 0 0 3.466-3.468v-3.467h5.096v-.676a9.87 9.87 0 0 1-1.637-5.426v-4.828c0-.186 0-.378.013-.569l.009-.153v-.026c0-.031 0-.063.008-.094a9.79 9.79 0 0 1 .719-3.001 8.825 8.825 0 0 1 1.025-1.866c.167-.24.347-.47.534-.694h-9.233a3.467 3.467 0 0 1-3.467-3.468Zm5.2 12.14a3.469 3.469 0 1 1-1.018-2.454 3.465 3.465 0 0 1 1.015 2.448l.003.005Zm56.698-2.665v-.174a6.417 6.417 0 0 0-.478-1.997 5.445 5.445 0 0 0-.637-1.17l-.01-.014a6.639 6.639 0 0 0-.906-1.057c-.699-.692-1.44-1.15-2.151-1.3l-2.955-7.376h.016l-.276-.688a11.409 11.409 0 0 0-10.642-7.206H75.34v.053h-6.138A11.408 11.408 0 0 0 58.56 61.43l-.275.688h.017l-2.955 7.376c-.716.154-1.456.615-2.151 1.3a6.81 6.81 0 0 0-.905 1.057l-.01.014c-.26.362-.474.755-.637 1.17a6.378 6.378 0 0 0-.478 1.997v.174c0 .128-.01.254-.01.38v4.847a6.5 6.5 0 0 0 1.639 4.292v5.532a3.275 3.275 0 0 0 3.256 3.28h3.275a3.277 3.277 0 0 0 3.276-3.274v-3.277H75.34v-.053h12.738v3.28a3.274 3.274 0 0 0 3.275 3.274h3.276a3.258 3.258 0 0 0 2.316-.959 3.272 3.272 0 0 0 .96-2.315V84.68a6.489 6.489 0 0 0 1.631-4.302v-4.842c.008-.126 0-.252 0-.382Zm-35.305 3.79v.045c0 .037-.01.074-.017.11-.008.034 0 .028 0 .042-.02.09-.05.178-.088.262l-.016.035c-.016.029-.031.058-.048.086a1.224 1.224 0 0 1-.183.235l-.028.026a.897.897 0 0 1-.073.064l-.03.025a1.726 1.726 0 0 1-.227.154l-.037.02-.095.046-.039.017c-.09.04-.184.074-.28.103l-.044.013-.11.031-.046.012a5.017 5.017 0 0 1-.32.067l-.05.007-.125.019h-.05a6.36 6.36 0 0 1-.35.037h-.054l-.133.009h-.052c-.122 0-.245.01-.368.013h-.433c-.277 0-.552 0-.82-.009-.27-.009-.53-.01-.777-.01-.113 0-.224 0-.335-.014l-.107-.012a2.953 2.953 0 0 1-.212-.028c-.042 0-.083-.015-.125-.023l-.181-.04-.128-.035a2.649 2.649 0 0 1-.16-.053c-.053-.018-.087-.029-.128-.046a2.764 2.764 0 0 1-.43-.218l-.064-.035a3.68 3.68 0 0 1-.153-.106l-.071-.05c-.05-.04-.1-.082-.154-.124l-.057-.05a3.327 3.327 0 0 1-.142-.144 3.296 3.296 0 0 1-.84-2.274c-.001-1.68.963-2.875 2.476-3.184a3.388 3.388 0 0 1 .395-.06l.103-.007c.098 0 .198-.014.3-.014.335.008.667.076.978.201a4.809 4.809 0 0 1 .618.288l.208.12a7.52 7.52 0 0 1 1.203.923c1.075 1.007 1.905 2.323 1.905 3.365.002.058-.001.109-.006.16Zm11.11-9.97H62.602l2.04-5.1a4.917 4.917 0 0 1 4.561-3.088h6.138v-.054h6.137a4.918 4.918 0 0 1 4.562 3.089l2.04 5.1H75.34v.052Zm18.491 10.377-.035.04a2.54 2.54 0 0 1-.144.144l-.056.05a2.161 2.161 0 0 1-.153.123l-.072.05c-.05.038-.1.073-.154.107l-.063.035a2.503 2.503 0 0 1-.286.154 2.226 2.226 0 0 1-.144.065c-.05.019-.085.03-.126.045a2.261 2.261 0 0 1-.163.053l-.128.035-.18.04-.124.023a3.12 3.12 0 0 1-.213.028l-.108.012a4.57 4.57 0 0 1-.335.014c-.244 0-.506 0-.769.01-.262.012-.545.01-.822.01h-.432c-.123 0-.247-.005-.368-.014h-.052l-.135-.01h-.053a6.136 6.136 0 0 1-.348-.036h-.052l-.124-.019-.05-.007a5.18 5.18 0 0 1-.32-.066l-.045-.013-.112-.03-.045-.014a2.563 2.563 0 0 1-.28-.103l-.037-.017-.094-.046-.037-.02a1.628 1.628 0 0 1-.228-.154l-.03-.024a.809.809 0 0 1-.073-.065l-.027-.026a1.147 1.147 0 0 1-.163-.203l-.022-.032c-.015-.028-.032-.057-.046-.086a1.163 1.163 0 0 1-.105-.297l-.008-.043c0-.035-.013-.072-.016-.11-.003-.036 0-.03 0-.045 0-.051-.008-.104-.008-.153 0-1.042.833-2.359 1.908-3.366a7.425 7.425 0 0 1 1.408-1.042c.139-.077.277-.153.415-.205.068-.03.137-.059.205-.083.311-.126.642-.194.977-.202.103 0 .203 0 .3.014l.104.008c.072.007.145.016.216.028l.18.031c1.511.308 2.476 1.505 2.476 3.184a3.29 3.29 0 0 1-.804 2.228Z" fill="#000"/></svg>