<svg width="128" height="128" fill="none" xmlns="http://www.w3.org/2000/svg"><path d="m103 63.84-.57.42 4.77 4 2.85 2.41a5 5 0 0 0-7-6.87l-.05.04ZM63.41 92.25 25 63.84a5.001 5.001 0 1 0-5.94 8l38.4 28.46a10.999 10.999 0 0 0 13.08 0l6.22-4.6-.06-12.39-12.11 8.94a1 1 0 0 1-1.18 0Z" fill="#23221F"/><path d="M76.8 104.36v-2.12l-12.2 9a1.002 1.002 0 0 1-1.18 0L25 82.84a5.001 5.001 0 1 0-5.94 8l38.4 28.46a10.999 10.999 0 0 0 13.08 0l10.58-7.83a8.073 8.073 0 0 1-4.32-7.11ZM120 87 87.75 59.66c-1.8-1.53-5.17 0-5.16 2.4l.21 42.27c0 2.16 2.93 2.94 4.84 1.28l9.18-7.93 7.65 16.4a5.004 5.004 0 0 0 9.234-.395 5 5 0 0 0-.164-3.825l-7.65-16.41 12-1.93c2.47-.4 3.76-3.14 2.11-4.52Z" fill="#23221F"/><path d="M20.43 53.21 58.05 81A10 10 0 0 0 70 81l6.71-5-.07-14a8.682 8.682 0 0 1 2.59-6.18A9.69 9.69 0 0 1 86 53.05a8.67 8.67 0 0 1 5.61 2l6.25 5.29 9.69-7.16a10.002 10.002 0 0 0 2.983-12.542 10.003 10.003 0 0 0-2.983-3.538L70 9.3a10 10 0 0 0-11.9 0L20.43 37.12a10 10 0 0 0 0 16.09ZM62.61 32c4-3.49 11-3.79 15.55-.66 4.55 3.13 4.92 8.5.86 12S68 47.11 63.47 44c-4.53-3.11-4.92-8.52-.86-12ZM36.25 45.14c5.07-4.37 13.77-4.74 19.44-.83L63.9 50c5.67 3.89 6.15 10.6 1.1 15a3.349 3.349 0 0 1-3.89.17l-24.63-17a1.81 1.81 0 0 1-.23-3.03Z" fill="#23221F"/></svg>