<svg width="128" height="128" fill="none" xmlns="http://www.w3.org/2000/svg"><title>SmartHRマイナンバー</title><path d="M106 23.11H22c-6.63 0-12 5.37-12 12v60c0 6.63 5.37 12 12 12h84c6.63 0 12-5.37 12-12v-60c0-6.63-5.38-12-12-12Zm-63 18c6.63 0 12 5.37 12 12s-5.37 12-12 12-12-5.37-12-12 5.38-12 12-12Zm18 48H25c-1.66 0-3-1.35-3-3 0-8.29 6.72-15 15-15h12c8.28 0 15 6.72 15 15 0 1.65-1.35 3-3 3Zm42-12H79c-1.65 0-3-1.35-3-3s1.35-3 3-3h24c1.65 0 3 1.35 3 3s-1.35 3-3 3Zm0-12H79c-1.65 0-3-1.35-3-3s1.35-3 3-3h24c1.65 0 3 1.35 3 3s-1.35 3-3 3Zm0-12H79c-1.65 0-3-1.35-3-3s1.35-3 3-3h24c1.65 0 3 1.35 3 3s-1.35 3-3 3Z" fill="#23221F"/></svg>