<svg width="128" height="128" fill="none" xmlns="http://www.w3.org/2000/svg"><title>SmartHR年末調整</title><path d="M50.5 16.5v7h28v-7c0-3.87 3.13-7 7-7s7 3.13 7 7v7H103c5.8 0 10.5 4.7 10.5 10.5v10.5h-98V34c0-5.8 4.7-10.5 10.5-10.5h10.5v-7c0-3.87 3.13-7 7-7s7 3.14 7 7Zm-35 35h98V111c0 5.8-4.7 10.5-10.5 10.5H26c-5.8 0-10.5-4.7-10.5-10.5V51.5Zm71.77 24.52c2.23-1.86 2.23-5.18 0-7.24-1.86-2.03-5.18-2.03-7.24 0l-20.78 20.8-10.48-10.3c-1.86-2.03-5.18-2.03-7.24 0-2.03 2.06-2.03 5.38 0 7.24l14 14c2.06 2.23 5.38 2.23 7.24 0l24.5-24.5Z" fill="#23221F"/></svg>