<svg width="128" height="128" fill="none" xmlns="http://www.w3.org/2000/svg"><title>SmartHR従業員サーベイ</title><path d="M94 22H81.15C79.33 14.01 72.47 8 64 8c-8.47 0-15.53 6.01-17.15 14H34c-6.63 0-12 5.37-12 12v74c0 6.63 5.37 12 12 12h60c6.63 0 12-5.37 12-12V34c0-6.63-5.37-12-12-12ZM60.32 86.92 47.6 99.64c-.78.78-1.8 1.17-2.83 1.17s-2.05-.39-2.83-1.17l-5.66-5.66a4.008 4.008 0 0 1 0-5.66 4.008 4.008 0 0 1 5.66 0l2.83 2.83 9.9-9.9a4.008 4.008 0 0 1 5.66 0 4.01 4.01 0 0 1-.01 5.67Zm0-28L47.6 71.64c-.78.78-1.8 1.17-2.83 1.17s-2.05-.39-2.83-1.17l-5.66-5.66a4.008 4.008 0 0 1 0-5.66 4.008 4.008 0 0 1 5.66 0l2.83 2.83 9.9-9.9a4.008 4.008 0 0 1 5.66 0 4.01 4.01 0 0 1-.01 5.67Zm8.8-33.99c-.42 1.93-1.96 3.48-3.88 3.93a5.263 5.263 0 0 1-6.35-6.32c.43-1.93 1.99-3.48 3.92-3.91 3.8-.84 7.14 2.49 6.31 6.3ZM88.8 95.16h-14c-2.21 0-4-1.79-4-4s1.79-4 4-4h14c2.21 0 4 1.79 4 4s-1.79 4-4 4Zm0-25.9h-14c-2.21 0-4-1.79-4-4s1.79-4 4-4h14c2.21 0 4 1.79 4 4s-1.79 4-4 4Z" fill="#23221F"/></svg>