<svg width="128" height="128" fill="none" xmlns="http://www.w3.org/2000/svg"><path d="M64 94a6.994 6.994 0 0 1-7-7V77c0-3.87 3.13-7 7-7s7 3.13 7 7v10c0 3.87-3.13 7-7 7Z" fill="#23221F"/><path d="M101 47H89V33C89 19.22 77.79 8 64 8S39 19.22 39 33v14H27a13.012 13.012 0 0 0-13 13v46c0 7.17 5.83 13 13 13h74c7.17 0 13-5.83 13-13V60c0-7.17-5.83-13-13-13ZM49 33c0-8.27 6.73-15 15-15s15 6.73 15 15v14H49V33Zm55 73c0 1.65-1.35 3-3 3H27c-1.65 0-3-1.35-3-3V60c0-1.65 1.35-3 3-3h74c1.65 0 3 1.35 3 3v46Z" fill="#23221F"/></svg>