<svg width="64" height="64" viewBox="0 0 64 64" fill="none" xmlns="http://www.w3.org/2000/svg">
<path d="M47.65 53.0449C47.65 53.9049 46.965 54.7949 46 54.7949H18C17.035 54.7949 16.25 54.0099 16.25 53.0449V49.0099H11V53.0449C11 56.9099 14.135 60.0449 18 60.0449H46C49.85 60.0449 53 56.8949 53 53.0449V49.0099H47.65C47.65 51.3349 47.65 52.8799 47.65 53.0449Z" fill="#23221F"/>
<path d="M50.955 14.2599L42.79 6.09492C41.47 4.78492 39.685 4.04492 37.84 4.04492H18C14.135 4.04492 11 7.17992 11 11.0449V24.6899H16.25V11.0549C16.25 10.0899 17.035 9.30492 18 9.30492H35.5V18.0399C35.5 19.9749 37.065 21.5399 39 21.5399H47.65C47.65 21.5399 47.65 22.7499 47.65 24.6849H53V19.2049C53 17.3549 52.265 15.5699 50.955 14.2599Z" fill="#23221F"/>
<path d="M21.29 31.4249C21.865 31.4249 22.265 31.9399 22.5 32.9199C22.68 33.6049 22.8 34.1199 23.59 34.0199L24.82 33.8749C25.755 33.7549 25.735 33.1899 25.635 32.5299C25.2 29.6649 23.985 27.9249 21.245 27.9249C17.53 27.9249 16.3 32.0149 16.3 36.8149C16.3 42.4699 17.55 45.9499 21.165 45.9499C23.63 45.9499 25.06 44.3599 25.715 41.1749C25.855 40.5399 25.895 39.9499 24.96 39.8049L23.51 39.5849C22.755 39.4599 22.755 39.9999 22.595 40.6849C22.295 41.8599 21.86 42.4949 21.265 42.4949C20.19 42.4949 19.695 41.3699 19.695 36.8149C19.7 32.7949 20.24 31.4249 21.29 31.4249Z" fill="#23221F"/>
<path d="M32.415 42.6649C31.74 42.6649 31.325 42.2999 31.065 41.6599C30.805 40.9749 30.765 40.4849 29.875 40.6799L28.685 40.9499C27.75 41.1699 27.83 41.7599 27.99 42.3699C28.585 44.8199 29.915 45.9449 32.28 45.9449C35.08 45.9449 36.885 44.1349 36.885 40.9499C36.885 35.0699 31.205 35.4899 31.205 32.3799C31.205 31.6449 31.62 31.1799 32.275 31.1799C32.79 31.1799 33.15 31.4999 33.405 31.9649C33.76 32.6249 33.84 33.0899 34.655 32.8949L35.725 32.6249C36.64 32.4049 36.54 31.7899 36.34 31.2049C35.705 29.1499 34.495 27.9249 32.21 27.9249C29.61 27.9249 28 29.7849 28 32.5299C28 38.4299 33.7 37.9899 33.7 41.2499C33.705 42.1999 33.15 42.6649 32.415 42.6649Z" fill="#23221F"/>
<path d="M42.605 45.7249H44.47C45.065 45.7249 45.54 45.4549 45.72 44.5249L48.6 29.3399C48.8 28.2649 48.34 28.1399 47.825 28.1399H46.1C45.525 28.1399 45.245 28.4099 45.105 29.3649L43.535 39.7749H43.495L42.065 29.3649C41.925 28.4099 41.67 28.1399 41.09 28.1399H39.32C38.805 28.1399 38.325 28.2649 38.525 29.3399L41.365 44.5249C41.55 45.4349 42.01 45.7249 42.605 45.7249Z" fill="#23221F"/>
</svg>
