<svg xmlns="http://www.w3.org/2000/svg" width="90" height="90" fill="none"><title>SmartHRHRアナリティクス</title><path fill="#23221F" d="M73.125 7.734h-56.25c-5.041 0-9.14 4.1-9.14 9.141v56.25c0 5.041 4.099 9.14 9.14 9.14h56.25c5.041 0 9.14-4.099 9.14-9.14v-56.25c0-5.041-4.099-9.14-9.14-9.14Zm2.11 65.391c0 1.16-.95 2.11-2.11 2.11h-56.25c-1.16 0-2.11-.95-2.11-2.11v-56.25c0-1.16.95-2.11 2.11-2.11h56.25c1.16 0 2.11.95 2.11 2.11v56.25Z"/><path fill="#23221F" d="M68.063 21.825H51.89a3.154 3.154 0 0 0-3.15 3.15 3.154 3.154 0 0 0 3.15 3.15h16.172a3.154 3.154 0 0 0 3.15-3.15 3.154 3.154 0 0 0-3.15-3.15ZM68.063 34.137H51.89a3.154 3.154 0 0 0-3.15 3.15 3.154 3.154 0 0 0 3.15 3.15h16.172a3.154 3.154 0 0 0 3.15-3.15 3.154 3.154 0 0 0-3.15-3.15ZM31.064 44.135a12.99 12.99 0 0 0 9.97-4.662 12.994 12.994 0 0 0 3.038-8.346c0-7.171-5.836-13.008-13.008-13.008-7.172 0-13.008 5.837-13.008 13.008 0 7.172 5.836 13.008 13.008 13.008Zm8.086-13.008c0 1.055-.21 2.089-.605 3.059l-5.02-4.205v-6.553c3.256 1.04 5.625 4.1 5.625 7.706v-.007Zm-10.547-7.699v7.706c0 .732.324 1.42.879 1.885l5.906 4.943a8.043 8.043 0 0 1-4.324 1.258c-4.458 0-8.086-3.628-8.086-8.086 0-3.6 2.37-6.658 5.625-7.706ZM63.928 46.976a6.348 6.348 0 0 0-6.342 6.342c0 .478.056.942.155 1.385l-8.803 5.52A6.29 6.29 0 0 0 45 58.844c-2.025 0-3.818.957-4.985 2.433l-8.044-2.714c-.155-3.36-2.925-6.047-6.328-6.047-3.403 0-6.342 2.841-6.342 6.343a6.344 6.344 0 0 0 6.342 6.342c2.095 0 3.944-1.027 5.105-2.595l7.91 2.672c.049 3.453 2.869 6.25 6.335 6.25 3.466 0 6.342-2.84 6.342-6.341 0-.478-.056-.942-.154-1.385l8.803-5.52a6.276 6.276 0 0 0 3.937 1.378 6.348 6.348 0 0 0 6.342-6.342 6.344 6.344 0 0 0-6.342-6.342h.007Z"/></svg>