<svg xmlns="http://www.w3.org/2000/svg" width="128" height="128" fill="none"><title>SmartHR IdP</title>
<path fill="#23221F" d="M49.008 60.785h-8.016c-5.533 0-10.02 4.487-10.02 10.02 0 1.104.9 2.004 2.005 2.004h24.046c1.104 0 2.004-.9 2.004-2.004 0-5.534-4.486-10.02-10.02-10.02ZM45 56.779a8.012 8.012 0 0 0 8.016-8.016A8.012 8.012 0 0 0 45 40.746a8.016 8.016 0 0 0 0 16.031Z"/><path fill="#23221F" d="M84.424 21.994c0-9.112-7.41-16.523-16.523-16.523a16.448 16.448 0 0 0-11.897 5.076h-31.69c-5.07 0-9.197 4.114-9.197 9.169v55.49c0 5.056 4.127 9.17 9.197 9.17h41.379c5.07 0 9.197-4.114 9.197-9.17V36.965c5.632-2.637 9.541-8.354 9.541-14.97h-.007Zm-18.738 55.35H24.307c-1.195 0-2.166-.956-2.166-2.137V19.716c0-1.181.97-2.138 2.166-2.138h27.668a16.33 16.33 0 0 0-.605 4.416c0 9.099 7.39 16.495 16.474 16.524v36.689c0 1.18-.97 2.137-2.165 2.137h.007ZM67.9 33.596c-6.399 0-11.602-5.203-11.602-11.602 0-6.398 5.203-11.601 11.602-11.601 6.398 0 11.601 5.203 11.601 11.601 0 6.399-5.203 11.602-11.601 11.602Z"/><path fill="#23221F" d="M65.609 28.73c-.633 0-1.259-.239-1.737-.717l-3.537-3.537a2.457 2.457 0 0 1 0-3.48 2.457 2.457 0 0 1 3.48 0l1.794 1.793 6.215-6.216a2.457 2.457 0 0 1 3.48 0 2.457 2.457 0 0 1 0 3.48l-7.952 7.953a2.454 2.454 0 0 1-1.736.717l-.007.007ZM42.687 27.605H28.624a2.812 2.812 0 1 1 0-5.625h14.063a2.812 2.812 0 1 1 0 5.625ZM42.687 37.33H28.624a2.812 2.812 0 1 1 0-5.626h14.063a2.812 2.812 0 1 1 0 5.625Z"/></svg>