<svg width="64" height="64" viewBox="0 0 64 64" fill="none" xmlns="http://www.w3.org/2000/svg">
<path d="M60.625 28.9152C60.625 24.8902 58.655 21.5252 56.025 20.6902V10.1852C56.025 8.91023 55.31 7.77023 54.16 7.21523C53.01 6.66023 51.675 6.81023 50.675 7.60523L50.575 7.69023C44.045 13.4602 35.665 16.9052 26.965 17.3952L22.355 17.6552H10C6.685 17.6552 4 20.3402 4 23.6552V33.4702C4 36.7852 6.685 39.4702 10 39.4702H12.195V52.1002C12.195 55.3252 14.82 57.9502 18.045 57.9502H20.69C23.915 57.9502 26.54 55.3252 26.54 52.1002V39.5802L26.955 39.6052C35.655 40.0902 44.045 43.5402 50.57 49.3152L50.67 49.4002C51.27 49.8752 51.99 50.1202 52.715 50.1202C53.2 50.1202 53.695 50.0102 54.155 49.7902C55.305 49.2352 56.02 48.0952 56.02 46.8202V37.1402C58.655 36.3052 60.625 32.9402 60.625 28.9152ZM9 33.4652V23.6552C9 23.1052 9.45 22.6552 10 22.6552H21.04V34.4702H10C9.45 34.4652 9 34.0202 9 33.4652ZM20.69 52.9502H18.045C17.575 52.9502 17.195 52.5702 17.195 52.1002V39.4652H21.54V52.0952C21.54 52.5702 21.16 52.9502 20.69 52.9502ZM51.025 43.2452C44.145 38.1302 35.825 35.0902 27.235 34.6102L27.175 34.6052V22.3902L27.25 22.3852C35.835 21.9052 44.15 18.8652 51.03 13.7552V43.2452H51.025Z" fill="#23221F"/>
</svg>
