<svg width="128" height="128" fill="none" xmlns="http://www.w3.org/2000/svg"><title>SmartHRカスタム社員名簿</title><path d="M64.5 71h-14C40.83 71 33 78.83 33 88.5c0 1.93 1.58 3.5 3.5 3.5h42c1.93 0 3.5-1.57 3.5-3.5C82 78.83 74.17 71 64.5 71Zm-7-7c7.73 0 14-6.27 14-14s-6.27-14-14-14-14 6.27-14 14 6.28 14 14 14Zm56 14H110v21h3.5c1.93 0 3.5-1.57 3.5-3.5v-14c0-1.92-1.58-3.5-3.5-3.5Zm0-56H110v21h3.5c1.92 0 3.5-1.58 3.5-3.5v-14c0-1.93-1.58-3.5-3.5-3.5Zm0 28H110v21h3.5c1.92 0 3.5-1.57 3.5-3.5v-14c0-1.92-1.58-3.5-3.5-3.5ZM89 8H26c-7.73 0-14 6.27-14 14v84c0 7.73 6.27 14 14 14h63c7.73 0 14-6.27 14-14V22c0-7.73-6.28-14-14-14Zm3.5 98c0 1.93-1.57 3.5-3.5 3.5H26c-1.93 0-3.5-1.57-3.5-3.5V22c0-1.93 1.57-3.5 3.5-3.5h63c1.93 0 3.5 1.57 3.5 3.5v84Z" fill="#23221F"/></svg>