<svg width="128" height="128" fill="none" xmlns="http://www.w3.org/2000/svg"><path d="M64 36.73c-2.76 0-5 2.24-5 5V64c0 1.33.53 2.6 1.46 3.54l12.99 12.99a4.98 4.98 0 0 0 3.54 1.46c1.28 0 2.56-.49 3.54-1.46a5.003 5.003 0 0 0 0-7.07L69 61.93v-20.2c0-2.77-2.24-5-5-5Z" fill="#23221F"/><path d="M110.36 8.88c-2.76 0-5 2.24-5 5v11.09c-21.32-20.84-55.6-20.7-76.74.43-21.28 21.28-21.28 55.91 0 77.2 10.64 10.64 24.62 15.96 38.6 15.96s27.96-5.32 38.6-15.96a5.004 5.004 0 0 0 0-7.07 5.003 5.003 0 0 0-7.07 0c-17.38 17.38-45.67 17.38-63.05 0-17.38-17.38-17.38-45.67 0-63.05 17.18-17.18 45-17.37 62.43-.59H87.36c-2.76 0-5 2.24-5 5s2.24 5 5 5h23c2.76 0 5-2.24 5-5v-23c0-2.77-2.24-5.01-5-5.01Z" fill="#23221F"/></svg>