<svg width="64" height="64" viewBox="0 0 64 64" fill="none" xmlns="http://www.w3.org/2000/svg">
<path d="M32.0001 18.3649C30.6201 18.3649 29.5001 19.4849 29.5001 20.8649V31.9999C29.5001 32.6649 29.7651 33.2999 30.2301 33.7699L36.7251 40.2649C37.2151 40.7549 37.8551 40.9949 38.4951 40.9949C39.1351 40.9949 39.7751 40.7499 40.2651 40.2649C41.2401 39.2899 41.2401 37.7049 40.2651 36.7299L34.5001 30.9649V20.8649C34.5001 19.4799 33.3801 18.3649 32.0001 18.3649Z" fill="#23221F"/>
<path d="M55.1801 4.43994C53.8001 4.43994 52.6801 5.55994 52.6801 6.93994V12.4849C42.0201 2.06494 24.8801 2.13494 14.3101 12.6999C3.67008 23.3399 3.67008 40.6549 14.3101 51.2999C19.6301 56.6199 26.6201 59.2799 33.6101 59.2799C40.6001 59.2799 47.5901 56.6199 52.9101 51.2999C53.8851 50.3249 53.8851 48.7399 52.9101 47.7649C51.9351 46.7899 50.3501 46.7899 49.3751 47.7649C40.6851 56.4549 26.5401 56.4549 17.8501 47.7649C9.16008 39.0749 9.16008 24.9299 17.8501 16.2399C26.4401 7.64994 40.3501 7.55494 49.0651 15.9449H43.6801C42.3001 15.9449 41.1801 17.0649 41.1801 18.4449C41.1801 19.8249 42.3001 20.9449 43.6801 20.9449H55.1801C56.5601 20.9449 57.6801 19.8249 57.6801 18.4449V6.94494C57.6801 5.55994 56.5601 4.43994 55.1801 4.43994Z" fill="#23221F"/>
</svg>
