<svg width="128" height="128" fill="none" xmlns="http://www.w3.org/2000/svg"><path d="M76.38 69.34 64.86 57.82V37.63c0-2.76-2.24-5-5-5s-5 2.24-5 5v22.26c0 1.33.53 2.6 1.46 3.54l12.99 12.99a4.98 4.98 0 0 0 3.54 1.46c1.28 0 2.56-.49 3.54-1.46a5.006 5.006 0 0 0-.01-7.08Zm42.65 8.48-2.69-2.71c-2.96-2.94-7.72-2.94-10.66 0l-4.03 4.03L115 92.5l4.03-4.03c2.96-2.95 2.96-7.72 0-10.65Zm-41.46 25.23c-.77.94-1.32 1.9-1.58 2.96l-2.83 11.17c-.26 1.19.04 2.28.79 3.03a3.07 3.07 0 0 0 2.86.79l11.32-2.84c1.05-.26 2.03-.81 2.81-1.58l19.81-19.81-13.37-13.36-19.81 19.64Z" fill="#23221F"/><path d="M16.75 59.13c0-23.35 19-42.35 42.35-42.35s42.35 19 42.35 42.35c0 4.19-.62 8.24-1.76 12.07l1.04-1.04c2.74-2.74 6.39-4.25 10.27-4.25.29-2.22.45-4.47.45-6.77 0-28.91-23.44-52.35-52.35-52.35S6.75 30.22 6.75 59.13c0 28.91 23.44 52.35 52.35 52.35 2.88 0 5.7-.24 8.45-.69l1.64-6.48c.41-1.63 1.14-3.16 2.18-4.65a42.21 42.21 0 0 1-12.27 1.82c-23.35 0-42.35-19-42.35-42.35Z" fill="#23221F"/></svg>