<svg width="64" height="64" viewBox="0 0 64 64" fill="none" xmlns="http://www.w3.org/2000/svg">
<path d="M49.6901 12.6999C39.1201 2.13494 21.9801 2.06494 11.3201 12.4849V6.93994C11.3201 5.55994 10.2001 4.43994 8.82007 4.43994C7.44007 4.43994 6.32007 5.55994 6.32007 6.93994V18.4399C6.32007 19.8199 7.44007 20.9399 8.82007 20.9399H20.3201C21.7001 20.9399 22.8201 19.8199 22.8201 18.4399C22.8201 17.0599 21.7001 15.9399 20.3201 15.9399H14.9351C23.6501 7.55494 37.5601 7.64994 46.1501 16.2349C54.8401 24.9249 54.8401 39.0699 46.1501 47.7599C37.4601 56.4499 23.3151 56.4499 14.6251 47.7599C13.6501 46.7849 12.0651 46.7849 11.0901 47.7599C10.1151 48.7349 10.1151 50.3199 11.0901 51.2949C16.4101 56.6149 23.4001 59.275 30.3901 59.275C37.3801 59.275 44.3701 56.6149 49.6901 51.2949C60.3301 40.6599 60.3301 23.3449 49.6901 12.6999Z" fill="#23221F"/>
<path d="M30.3901 18.3649C29.0101 18.3649 27.8901 19.4849 27.8901 20.8649V31.9999C27.8901 32.6649 28.1551 33.2999 28.6201 33.7699L35.1151 40.2649C35.6051 40.7549 36.2451 40.9949 36.8851 40.9949C37.5251 40.9949 38.1651 40.7499 38.6551 40.2649C39.6301 39.2899 39.6301 37.7049 38.6551 36.7299L32.8901 30.9649V20.8649C32.8901 19.4849 31.7701 18.3649 30.3901 18.3649Z" fill="#23221F"/>
</svg>
