<svg width="64" height="64" viewBox="0 0 64 64" fill="none" xmlns="http://www.w3.org/2000/svg">
<path d="M38.19 34.67L32.43 28.91V18.815C32.43 17.435 31.31 16.315 29.93 16.315C28.55 16.315 27.43 17.435 27.43 18.815V29.945C27.43 30.61 27.695 31.245 28.16 31.715L34.655 38.21C35.145 38.7 35.785 38.94 36.425 38.94C37.065 38.94 37.705 38.695 38.195 38.21C39.17 37.23 39.17 35.65 38.19 34.67Z" fill="#23221F"/>
<path d="M59.515 38.91L58.17 37.555C56.69 36.085 54.31 36.085 52.84 37.555L50.825 39.57L57.5 46.25L59.515 44.235C60.995 42.76 60.995 40.375 59.515 38.91Z" fill="#23221F"/>
<path d="M38.785 51.525C38.4 51.995 38.125 52.475 37.995 53.005L36.58 58.59C36.45 59.185 36.6 59.73 36.975 60.105C37.35 60.47 37.89 60.625 38.405 60.5L44.065 59.08C44.59 58.95 45.08 58.675 45.47 58.29L55.375 48.385L48.69 41.705L38.785 51.525Z" fill="#23221F"/>
<path d="M8.375 29.565C8.375 17.89 17.875 8.39002 29.55 8.39002C41.225 8.39002 50.725 17.89 50.725 29.565C50.725 31.66 50.415 33.685 49.845 35.6L50.365 35.08C51.735 33.71 53.56 32.955 55.5 32.955C55.645 31.845 55.725 30.72 55.725 29.57C55.725 15.115 44.005 3.39502 29.55 3.39502C15.095 3.39502 3.375 15.11 3.375 29.565C3.375 44.02 15.095 55.74 29.55 55.74C30.99 55.74 32.4 55.62 33.775 55.395L34.595 52.155C34.8 51.34 35.165 50.575 35.685 49.83C33.74 50.42 31.68 50.74 29.55 50.74C17.875 50.74 8.375 41.24 8.375 29.565Z" fill="#23221F"/>
</svg>
