<svg xmlns="http://www.w3.org/2000/svg" id="outline" version="1.1" viewBox="0 0 128 128"><defs><style>.cls-1{fill:#00b1b4;stroke-width:0}</style></defs><title>SmartHR採用管理</title><path d="M30.49 60.98c8.7 0 15.78-7.08 15.78-15.78s-7.08-15.78-15.78-15.78S14.71 36.5 14.71 45.2s7.08 15.78 15.78 15.78Zm0-23.56c4.29 0 7.78 3.49 7.78 7.78s-3.49 7.78-7.78 7.78-7.78-3.49-7.78-7.78 3.49-7.78 7.78-7.78Z" class="cls-1"/><path d="M97.61 66.11c-2.04-.31-3.96-.59-5.75-1.02-5.98-1.41-13.84-6.55-17.99-16.73-1.6-3.94-5.3-6.3-9.88-6.3s-8.26 2.35-9.86 6.3c-4.14 10.19-12.01 15.33-17.99 16.73-1.79.42-3.71.71-5.75 1.02-9.64 1.45-22.83 3.43-21.27 23.67l.93 14.33c.08 5.25 4.38 9.51 9.65 9.51h19.79c5.29 0 9.61-4.28 9.65-9.57l.8-21c5.3-2.13 9.97-5.8 14.07-11.08 4.1 5.24 8.8 8.96 14.03 11.08l.8 21c.05 5.28 4.36 9.57 9.65 9.57h19.79c5.27 0 9.57-4.25 9.65-9.51l.93-14.28c1.57-20.29-11.63-22.27-21.26-23.72Zm-51.57 9.86c-2.38.83-3.96 2.96-4.03 5.37l-.85 22.46v.15c0 .91-.74 1.65-1.65 1.65H19.72c-.91 0-1.65-.74-1.65-1.65v-.26l-.95-14.49c-1-12.87 4.83-13.74 14.47-15.19 2.11-.32 4.29-.64 6.4-1.14 7.92-1.87 18.27-8.5 23.56-21.51.16-.38.52-1.27 2.34-1.31.04 0 .09.02.16.04.08.02.17.06.26.1.53.21.94.62 1.16 1.14.09.22.14.44.15.67.02.32-.02.65-.14.96-.37.9-.74 1.78-1.12 2.63-.03.08-.07.15-.1.23-.37.81-.74 1.6-1.12 2.37v.02c-.83 1.64-1.67 3.18-2.54 4.61-.03.05-.05.1-.08.15-4.14 6.76-8.92 11.05-14.47 12.99Zm64.85 13.29-.94 14.44v.26c0 .91-.74 1.65-1.65 1.65H88.51c-.91 0-1.65-.74-1.65-1.65v-.15l-.85-22.43c-.07-2.45-1.66-4.58-4.03-5.4-5.02-1.76-9.38-5.42-13.27-11.16.41-.74.81-1.5 1.21-2.28.05-.11.11-.22.16-.32.33-.66.66-1.33.98-2.01.05-.11.11-.22.16-.33 5.52 7.5 12.86 11.6 18.83 13.01 2.11.5 4.29.83 6.4 1.14 9.65 1.45 15.47 2.32 14.47 15.24Z" class="cls-1"/><path d="M97.51 60.98c8.7 0 15.78-7.08 15.78-15.78s-7.08-15.78-15.78-15.78S81.73 36.5 81.73 45.2s7.08 15.78 15.78 15.78Zm0-23.56c4.29 0 7.78 3.49 7.78 7.78s-3.49 7.78-7.78 7.78-7.78-3.49-7.78-7.78 3.49-7.78 7.78-7.78ZM74.41 26.56c.7.49 1.5.72 2.29.72 1.26 0 2.5-.59 3.28-1.71l5.09-7.28c1.27-1.81.83-4.3-.98-5.57a3.996 3.996 0 0 0-5.57.98l-5.09 7.28c-1.27 1.81-.83 4.3.98 5.57ZM48.05 25.57a4.006 4.006 0 0 0 3.28 1.71 3.996 3.996 0 0 0 3.27-6.29l-5.09-7.28a3.996 3.996 0 0 0-5.57-.98 3.996 3.996 0 0 0-.98 5.57l5.09 7.28ZM64 25.3c2.21 0 4-1.79 4-4V12c0-2.21-1.79-4-4-4s-4 1.79-4 4v9.3c0 2.21 1.79 4 4 4Z" class="cls-1"/></svg>