<svg width="128" height="128" fill="none" xmlns="http://www.w3.org/2000/svg"><title>SmartHR人事評価</title><path d="M115.56 74.49c-2.96-2.94-7.72-2.94-10.66 0l-4.03 4.03 13.35 13.37 4.03-4.03c2.96-2.96 2.96-7.72 0-10.66l-2.69-2.71ZM75.2 105.4l-2.83 11.17c-.26 1.19.04 2.28.79 3.03a3.07 3.07 0 0 0 2.86.79l11.32-2.84c1.05-.26 2.03-.81 2.81-1.58l19.81-19.81L96.59 82.8l-19.81 19.64c-.77.94-1.31 1.9-1.58 2.96Z" fill="#23221F"/><path d="m66.53 115.19.03-.1 2.3-9.09H35c-1.65 0-3-1.35-3-3V21c0-1.65 1.35-3 3-3h58c1.65 0 3 1.35 3 3v53.91l4.66-4.66c1.52-1.52 3.35-2.63 5.34-3.28V21c0-7.17-5.83-13-13-13H35c-7.17 0-13 5.83-13 13v82c0 7.17 5.83 13 13 13h31.4c.03-.24.06-.48.11-.71l.02-.1Z" fill="#23221F"/><path d="M86 78H42c-2.21 0-4 1.79-4 4s1.79 4 4 4h42.84l5.02-4.98A3.98 3.98 0 0 0 86 78ZM72.34 98.4l.22-.22L78.79 92H42c-2.21 0-4 1.79-4 4s1.79 4 4 4h29.14c.3-.46.63-.91 1-1.37l.2-.23ZM86 24H42c-2.21 0-4 1.79-4 4v40c0 2.21 1.79 4 4 4h44c2.21 0 4-1.79 4-4V28c0-2.21-1.79-4-4-4Zm-22 6.47a8.79 8.79 0 0 1 8.79 8.79 8.79 8.79 0 1 1-17.58 0A8.79 8.79 0 0 1 64 30.47Zm13.19 35.17H50.81c-1.21 0-2.2-.99-2.2-2.2 0-6.07 4.92-10.99 10.99-10.99h8.79c6.07 0 10.99 4.92 10.99 10.99.01 1.21-.98 2.2-2.19 2.2Z" fill="#23221F"/></svg>