<svg width="128" height="128" fill="none" xmlns="http://www.w3.org/2000/svg"><title>SmartHR組織図</title><path d="M95 40h18c3.86 0 7-3.14 7-7V15c0-3.86-3.14-7-7-7H95c-3.86 0-7 3.14-7 7v4H69c-3.86 0-7 3.14-7 7v33H46v-7c0-3.86-3.14-7-7-7H15c-3.86 0-7 3.14-7 7v24c0 3.86 3.14 7 7 7h24c3.86 0 7-3.14 7-7v-7h16v32c0 3.86 3.14 7 7 7h19v4c0 3.86 3.14 7 7 7h18c3.86 0 7-3.14 7-7V94c0-3.86-3.14-7-7-7H95c-3.86 0-7 3.14-7 7v4H72V69h16v4c0 3.86 3.14 7 7 7h18c3.86 0 7-3.14 7-7V55c0-3.86-3.14-7-7-7H95c-3.86 0-7 3.14-7 7v4H72V29h16v4c0 3.86 3.14 7 7 7Zm3-22h12v12H98V18ZM36 73H18V55h18v18Zm62 24h12v12H98V97Zm0-39h12v12H98V58Z" fill="#23221F"/></svg>