<svg width="128" height="128" fill="none" xmlns="http://www.w3.org/2000/svg"><path fill-rule="evenodd" clip-rule="evenodd" d="M99.296 74.244c3.257 3.184 9.77 12.727 9.77 22.28 0 9.555 0 22.293-13.027 22.293h-65.18c-13.038 0-13.038-12.738-13.038-22.292 0-9.554 6.525-19.097 9.781-22.281 3.257-3.196 9.77-9.566 19.552-3.196 9.477 6.189 14.94 6.374 16.18 6.38h.207c1.243-.005 6.726-.191 16.192-6.38 9.77-6.37 16.306 0 19.563 3.196ZM63.57 23.22c13.499 0 24.457 10.71 24.457 23.888 0 13.21-10.958 23.91-24.457 23.91-13.51 0-24.468-10.7-24.468-23.91 0-13.178 10.959-23.888 24.468-23.888Zm50.245 15.963c1.748 1.732 5.28 6.914 5.28 12.118v.157l-.001.315c-.006 5.131-.211 11.646-7.051 11.646H93.087c-1.278-.416-2.612-.809-4.08-.921 2.802-4.486 4.394-9.78 4.394-15.412 0-2.226-.291-4.384-.762-6.464a17.59 17.59 0 0 0 1.771.293h.01c.042-.001.224-.006.53-.042l.096-.013c1.244-.162 4.227-.811 8.187-3.408 5.291-3.473 8.811 0 10.583 1.731Zm-90.172-1.736c5.094 3.334 8.544 3.467 8.812 3.472h.017s.718-.056 1.795-.292c-.483 2.068-.774 4.226-.774 6.451A29.106 29.106 0 0 0 37.88 62.5c-1.458.1-2.793.494-4.061.921H14.825c-6.823 0-7.027-6.514-7.034-11.643v-.472c0-5.192 3.512-10.385 5.284-12.115 1.75-1.742 5.284-5.204 10.569-1.742Zm8.615-27.709c7.28 0 13.205 5.81 13.205 13.003 0 .314-.169.607-.202.932-3.942 2.945-7.157 6.81-9.24 11.295l-.165.05-.33.098c-1.05.311-2.117.605-3.268.605-7.29 0-13.215-5.81-13.215-12.98 0-7.193 5.924-13.003 13.215-13.003Zm62.124 0c7.308 0 13.215 5.813 13.215 12.986 0 7.184-5.907 12.997-13.215 12.997-1.162 0-2.223-.294-3.278-.605l-.333-.1-.166-.049c-2.097-4.497-5.28-8.342-9.248-11.299-.034-.326-.18-.607-.18-.944 0-7.173 5.908-12.986 13.205-12.986Z" fill="#23221F"/></svg>