<svg fill="none" height="128" width="128" xmlns="http://www.w3.org/2000/svg"><title>SmartHRお知らせ掲示板</title><path clip-rule="evenodd" d="m120.765 60.983c0-4.662-2.552-8.689-6.307-10.875v-30.158c0-1.726-1.376-6.315-6.307-6.315-1.404 0-2.797.47-3.938 1.385l-16.76 13.42c-8.418 6.736-18.987 10.447-29.76 10.447h-37.844c-6.967 0-12.614 5.652-12.614 12.626v18.94c0 6.973 5.647 12.625 12.614 12.625h6.643a47.981 47.981 0 0 0 -.43 6.313c0 7.846 1.825 15.26 5.038 21.887 1.023 2.109 3.256 3.365 5.597 3.365h14.641c5.135 0 8.217-5.886 5.105-9.974a25.14 25.14 0 0 1 -5.154-15.278c0-2.192.32-4.299.87-6.313h5.534a47.802 47.802 0 0 1 29.757 10.446l16.76 13.421a6.3 6.3 0 0 0 3.938 1.385c4.912 0 6.307-4.494 6.307-6.313v-30.158c3.757-2.188 6.309-6.215 6.309-10.876zm-18.922 28.06-6.527-5.228c-10.666-8.543-24.064-13.245-37.716-13.245v-18.984c13.652 0 27.05-4.702 37.716-13.245l6.527-5.228z" fill="#23221f" fill-rule="evenodd"/></svg>