<svg width="128" height="128" fill="none" xmlns="http://www.w3.org/2000/svg"><title>SmartHR履歴登録</title><g clip-path="url(#a)"><path fill-rule="evenodd" clip-rule="evenodd" d="m100.913 84.75 13.577 13.577-27.958 27.959-11.879 1.858-3.879-3.879 2.181-11.556 27.958-27.958ZM62.817 10.018c9.71 0 18.696 2.428 26.957 7.283 8.26 4.855 14.818 11.413 19.674 19.674 4.855 8.26 7.282 17.246 7.282 26.956 0 .839-.018 1.671-.054 2.498a13.708 13.708 0 0 0-10.582 1.789c.134-1.409.201-2.838.201-4.287 0-7.826-1.956-15.072-5.869-21.739-3.913-6.666-9.203-11.956-15.87-15.87-6.666-3.912-13.913-5.869-21.739-5.869-7.826 0-15.072 1.957-21.739 5.87-6.667 3.913-11.956 9.203-15.87 15.87-3.912 6.666-5.869 13.912-5.869 21.738 0 7.826 1.957 15.073 5.87 21.74 3.913 6.666 9.202 11.956 15.87 15.869 6.666 3.913 13.912 5.869 21.738 5.869 1.283 0 2.55-.052 3.8-.157l-1.588 1.588-1.709 9.002-.503.002c-9.71 0-18.695-2.427-26.956-7.282S21.04 99.148 16.187 90.887C11.332 82.626 8.904 73.64 8.904 63.93s2.428-18.695 7.283-26.956S27.6 22.155 35.86 17.3c8.26-4.855 17.246-7.283 26.956-7.283ZM119.43 75.4l4.132 4.132a6.678 6.678 0 0 1 0 9.445l-6.493 6.493-13.576-13.576 6.493-6.494a6.678 6.678 0 0 1 9.444 0ZM66.295 30.887c.725 0 1.341.253 1.848.76.507.508.761 1.124.761 1.849v30.87L83.47 74.8c.58.435.906 1.014.979 1.739a2.704 2.704 0 0 1-.544 1.957l-3.913 5.652a2.782 2.782 0 0 1-1.739 1.087c-.725.144-1.377 0-1.957-.435L57.817 71.322c-.724-.58-1.087-1.305-1.087-2.174V33.496c0-.725.254-1.341.761-1.848a2.516 2.516 0 0 1 1.848-.761h6.957Z" fill="#23221F"/></g><defs><clipPath id="a"><path fill="#fff" d="M0 0h128v128H0z"/></clipPath></defs></svg>