<svg fill="none" height="128" width="128" xmlns="http://www.w3.org/2000/svg"><g fill="#23221f"><title>SmartHRCSVカスタムダウンロード</title><path d="m79 12v29.0002h29z"/><path d="m77.4561 48.3337c-3.3533 0-6.0617-2.6953-6.0617-6.0324v-32.3013h-47.7196c-3.1384 0-5.6748 2.5242-5.6748 5.6474v95.7056c0 3.124 2.5364 5.648 5.6748 5.648h80.6502c3.139 0 5.675-2.524 5.675-5.648v-63.0193zm-26.6972 38.2054c-1.0748 1.4975-2.4505 2.6098-4.1271 3.3371-1.6337.7274-3.3533 1.0696-5.1159 1.0696-1.9776 0-3.8262-.2995-5.4598-.9412-1.6767-.599-3.1383-1.4974-4.3421-2.6526-1.2037-1.1551-2.1925-2.567-2.8804-4.1927-.6878-1.6258-1.0317-3.4655-1.0317-5.4763s.3439-3.8505 1.0317-5.4762c.6879-1.6258 1.6337-3.0376 2.8804-4.1928 1.2038-1.1551 2.6654-2.0536 4.3421-2.6525 1.6766-.599 3.5252-.9413 5.4598-.9413.7308 0 1.4617.0856 2.2355.2139.7738.1284 1.5477.3423 2.3215.6418s1.5047.6845 2.1925 1.1551c.6879.4707 1.3327 1.0696 1.8916 1.7542.086.1283.086.2994-.043.385l-4.2131 3.4227c-.1289.0855-.3009.0855-.3869-.0428-.5159-.599-1.1607-1.1124-1.8916-1.4119-.7308-.3422-1.6336-.5134-2.6224-.5134s-1.9346.1712-2.7514.5562c-.8598.3851-1.5907.8985-2.1925 1.583-.6019.6845-1.1178 1.4974-1.4617 2.4386-.3439.9413-.5159 1.9681-.5159 3.0804 0 1.1124.172 2.182.5159 3.1232s.8168 1.7541 1.4617 2.4386c.6018.6846 1.3327 1.198 2.1495 1.583.8168.3851 1.7196.5562 2.6654.5562 1.0748 0 2.0206-.2139 2.8804-.6845.8168-.4279 1.5047-1.0696 2.0636-1.8825.0429-.0428.0859-.0856.1719-.1283.086 0 .129 0 .215.0427l4.557 3.3799c.086.1711.086.3423 0 .4278zm21.1944-.2567c-.5159 1.0696-1.2468 1.9681-2.1496 2.6526s-1.9775 1.1979-3.1383 1.5402c-1.1607.3423-2.4504.5134-3.7402.5134-1.6336 0-3.1813-.2567-4.6-.7701s-2.7514-1.3263-3.9551-2.4386c-.129-.0856-.129-.2567 0-.3851l3.9121-4.2783c.043-.0428.129-.0856.215-.0856s.172.0428.2149.0856c.5159.7273 1.2038 1.2835 2.0206 1.6685 1.2038.599 2.4935.7274 3.8262.4279.4299-.0856.8168-.2567 1.1607-.4279.344-.1711.6019-.4278.7739-.7273.2149-.2995.3009-.5989.3009-1.0268 0-.6845-.258-1.1551-.7738-1.5402-.5589-.4278-1.2468-.7701-2.1066-1.0695-.8598-.2995-1.8056-.599-2.7944-.8985-1.0317-.2995-1.9775-.7273-2.8803-1.2407-.9029-.5134-1.6337-1.2407-2.2356-2.0964-.6018-.8984-.9028-2.0536-.9028-3.4654 0-1.3691.258-2.6098.8169-3.6366.5588-1.0268 1.2897-1.9252 2.1925-2.6098.9028-.6845 1.9776-1.2407 3.1383-1.583 1.1607-.3422 2.4075-.5134 3.6112-.5134 1.4187 0 2.8374.214 4.1701.599 1.3327.4278 2.5794 1.1124 3.6542 2.0536.043.0428.086.1284.086.1711 0 .0856-.043.1284-.086.214l-3.7832 4.1071c-.043.0428-.1289.0856-.2149.0856s-.172-.0428-.215-.0856c-.4299-.5134-.9888-.8984-1.6766-1.1551-.7308-.2567-1.4187-.3851-2.0636-.3851-.3869 0-.7738.0428-1.1607.1284s-.7738.2139-1.1178.4278c-.3439.1712-.6018.4279-.8168.7273-.2149.2995-.3009.6418-.3009 1.0268 0 .6418.2579 1.1552.7308 1.4975.5589.385 1.2468.7273 2.0636.984.8598.2567 1.7626.5561 2.7514.8556s1.9346.6846 2.8374 1.198 1.6336 1.2407 2.2355 2.1391c.6018.8985.9028 2.1392.9028 3.5938-.086 1.4119-.3869 2.6526-.9028 3.7221zm29.1477-20.8782-10.2748 24.8143c-.043.0856-.129.1711-.258.1711h-4.385c-.129 0-.215-.0855-.258-.1711l-9.9738-24.8143c-.043-.0855-.043-.1711.043-.2567.043-.0855.129-.1283.2149-.1283h6.2767c.129 0 .2149.0856.2579.1711l5.9327 15.7015 6.0617-15.7015c.043-.0855.129-.1711.258-.1711h5.8897c.086 0 .172.0428.215.1283.043.0856.043.1712 0 .2567z"/></g></svg>