<?xml version="1.0" encoding="UTF-8"?>
<svg id="_レイヤー_2" data-name="レイヤー 2" xmlns="http://www.w3.org/2000/svg" viewBox="0 0 32 32">
  <defs>
    <style>
      .cls-1 {
        fill: #00c3cb;
      }

      .cls-2 {
        fill: #fff;
      }
    </style>
  </defs>
  <g id="_レイヤー_1-2" data-name="レイヤー 1">
    <path class="cls-1" d="M29,3c-.94-.94-2.03-1.68-3.26-2.19-1.26-.53-2.61-.81-3.99-.81H10.24c-1.38,0-2.72,.27-3.99,.81-1.22,.52-2.32,1.25-3.26,2.19-.94,.94-1.68,2.03-2.19,3.26-.53,1.26-.81,2.61-.81,3.99v11.51c0,1.38,.27,2.72,.81,3.99,.52,1.22,1.25,2.32,2.19,3.26,.94,.94,2.04,1.68,3.26,2.19,1.26,.53,2.61,.81,3.99,.81h11.51c1.38,0,2.72-.27,3.99-.81,1.22-.52,2.32-1.25,3.26-2.19,.94-.94,1.68-2.04,2.19-3.26,.53-1.26,.81-2.61,.81-3.99V10.24c0-1.38-.27-2.72-.81-3.99-.52-1.22-1.25-2.32-2.19-3.26Z"/>
    <path class="cls-2" d="M17.57,13.8c-.52-.18-1.1,.09-1.28,.62-.18,.52,.09,1.1,.62,1.28,1.11,.39,1.86,1.44,1.86,2.62,0,1.53-1.25,2.78-2.78,2.78-1.18,0-2.24-.75-2.63-1.87-.18-.52-.75-.8-1.28-.62-.52,.18-.8,.75-.62,1.28,.67,1.92,2.48,3.21,4.52,3.21,2.64,0,4.78-2.15,4.78-4.78,0-2.03-1.29-3.85-3.21-4.52Zm-3.15,4.4c.11,.04,.22,.06,.33,.06,.41,0,.8-.26,.95-.67,.18-.52-.09-1.1-.62-1.28-1.11-.39-1.86-1.44-1.86-2.62,0-1.53,1.25-2.78,2.78-2.78,1.18,0,2.24,.75,2.63,1.87,.18,.52,.75,.8,1.28,.62,.52-.18,.8-.75,.62-1.28-.67-1.92-2.48-3.21-4.52-3.21-2.64,0-4.78,2.15-4.78,4.78,0,2.03,1.29,3.85,3.21,4.52ZM25.75,6.25c-.7-.7-1.53-1.26-2.44-1.65-.95-.4-1.95-.6-2.99-.6H11.68c-1.04,0-2.04,.2-2.99,.6-.92,.39-1.74,.94-2.44,1.65-.7,.7-1.26,1.53-1.65,2.44-.4,.95-.6,1.95-.6,2.99v8.64c0,1.04,.2,2.04,.6,2.99,.39,.92,.94,1.74,1.65,2.44,.7,.7,1.53,1.26,2.44,1.65,.95,.4,1.95,.6,2.99,.6h8.64c1.04,0,2.04-.2,2.99-.6,.92-.39,1.74-.94,2.44-1.65,.7-.7,1.26-1.53,1.65-2.44,.4-.95,.6-1.95,.6-2.99V11.68c0-1.04-.2-2.04-.6-2.99-.39-.92-.94-1.74-1.65-2.44Zm.25,14.07c0,3.14-2.54,5.68-5.68,5.68H11.68c-3.14,0-5.68-2.54-5.68-5.68V11.68c0-3.14,2.54-5.68,5.68-5.68h8.64c3.14,0,5.68,2.54,5.68,5.68v8.64Z"/>
  </g>
</svg>