<svg width="264" height="24" viewBox="0 0 264 24" fill="none" xmlns="http://www.w3.org/2000/svg">
<path d="M96.4654 11.3538C97.4448 10.9704 98.2749 10.282 98.8329 9.39053C99.391 8.49902 99.6475 7.45162 99.5644 6.40312C99.5953 5.37997 99.3213 4.37073 98.7772 3.5037C98.2211 2.68879 97.4303 2.06232 96.5097 1.7075C95.3945 1.27851 94.2062 1.07136 93.0116 1.09768H86.7082C86.6561 1.09767 86.6044 1.10804 86.5563 1.12816C86.5082 1.14829 86.4646 1.17778 86.4279 1.21492C86.3913 1.25206 86.3624 1.29611 86.343 1.3445C86.3235 1.3929 86.3139 1.44468 86.3146 1.49683V18.2503C86.3146 18.3547 86.3561 18.4548 86.4299 18.5286C86.5037 18.6024 86.6038 18.6439 86.7082 18.6439H89.8128C89.9172 18.6439 90.0173 18.6024 90.0911 18.5286C90.1649 18.4548 90.2064 18.3547 90.2064 18.2503V11.9525H92.6235L95.911 18.4277C95.9437 18.4924 95.9936 18.5468 96.0552 18.585C96.1168 18.6231 96.1878 18.6435 96.2603 18.6439H99.5866C99.6518 18.6432 99.7159 18.6262 99.773 18.5945C99.8301 18.5629 99.8784 18.5175 99.9136 18.4625C99.9488 18.4075 99.9698 18.3446 99.9746 18.2795C99.9795 18.2144 99.968 18.1491 99.9414 18.0895L96.4654 11.3538ZM94.9796 8.16052C94.421 8.59346 93.722 8.80471 93.0171 8.75371H90.2452V4.24103H93.0171C93.7254 4.19092 94.4275 4.40194 94.9907 4.83422C95.2152 5.04691 95.3909 5.30572 95.5057 5.59284C95.6206 5.87995 95.6718 6.18854 95.656 6.49737C95.6768 6.80622 95.6283 7.11581 95.5142 7.40354C95.4001 7.69128 95.2231 7.9499 94.9963 8.16052H94.9796ZM9.82641 8.47097L7.26516 7.45091C5.7517 6.85772 4.65956 6.43084 4.65956 5.37752C4.65956 4.32419 5.52994 3.71437 6.99351 3.71437C8.23797 3.71713 9.44866 4.11939 10.4473 4.86194C10.5291 4.91798 10.6293 4.94059 10.7272 4.92513C10.8251 4.90967 10.9134 4.8573 10.974 4.77878L12.5484 2.79964C12.6133 2.71824 12.6438 2.61473 12.6334 2.51117C12.6231 2.40761 12.5727 2.31219 12.493 2.24525C10.9582 0.938528 9.00921 0.219434 6.99351 0.216211C3.29024 0.216211 0.485059 2.53907 0.485059 5.62699C0.485059 8.7149 3.02968 10.0953 4.12181 10.5333L6.78839 11.642C8.20761 12.2352 9.15006 12.6288 9.15006 13.7099C9.15006 14.3585 8.81743 15.4507 6.61653 15.4507C5.10221 15.3667 3.65132 14.8146 2.46421 13.8707C2.4245 13.8371 2.37846 13.8119 2.32883 13.7966C2.2792 13.7812 2.22699 13.7759 2.17528 13.7811C2.12358 13.7862 2.07344 13.8017 2.02784 13.8267C1.98224 13.8516 1.94211 13.8854 1.90982 13.9261L0.0914468 16.1603C0.0245524 16.2404 -0.00777129 16.3438 0.0015856 16.4478C0.0109425 16.5518 0.0612136 16.6477 0.141341 16.7146C1.94236 18.1814 4.19405 18.9822 6.51675 18.9821C11.2345 18.9821 13.3855 16.0716 13.3855 13.3717C13.3855 10.999 12.2602 9.44114 9.84304 8.47097H9.82641ZM44.6583 5.89309C43.7831 5.51686 42.8389 5.32802 41.8864 5.33871C40.8738 5.31813 39.8678 5.50687 38.9315 5.89309C38.1462 6.21049 37.462 6.73558 36.9524 7.4121C36.5883 7.91503 36.3592 8.50292 36.2871 9.1196C36.2808 9.17489 36.2864 9.23088 36.3033 9.28388C36.3203 9.33688 36.3483 9.38568 36.3855 9.42706C36.4227 9.46845 36.4682 9.50148 36.5191 9.52398C36.57 9.54647 36.6251 9.55791 36.6807 9.55756H39.6578C39.7507 9.55567 39.8398 9.5205 39.909 9.45844C39.9782 9.39638 40.0228 9.31156 40.0347 9.21939C40.0914 8.93359 40.2464 8.67665 40.4727 8.49315C40.8233 8.22163 41.2609 8.08757 41.7034 8.11617C41.9456 8.09614 42.1893 8.12944 42.4173 8.21373C42.6452 8.29801 42.8519 8.43124 43.0229 8.60402C43.3325 8.98854 43.4868 9.47513 43.4553 9.96781V10.6774H42.0527C40.0458 10.6774 38.5324 11.0544 37.5178 11.7862C37.0199 12.1462 36.6198 12.6247 36.3535 13.1784C36.0873 13.7322 35.9635 14.3436 35.9933 14.9573C35.9847 15.6784 36.1933 16.3854 36.592 16.9863C36.9884 17.5862 37.5402 18.0671 38.1886 18.3778C38.879 18.714 39.6383 18.8849 40.4062 18.8767C41.015 18.9061 41.6224 18.7954 42.1818 18.5532C42.7411 18.311 43.2375 17.9438 43.6327 17.4797V18.2447C43.6327 18.2969 43.643 18.3485 43.6632 18.3967C43.6833 18.4448 43.7128 18.4884 43.7499 18.525C43.7871 18.5617 43.8311 18.5905 43.8795 18.61C43.9279 18.6295 43.9797 18.6391 44.0318 18.6384H46.8037C46.8559 18.6391 46.9077 18.6295 46.9561 18.61C47.0045 18.5905 47.0485 18.5617 47.0857 18.525C47.1228 18.4884 47.1523 18.4448 47.1724 18.3967C47.1926 18.3485 47.2029 18.2969 47.2029 18.2447V9.99552C47.2471 9.10362 47.0272 8.21851 46.5709 7.45091C46.1082 6.75434 45.448 6.21187 44.6749 5.89309H44.6583ZM43.4664 14.9351C43.2666 15.2735 42.9768 15.5499 42.6292 15.7334C42.2134 15.9611 41.7451 16.0758 41.271 16.066C40.8686 16.0873 40.4729 15.9567 40.1622 15.7001C40.0262 15.5811 39.9183 15.4333 39.8464 15.2674C39.7745 15.1015 39.7403 14.9217 39.7465 14.741C39.7351 14.4831 39.7786 14.2256 39.8742 13.9858C39.9698 13.7459 40.1152 13.529 40.3008 13.3495C40.8001 12.9418 41.4379 12.7431 42.0804 12.7952H43.4664V14.9351ZM83.0715 1.0755H79.9559C79.8515 1.0755 79.7513 1.11697 79.6775 1.19079C79.6037 1.26461 79.5622 1.36472 79.5622 1.46912V8.75371H72.9096V1.47466C72.9097 1.4225 72.8993 1.37086 72.8792 1.32274C72.859 1.27462 72.8295 1.23098 72.7924 1.19436C72.7553 1.15773 72.7112 1.12885 72.6628 1.1094C72.6144 1.08995 72.5626 1.08031 72.5105 1.08105H69.3838C69.3316 1.08031 69.2798 1.08995 69.2314 1.1094C69.183 1.12885 69.139 1.15773 69.1019 1.19436C69.0647 1.23098 69.0352 1.27462 69.0151 1.32274C68.995 1.37086 68.9846 1.4225 68.9846 1.47466V18.2503C68.9846 18.3024 68.995 18.3541 69.0151 18.4022C69.0352 18.4503 69.0647 18.494 69.1019 18.5306C69.139 18.5672 69.183 18.5961 69.2314 18.6155C69.2798 18.635 69.3316 18.6446 69.3838 18.6439H72.5105C72.5626 18.6446 72.6144 18.635 72.6628 18.6155C72.7112 18.5961 72.7553 18.5672 72.7924 18.5306C72.8295 18.494 72.859 18.4503 72.8792 18.4022C72.8993 18.3541 72.9097 18.3024 72.9096 18.2503V11.9026H79.5622V18.2503C79.5622 18.3547 79.6037 18.4548 79.6775 18.5286C79.7513 18.6024 79.8515 18.6439 79.9559 18.6439H83.0715C83.1236 18.6446 83.1754 18.635 83.2238 18.6155C83.2722 18.5961 83.3163 18.5672 83.3534 18.5306C83.3905 18.494 83.42 18.4503 83.4402 18.4022C83.4603 18.3541 83.4706 18.3024 83.4706 18.2503V1.47466C83.4706 1.4225 83.4603 1.37086 83.4402 1.32274C83.42 1.27462 83.3905 1.23098 83.3534 1.19436C83.3163 1.15773 83.2722 1.12885 83.2238 1.1094C83.1754 1.08995 83.1236 1.08031 83.0715 1.08105V1.0755ZM56.6773 5.42186C56.4264 5.37957 56.1723 5.35916 55.9178 5.36088C55.3388 5.32549 54.7618 5.45628 54.2547 5.73786C53.7339 6.00759 53.3054 6.42643 53.0239 6.94088L52.9352 5.96516C52.9295 5.86517 52.8854 5.77125 52.812 5.70306C52.7386 5.63486 52.6418 5.59767 52.5416 5.59927H49.7697C49.7175 5.59926 49.6659 5.60963 49.6178 5.62975C49.5697 5.64988 49.526 5.67937 49.4894 5.71651C49.4528 5.75365 49.4239 5.7977 49.4044 5.84609C49.385 5.89449 49.3754 5.94627 49.3761 5.99842V18.2503C49.3761 18.3547 49.4176 18.4548 49.4914 18.5286C49.5652 18.6024 49.6653 18.6439 49.7697 18.6439H52.7356C52.7878 18.6446 52.8396 18.635 52.888 18.6155C52.9364 18.5961 52.9804 18.5672 53.0176 18.5306C53.0547 18.494 53.0842 18.4503 53.1043 18.4022C53.1244 18.3541 53.1348 18.3024 53.1348 18.2503V10.8714C53.1568 10.534 53.249 10.2048 53.4056 9.90505C53.5621 9.60529 53.7796 9.34153 54.044 9.13069C54.5095 8.77684 55.0683 8.5668 55.6517 8.52641C55.9432 8.50409 56.2361 8.50409 56.5276 8.52641C56.582 8.5318 56.6369 8.52581 56.6889 8.5088C56.7408 8.4918 56.7887 8.46417 56.8293 8.42766C56.87 8.39115 56.9027 8.34657 56.9252 8.29676C56.9477 8.24695 56.9595 8.193 56.96 8.13834L56.9989 5.7933C56.9932 5.70538 56.9585 5.62181 56.9004 5.55562C56.8422 5.48944 56.7638 5.44436 56.6773 5.42741V5.42186ZM65.6472 15.7722C65.4698 15.7722 65.2758 15.7722 65.0928 15.7722C64.7285 15.8094 64.3633 15.7107 64.0672 15.495C63.8396 15.2145 63.7284 14.8573 63.7568 14.4971V8.55967H65.5419C65.6463 8.55967 65.7464 8.5182 65.8202 8.44439C65.894 8.37057 65.9355 8.27045 65.9355 8.16606V5.76004C65.9355 5.65565 65.894 5.55553 65.8202 5.48171C65.7464 5.4079 65.6463 5.36643 65.5419 5.36643H63.7568V2.77191C63.7568 2.71975 63.7464 2.66812 63.7263 2.62C63.7062 2.57188 63.6767 2.52824 63.6395 2.49161C63.6024 2.45499 63.5584 2.42611 63.51 2.40666C63.4616 2.38721 63.4098 2.37757 63.3576 2.3783H60.3917C60.2873 2.3783 60.1872 2.41977 60.1133 2.49359C60.0395 2.56741 59.9981 2.66752 59.9981 2.77191V5.36643H58.601C58.4966 5.36643 58.3965 5.4079 58.3227 5.48171C58.2489 5.55553 58.2074 5.65565 58.2074 5.76004V8.16606C58.2074 8.27045 58.2489 8.37057 58.3227 8.44439C58.3965 8.5182 58.4966 8.55967 58.601 8.55967H59.9925V14.9351C59.9925 16.2989 60.327 17.2986 60.996 17.9343C61.8029 18.6143 62.8425 18.9542 63.8954 18.8823C64.5414 18.8881 65.1851 18.8042 65.808 18.6328C65.8889 18.6087 65.9598 18.5588 66.0098 18.4908C66.0598 18.4228 66.0863 18.3403 66.0852 18.2558V16.1603C66.084 16.1056 66.0714 16.0517 66.0482 16.0021C66.0251 15.9526 65.9918 15.9084 65.9506 15.8724C65.9094 15.8364 65.8611 15.8094 65.8089 15.7931C65.7567 15.7768 65.7016 15.7716 65.6472 15.7777V15.7722ZM29.9394 5.36643C29.1588 5.35067 28.3862 5.52575 27.6886 5.87646C27.0347 6.2207 26.478 6.72402 26.0698 7.34003C25.7936 6.71546 25.3256 6.19508 24.7338 5.85429C24.097 5.51367 23.3822 5.34549 22.6604 5.36643C21.9267 5.35485 21.1996 5.50633 20.5315 5.80994C19.9081 6.10616 19.3631 6.54484 18.9405 7.09056L18.8462 5.98179C18.8379 5.88275 18.793 5.79035 18.7202 5.72268C18.6474 5.65501 18.552 5.61694 18.4526 5.6159H15.6807C15.5748 5.6159 15.4733 5.65795 15.3984 5.73281C15.3236 5.80766 15.2815 5.90919 15.2815 6.01505V18.2503C15.2815 18.3024 15.2919 18.3541 15.312 18.4022C15.3321 18.4503 15.3616 18.494 15.3988 18.5306C15.4359 18.5672 15.48 18.5961 15.5284 18.6155C15.5768 18.635 15.6285 18.6446 15.6807 18.6439H18.6466C18.751 18.6439 18.8512 18.6024 18.925 18.5286C18.9988 18.4548 19.0403 18.3547 19.0403 18.2503V10.0953C19.2324 9.75042 19.5114 9.46182 19.8497 9.2582C20.2079 9.04548 20.6196 8.93968 21.036 8.95329C21.3728 8.94241 21.7083 8.99896 22.0228 9.1196C22.2906 9.23581 22.5018 9.45295 22.6105 9.72388C22.766 10.1225 22.8359 10.5494 22.8156 10.9768V18.2503C22.8156 18.3024 22.826 18.3541 22.8461 18.4022C22.8662 18.4503 22.8957 18.494 22.9328 18.5306C22.97 18.5672 23.014 18.5961 23.0624 18.6155C23.1108 18.635 23.1626 18.6446 23.2148 18.6439H26.1807C26.2851 18.6439 26.3852 18.6024 26.459 18.5286C26.5328 18.4548 26.5743 18.3547 26.5743 18.2503V10.2395C26.7474 9.86037 27.0193 9.53485 27.3615 9.297C27.7146 9.0638 28.1304 8.94389 28.5535 8.95329C28.8884 8.94179 29.2222 8.99838 29.5347 9.1196C29.7889 9.24145 29.9871 9.45554 30.0891 9.71833C30.2443 10.1112 30.3142 10.5326 30.2942 10.9546V18.2503C30.2942 18.3024 30.3046 18.3541 30.3247 18.4022C30.3448 18.4503 30.3743 18.494 30.4115 18.5306C30.4486 18.5672 30.4927 18.5961 30.5411 18.6155C30.5894 18.635 30.6412 18.6446 30.6934 18.6439H33.6704C33.7226 18.6446 33.7744 18.635 33.8228 18.6155C33.8711 18.5961 33.9152 18.5672 33.9523 18.5306C33.9895 18.494 34.019 18.4503 34.0391 18.4022C34.0592 18.3541 34.0696 18.3024 34.0696 18.2503V10.4002C34.0696 8.6225 33.7 7.32894 32.9608 6.51954C32.568 6.12374 32.0954 5.81618 31.5744 5.61735C31.0534 5.41852 30.496 5.33298 29.9394 5.36643ZM115.869 2.14546C114.594 1.42324 113.148 1.0557 111.683 1.08105H106.5C106.401 1.08105 106.307 1.12018 106.237 1.18984C106.167 1.2595 106.128 1.35397 106.128 1.45248V18.2725C106.128 18.371 106.167 18.4654 106.237 18.5351C106.307 18.6048 106.401 18.6439 106.5 18.6439H111.683C113.149 18.6684 114.596 18.303 115.874 17.585C117.092 16.8839 118.087 15.8541 118.746 14.6135C119.444 13.2644 119.796 11.7635 119.772 10.245V9.50767C119.797 7.9883 119.443 6.48658 118.74 5.13913C118.096 3.89507 117.114 2.8576 115.908 2.14546H115.869ZM115.68 10.245C115.68 11.9081 115.337 13.2109 114.649 14.0813C114.292 14.517 113.838 14.8621 113.322 15.0885C112.807 15.3149 112.245 15.4162 111.683 15.3841H110.159V4.3519H111.683C112.25 4.30935 112.819 4.40286 113.343 4.62465C113.866 4.84643 114.33 5.19008 114.693 5.62699C115.375 6.49182 115.719 7.77799 115.719 9.44669L115.68 10.245ZM130.599 6.09821C129.599 5.57283 128.483 5.30528 127.353 5.3198C126.224 5.33432 125.115 5.63046 124.129 6.18137C123.202 6.76302 122.462 7.59796 121.995 8.58739C121.488 9.67309 121.236 10.86 121.257 12.0578V12.5124C121.245 13.6277 121.52 14.7274 122.056 15.7057C122.591 16.6768 123.388 17.4779 124.356 18.0174C125.434 18.6023 126.646 18.8947 127.871 18.8657C128.946 18.8904 130.012 18.6606 130.981 18.1948C131.7 17.854 132.336 17.3602 132.844 16.7479C132.899 16.6806 132.929 16.5964 132.929 16.5095C132.929 16.4226 132.899 16.3384 132.844 16.2711L131.464 14.608C131.429 14.5681 131.387 14.5361 131.339 14.5142C131.291 14.4923 131.239 14.4809 131.186 14.4809C131.134 14.4809 131.082 14.4923 131.034 14.5142C130.986 14.5361 130.944 14.5681 130.909 14.608C130.593 14.9346 130.217 15.1964 129.8 15.3786C129.262 15.5996 128.686 15.7108 128.104 15.7057C127.401 15.7324 126.712 15.504 126.164 15.0626C125.67 14.6259 125.336 14.0366 125.216 13.3883H132.977C133.075 13.3884 133.168 13.35 133.238 13.2815C133.307 13.2131 133.347 13.12 133.348 13.0225V11.7252C133.376 10.5559 133.143 9.39512 132.667 8.32683C132.233 7.39456 131.525 6.61698 130.638 6.09821H130.599ZM129.49 10.7772H125.194C125.46 9.22493 126.186 8.47097 127.411 8.47097C127.696 8.45079 127.982 8.48962 128.251 8.58501C128.52 8.68041 128.766 8.83032 128.974 9.02535C129.343 9.44472 129.53 9.99283 129.496 10.5499L129.49 10.7772ZM143.255 11.3926C142.417 11.0514 141.543 10.8041 140.65 10.6552C140.043 10.5756 139.455 10.3878 138.914 10.1009C138.765 10.0193 138.641 9.89902 138.554 9.75271C138.467 9.60639 138.421 9.43941 138.421 9.26928C138.418 9.101 138.456 8.93454 138.532 8.784C138.607 8.63346 138.717 8.50327 138.854 8.40445C139.195 8.15909 139.609 8.0378 140.029 8.06073C140.504 8.01958 140.976 8.16249 141.348 8.45988C141.586 8.68712 141.729 8.99626 141.747 9.32472C141.757 9.41688 141.8 9.50231 141.869 9.56469C141.937 9.62706 142.026 9.66202 142.119 9.66289H145.251C145.303 9.66228 145.353 9.65113 145.4 9.63014C145.447 9.60915 145.489 9.57876 145.524 9.54085C145.559 9.50293 145.586 9.4583 145.603 9.40969C145.62 9.36107 145.626 9.30952 145.623 9.2582C145.581 8.57756 145.348 7.92241 144.952 7.36775C144.463 6.69707 143.799 6.17353 143.034 5.85429C142.095 5.47445 141.091 5.28596 140.079 5.2999C139.109 5.27676 138.146 5.46597 137.257 5.85429C136.511 6.17444 135.87 6.69675 135.405 7.3622C134.988 7.973 134.766 8.69591 134.768 9.4356C134.753 9.93926 134.859 10.4392 135.077 10.8935C135.295 11.3478 135.618 11.7432 136.021 12.0467C137.023 12.7693 138.175 13.2581 139.391 13.4771C139.933 13.5836 140.467 13.73 140.988 13.915C141.271 14.0044 141.529 14.1581 141.742 14.3641C141.878 14.5164 141.951 14.7144 141.947 14.9184C141.951 15.0886 141.911 15.2568 141.831 15.4072C141.752 15.5576 141.635 15.6851 141.492 15.7777C141.092 16.0181 140.628 16.1321 140.162 16.1048C139.615 16.129 139.075 15.9775 138.621 15.6724C138.463 15.555 138.331 15.4071 138.232 15.2376C138.133 15.0681 138.069 14.8804 138.044 14.6856C138.031 14.5974 137.987 14.5167 137.92 14.4578C137.853 14.3989 137.767 14.3657 137.678 14.3641H134.718C134.666 14.3646 134.615 14.3759 134.568 14.3972C134.521 14.4186 134.479 14.4496 134.444 14.4882C134.41 14.5269 134.384 14.5723 134.368 14.6215C134.352 14.6708 134.346 14.7228 134.352 14.7743C134.427 15.4125 134.651 16.024 135.006 16.5594C135.511 17.2777 136.195 17.8512 136.991 18.2226C137.95 18.6698 138.999 18.8899 140.057 18.8657C141.071 18.8976 142.082 18.7319 143.034 18.3778C144.051 18.0072 144.889 17.2641 145.379 16.2989C145.617 15.7782 145.723 15.2071 145.689 14.6357C145.687 13.9293 145.46 13.2419 145.04 12.6732C144.575 12.1044 143.972 11.6636 143.289 11.3926H143.255ZM150.933 5.55492H147.79C147.692 5.55492 147.597 5.59405 147.527 5.66371C147.458 5.73337 147.419 5.82784 147.419 5.92635V18.2725C147.419 18.371 147.458 18.4654 147.527 18.5351C147.597 18.6048 147.692 18.6439 147.79 18.6439H150.933C151.032 18.6439 151.126 18.6048 151.196 18.5351C151.266 18.4654 151.305 18.371 151.305 18.2725V5.92635C151.305 5.83334 151.271 5.74358 151.208 5.6748C151.146 5.60603 151.059 5.56325 150.967 5.55492H150.933ZM164.793 5.55492H161.988C161.897 5.55659 161.81 5.59039 161.742 5.6503C161.674 5.7102 161.63 5.79231 161.616 5.882L161.528 6.64705C161.126 6.20368 160.632 5.8545 160.08 5.62449C159.528 5.39447 158.932 5.28932 158.335 5.31653C157.333 5.31071 156.354 5.61259 155.529 6.18137C154.697 6.77481 154.053 7.59442 153.672 8.54304C153.22 9.63947 152.995 10.8165 153.012 12.0024V12.2796C152.994 13.4466 153.215 14.6049 153.661 15.6835C154.044 16.6304 154.686 17.4506 155.513 18.0507C156.34 18.6242 157.328 18.9229 158.335 18.9045C158.893 18.9159 159.448 18.8103 159.964 18.5945C160.479 18.3788 160.944 18.0576 161.328 17.6516V18.0729C161.353 18.4326 161.302 18.7935 161.178 19.1324C161.055 19.4713 160.863 19.7808 160.613 20.0409C160.054 20.5256 159.327 20.7706 158.59 20.7228C158.016 20.727 157.448 20.6059 156.926 20.368C156.532 20.1808 156.17 19.934 155.851 19.6362C155.811 19.6018 155.765 19.576 155.714 19.5606C155.664 19.5452 155.611 19.5405 155.559 19.5467C155.507 19.553 155.456 19.5701 155.411 19.597C155.366 19.6239 155.327 19.6599 155.296 19.7028L154.032 21.4934C153.982 21.5647 153.958 21.6517 153.965 21.7389C153.972 21.8261 154.01 21.908 154.071 21.9702C154.633 22.5346 155.313 22.968 156.062 23.2397C156.926 23.5763 157.845 23.7528 158.772 23.7609C159.934 23.7846 161.087 23.5597 162.154 23.1011C163.087 22.6955 163.877 22.0196 164.422 21.1608C164.974 20.2321 165.247 19.1639 165.209 18.084V5.92635C165.209 5.87711 165.199 5.82835 165.18 5.78292C165.161 5.73749 165.133 5.69629 165.098 5.66173C165.063 5.62716 165.021 5.59992 164.976 5.58158C164.93 5.56325 164.881 5.55418 164.832 5.55492H164.793ZM161.328 14.7466C161.105 15.0741 160.799 15.3372 160.442 15.5094C160.085 15.6816 159.689 15.7569 159.294 15.7278C158.938 15.745 158.585 15.6654 158.272 15.4975C157.958 15.3295 157.696 15.0796 157.514 14.7743C157.076 14.0179 156.861 13.1531 156.893 12.2796V12.0024C156.854 11.1064 157.071 10.2179 157.52 9.44114C157.704 9.13437 157.968 8.88263 158.283 8.71204C158.598 8.54144 158.952 8.45821 159.31 8.47097C159.703 8.44029 160.098 8.51504 160.452 8.68753C160.807 8.86001 161.109 9.12399 161.328 9.45223V14.7466ZM174.728 5.32208C173.997 5.31184 173.273 5.46527 172.61 5.77113C172.021 6.04962 171.499 6.45247 171.08 6.95196L170.991 5.89863C170.983 5.806 170.94 5.71986 170.871 5.65724C170.802 5.59462 170.713 5.56009 170.62 5.56046H167.704C167.655 5.56046 167.606 5.57007 167.561 5.58874C167.516 5.6074 167.475 5.63476 167.441 5.66925C167.406 5.70374 167.379 5.74469 167.36 5.78976C167.342 5.83482 167.332 5.88312 167.332 5.9319V18.2725C167.332 18.3212 167.342 18.3695 167.36 18.4146C167.379 18.4597 167.406 18.5006 167.441 18.5351C167.475 18.5696 167.516 18.597 167.561 18.6156C167.606 18.6343 167.655 18.6439 167.704 18.6439H170.825C170.922 18.6424 171.015 18.6027 171.084 18.5332C171.152 18.4637 171.191 18.37 171.191 18.2725V9.50767C171.56 8.99723 172.111 8.64852 172.731 8.53393C173.35 8.41935 173.99 8.54768 174.517 8.8923C174.689 9.09859 174.817 9.33756 174.895 9.5948C174.972 9.85205 174.996 10.1222 174.966 10.3891V18.2725C174.966 18.3212 174.976 18.3695 174.994 18.4146C175.013 18.4597 175.04 18.5006 175.075 18.5351C175.109 18.5696 175.15 18.597 175.195 18.6156C175.24 18.6343 175.289 18.6439 175.337 18.6439H178.514C178.612 18.6424 178.705 18.6027 178.773 18.5332C178.842 18.4637 178.88 18.37 178.88 18.2725V10.4002C178.88 8.61511 178.514 7.30677 177.771 6.51954C177.379 6.1139 176.904 5.79673 176.379 5.58927C175.854 5.3818 175.291 5.28882 174.728 5.31653V5.32208ZM149.359 0.00554501C148.938 0.00554501 148.526 0.130398 148.176 0.364317C147.826 0.598236 147.553 0.930714 147.392 1.31971C147.231 1.7087 147.189 2.13674 147.271 2.54969C147.353 2.96264 147.556 3.34196 147.854 3.63969C148.151 3.93741 148.531 4.14016 148.944 4.2223C149.357 4.30444 149.785 4.26228 150.174 4.10116C150.563 3.94003 150.895 3.66717 151.129 3.31709C151.363 2.96701 151.488 2.55542 151.488 2.13438C151.489 1.85435 151.434 1.57693 151.327 1.318C151.221 1.05908 151.064 0.823748 150.866 0.62548C150.669 0.427213 150.434 0.269908 150.175 0.162578C149.916 0.0552474 149.639 -9.49524e-07 149.359 0V0.00554501ZM204.016 13.3883L201.798 5.73232H197.812L202.319 18.7104L201.964 19.6307C201.837 20.0125 201.583 20.3392 201.244 20.5565C200.802 20.7757 200.311 20.8733 199.819 20.8393H199.292V23.6112C199.636 23.7054 199.902 23.7664 200.096 23.7997C200.359 23.8375 200.624 23.8542 200.889 23.8496C201.641 23.8783 202.387 23.7 203.045 23.334C203.564 23.0344 204.006 22.6188 204.337 22.1199C204.634 21.6394 204.877 21.1282 205.063 20.5953L210.241 5.76558H206.233L204.016 13.3883ZM219.444 11.5423C218.613 11.2022 217.747 10.9567 216.861 10.8105C216.248 10.7333 215.654 10.5454 215.109 10.2561C214.951 10.1679 214.818 10.0394 214.726 9.88361C214.633 9.7278 214.584 9.55027 214.582 9.36907C214.579 9.18991 214.619 9.0126 214.699 8.85233C214.779 8.69205 214.897 8.55359 215.042 8.44879C215.43 8.20317 215.882 8.07788 216.34 8.08873C216.799 8.09959 217.245 8.2461 217.62 8.50978C217.771 8.66547 217.888 8.85086 217.963 9.05414C218.039 9.25743 218.071 9.47418 218.058 9.69062H221.756C221.768 8.91096 221.531 8.14784 221.08 7.51189C220.591 6.84856 219.927 6.33568 219.161 6.03169C218.237 5.65128 217.245 5.46267 216.245 5.47731C215.292 5.4593 214.346 5.64845 213.473 6.03169C212.743 6.34632 212.115 6.85904 211.661 7.51189C211.251 8.1092 211.033 8.81675 211.034 9.54093C211.019 10.0339 211.122 10.5235 211.335 10.9683C211.548 11.413 211.865 11.8 212.259 12.0966C213.249 12.8086 214.386 13.2898 215.586 13.5048C216.129 13.6149 216.664 13.7612 217.188 13.9427C217.48 14.0378 217.747 14.1969 217.969 14.4084C218.114 14.578 218.191 14.7952 218.186 15.0182C218.19 15.1991 218.147 15.3781 218.063 15.5381C217.979 15.6982 217.855 15.8341 217.703 15.933C217.294 16.1828 216.818 16.3008 216.34 16.2711C215.781 16.2977 215.228 16.1421 214.765 15.8276C214.556 15.6749 214.387 15.4744 214.271 15.243C214.156 15.0116 214.097 14.7558 214.1 14.4971H210.596C210.605 15.241 210.837 15.9652 211.261 16.576C211.754 17.2927 212.427 17.8665 213.213 18.2392C214.158 18.685 215.195 18.9034 216.24 18.8767C217.233 18.899 218.221 18.7296 219.15 18.3778C219.913 18.09 220.582 17.5992 221.085 16.9586C221.529 16.3699 221.765 15.6503 221.756 14.9129C221.787 14.1683 221.564 13.4353 221.124 12.834C220.676 12.2641 220.088 11.8208 219.416 11.5478L219.444 11.5423ZM228.869 15.5504C228.752 15.4061 228.666 15.2401 228.615 15.0622C228.563 14.8842 228.548 14.6978 228.569 14.5137V8.41553H230.731V5.73786H228.569V2.53907H224.844V5.73786H223.081V8.44325H224.844V14.9683C224.844 16.321 225.176 17.3115 225.842 17.9398C226.64 18.6162 227.67 18.9543 228.713 18.8823C229.451 18.891 230.185 18.7786 230.887 18.5497V15.7445C230.555 15.8026 230.219 15.8304 229.883 15.8276C229.516 15.8687 229.146 15.7719 228.846 15.556L228.869 15.5504ZM241.143 6.25898C240.151 5.73657 239.044 5.47191 237.923 5.48935C236.802 5.50679 235.704 5.80576 234.728 6.35877C233.811 6.92904 233.079 7.75332 232.622 8.73153C232.121 9.805 231.873 10.9789 231.896 12.1632V12.6122C231.883 13.7138 232.155 14.8 232.683 15.7667C233.21 16.7224 233.996 17.5102 234.95 18.0396C236.003 18.6145 237.188 18.9049 238.387 18.8823C239.447 18.9054 240.497 18.6794 241.453 18.2226C242.242 17.8511 242.927 17.2914 243.449 16.5927L241.714 14.4971C241.36 14.9527 240.896 15.3113 240.367 15.5394C239.822 15.7647 239.237 15.8779 238.648 15.872C237.929 15.9011 237.224 15.6642 236.669 15.2067C236.128 14.7398 235.772 14.0948 235.665 13.3883H243.765V11.8194C243.793 10.6637 243.564 9.5163 243.094 8.45988C242.673 7.54578 241.985 6.78049 241.12 6.26453L241.143 6.25898ZM240.139 10.9324H235.704C235.97 9.30809 236.73 8.49869 237.999 8.49869C238.29 8.47609 238.583 8.51366 238.858 8.60904C239.134 8.70442 239.387 8.85557 239.602 9.05307C239.986 9.48241 240.185 10.0463 240.156 10.622L240.139 10.9324ZM262.963 6.65814C262.574 6.25698 262.102 5.94477 261.58 5.74287C261.059 5.54097 260.5 5.45417 259.942 5.48839C259.172 5.47649 258.411 5.65151 257.724 5.99842C257.079 6.33868 256.53 6.83637 256.128 7.44536C255.853 6.82732 255.389 6.31274 254.803 5.97625C254.173 5.6389 253.466 5.47081 252.751 5.48839C252.023 5.47668 251.301 5.62823 250.639 5.9319C250.022 6.22237 249.482 6.65563 249.065 7.19589L248.921 5.73786H245.428V18.6439H249.148V9.62409C249.341 9.28653 249.616 9.00259 249.946 8.79806C250.294 8.59492 250.691 8.49314 251.094 8.50424C251.428 8.49392 251.761 8.54852 252.075 8.66501C252.33 8.78818 252.529 9.00441 252.63 9.26928C252.783 9.66277 252.852 10.0837 252.835 10.5056V18.6439H256.555V9.77377C256.726 9.39966 256.994 9.07809 257.331 8.84241C257.681 8.61399 258.093 8.49795 258.511 8.50978C258.842 8.49891 259.172 8.55355 259.482 8.67055C259.745 8.78533 259.954 8.99802 260.064 9.26374C260.214 9.65396 260.282 10.0711 260.263 10.4889V18.6439H264V10.4834C264.007 8.72414 263.654 7.45091 262.941 6.66368L262.963 6.65814ZM193.704 8.26031L191.143 7.24024C189.629 6.64705 188.537 6.22018 188.537 5.16685C188.537 4.11352 189.408 3.5037 190.871 3.5037C192.115 3.50407 193.326 3.90446 194.325 4.64573C194.41 4.70751 194.516 4.73341 194.619 4.71785C194.723 4.70229 194.816 4.64651 194.879 4.56257L196.448 2.58897C196.512 2.50705 196.542 2.40387 196.531 2.30072C196.521 2.19757 196.471 2.10231 196.393 2.03459C194.857 0.729969 192.909 0.0111707 190.893 0.00554501C187.173 0.00554501 184.368 2.33395 184.368 5.42186C184.368 8.50978 186.913 9.89019 188.011 10.3226L190.672 11.4314C192.091 12.0301 193.033 12.4182 193.033 13.5048C193.033 14.1534 192.701 15.2455 190.5 15.2455C188.985 15.1581 187.535 14.6043 186.347 13.66C186.307 13.6275 186.261 13.6033 186.211 13.5888C186.161 13.5743 186.109 13.5697 186.058 13.5754C186.006 13.581 185.956 13.5968 185.911 13.6218C185.865 13.6468 185.825 13.6805 185.793 13.721L183.964 15.9385C183.929 15.9775 183.904 16.023 183.887 16.0722C183.871 16.1214 183.865 16.1734 183.869 16.2251C183.873 16.2767 183.887 16.3271 183.911 16.3731C183.935 16.4191 183.968 16.4598 184.008 16.4929C185.811 17.9556 188.062 18.7542 190.383 18.7548C195.101 18.7548 197.252 15.8498 197.252 13.1444C197.247 10.7883 196.121 9.23048 193.704 8.26031Z" fill="#23221F"/>
</svg>
