<svg width="128" height="128" fill="none" xmlns="http://www.w3.org/2000/svg"><path fill-rule="evenodd" clip-rule="evenodd" d="M83.067 60.66c.924 0 2.042.649 2.5 1.447l11.891 20.73c.826 1.382 1.24 2.226 1.983 3.608.743-1.458 1.156-2.226 2.065-3.684l11.495-20.641c.447-.804 1.559-1.46 2.482-1.46h8.059c.922 0 1.284.642.809 1.432l-12.107 20.132h7.749c.92 0 1.667.747 1.667 1.67v.651c0 .923-.747 1.67-1.667 1.67h-10.145l-4.708 7.826h14.853c.92 0 1.667.748 1.667 1.67v.652c0 .923-.748 1.669-1.671 1.669h-15.758v20.51c0 .919-.747 1.667-1.669 1.667h-7.895c-.924 0-1.67-.747-1.67-1.667v-20.51H77.654a1.67 1.67 0 0 1-1.67-1.67v-.651c0-.924.747-1.67 1.67-1.67h14.436l-4.625-7.827h-9.812a1.67 1.67 0 0 1-1.67-1.669v-.652c0-.923.749-1.67 1.672-1.67h7.414l-11.87-20.122c-.47-.795-.102-1.44.82-1.44h9.049Zm12.399-48.138a4.986 4.986 0 0 1 4.986 4.986v51.67a3.34 3.34 0 0 1-3.942-1.418l-.045-.076-6.897-12.024a3.339 3.339 0 0 0-2.804-1.676l-.092-.001h-20.17a3.34 3.34 0 0 0-2.92 4.96l.043.075 8.716 14.775a1.162 1.162 0 0 1-1.002 1.753 2.036 2.036 0 0 0-2.034 1.968l-.001.067v23.79a3.339 3.339 0 0 0 3.254 3.338l.085.001H82.98a3.339 3.339 0 0 1 3.338 3.254l.002.085v4.09H18.064a4.986 4.986 0 0 1-4.987-4.986V17.508a4.986 4.986 0 0 1 4.987-4.986h77.4ZM34.302 87.235H29.3a3.74 3.74 0 0 0-3.739 3.653v5.059a3.74 3.74 0 0 0 3.652 3.739l.087.001h5.002a3.74 3.74 0 0 0 3.74-3.653v-5.059a3.74 3.74 0 0 0-3.74-3.74Zm24.964 0h-5.002a3.74 3.74 0 0 0-3.739 3.653v5.059a3.74 3.74 0 0 0 3.652 3.739l.087.001h5.002a3.74 3.74 0 0 0 3.74-3.653v-5.059a3.74 3.74 0 0 0-3.74-3.74ZM34.302 62.33H29.3a3.74 3.74 0 0 0-3.739 3.653v5.06a3.74 3.74 0 0 0 3.652 3.739H34.302a3.74 3.74 0 0 0 3.74-3.652v-5.06a3.74 3.74 0 0 0-3.74-3.74Zm24.964 0h-5.002a3.74 3.74 0 0 0-3.739 3.653v5.06a3.74 3.74 0 0 0 3.652 3.739H59.266a3.74 3.74 0 0 0 3.74-3.652v-5.06a3.74 3.74 0 0 0-3.74-3.74ZM84.23 24.974H29.3a3.74 3.74 0 0 0-3.739 3.653v17.511a3.74 3.74 0 0 0 3.652 3.74H84.23a3.74 3.74 0 0 0 3.74-3.653V28.714a3.74 3.74 0 0 0-3.74-3.74Z" fill="#23221F"/></svg>