<svg width="128" height="128" fill="none" xmlns="http://www.w3.org/2000/svg"><path d="M37 72H27c-1.65 0-3-1.35-3-3V59c0-1.65 1.35-3 3-3h10c1.65 0 3 1.35 3 3v10c0 1.65-1.35 3-3 3Zm27-3V59c0-1.65-1.35-3-3-3H51c-1.65 0-3 1.35-3 3v10c0 1.65 1.35 3 3 3h10c1.65 0 3-1.35 3-3Zm24 0V59c0-1.65-1.35-3-3-3H75c-1.65 0-3 1.35-3 3v10c0 1.65 1.35 3 3 3h10c1.65 0 3-1.35 3-3ZM64 93V83c0-1.65-1.35-3-3-3H51c-1.65 0-3 1.35-3 3v10c0 1.65 1.35 3 3 3h10c1.65 0 3-1.35 3-3Zm-24 0V83c0-1.65-1.35-3-3-3H27c-1.65 0-3 1.35-3 3v10c0 1.65 1.35 3 3 3h10c1.65 0 3-1.35 3-3Zm48 0V83c0-1.65-1.35-3-3-3H75c-1.65 0-3 1.35-3 3v10c0 1.65 1.35 3 3 3h10c1.65 0 3-1.35 3-3Zm24-65v88c0 6.625-5.375 12-12 12H12c-6.625 0-12-5.375-12-12V28c0-6.625 5.375-12 12-12h12V3c0-1.65 1.35-3 3-3h10c1.65 0 3 1.35 3 3v13h32V3c0-1.65 1.35-3 3-3h10c1.65 0 3 1.35 3 3v13h12c6.625 0 12 5.375 12 12Zm-12 86.5V40H12v74.5c0 .825.675 1.5 1.5 1.5h85c.825 0 1.5-.675 1.5-1.5Z" fill="#23221F"/></svg>