<svg width="128" height="128" fill="none" xmlns="http://www.w3.org/2000/svg"><path fill-rule="evenodd" clip-rule="evenodd" d="M35.443 63.942c10.678 6.962 16.74 7.032 17.942 7.033h.035c1.116 0 7.215 0 17.989-7.033a21.037 21.037 0 0 1 3.516-1.865c-6.388 6.082-10.368 14.668-10.368 24.184 0 13.448 7.95 25.039 19.406 30.33H17.455c-14.106 0-14.388-13.483-14.394-23.933v-.636c0-10.53 7.203-21.047 10.798-24.557 3.595-3.523 10.786-10.543 21.584-3.523Zm63.34-3.838c14.599 0 26.434 11.836 26.434 26.435 0 14.6-11.835 26.435-26.434 26.435-14.6 0-26.435-11.835-26.435-26.435 0-14.6 11.835-26.435 26.435-26.435Zm2.226 9.461h-4.453a1.948 1.948 0 0 0-1.946 1.881l-.001.067v16.14c0 1.052.836 1.91 1.88 1.946l.067.001h16.14a1.947 1.947 0 0 0 1.946-1.88l.001-.068V83.2a1.948 1.948 0 0 0-1.88-1.947h-.067l-9.739-.001v-9.739a1.948 1.948 0 0 0-1.948-1.948ZM53.432 11.13c14.894 0 26.985 11.785 26.985 26.284 0 14.535-12.09 26.308-26.985 26.308-14.906 0-26.997-11.773-26.997-26.308 0-14.499 12.091-26.284 26.997-26.284Z" fill="#23221F"/></svg>