<svg width="64" height="64" fill="none" xmlns="http://www.w3.org/2000/svg"><path d="M38.435 30.81H50c1.935 0 3.5-1.565 3.5-3.5s-1.565-3.5-3.5-3.5h-6.665L53 10.01a3.498 3.498 0 0 0-.86-4.875 3.498 3.498 0 0 0-4.875.86L32.53 27.04 16.665 5.9a3.501 3.501 0 0 0-4.9-.7 3.501 3.501 0 0 0-.7 4.9L21.35 23.81H14a3.497 3.497 0 0 0-3.5 3.5c0 1.935 1.565 3.5 3.5 3.5h12.605L29 34v3.325H14a3.497 3.497 0 0 0-3.5 3.5c0 1.935 1.565 3.5 3.5 3.5h15V57c0 1.935 1.565 3.5 3.5 3.5S36 58.935 36 57V44.325h14c1.935 0 3.5-1.565 3.5-3.5s-1.565-3.5-3.5-3.5H36v-3.04l2.435-3.475Z" fill="#23221F"/></svg>