<svg width="85" height="16" viewBox="0 0 85 16" fill="none" xmlns="http://www.w3.org/2000/svg">
<path fill-rule="evenodd" clip-rule="evenodd" d="M55.5151 5.42397C55.3702 5.39871 55.2018 5.3844 55.0098 5.3844C54.5997 5.3844 54.2797 5.42397 53.9109 5.6345C53.5765 5.82566 53.313 6.03871 53.0957 6.43282L53.0384 5.78692C53.0337 5.72095 53.0042 5.65921 52.9557 5.61419C52.9073 5.56918 52.8435 5.54423 52.7774 5.5444H50.9416C50.9072 5.54428 50.8731 5.55098 50.8412 5.5641C50.8094 5.57723 50.7805 5.59651 50.7562 5.62085C50.7318 5.6452 50.7125 5.67411 50.6994 5.70594C50.6863 5.73776 50.6796 5.77187 50.6797 5.80629V13.9259C50.6796 13.9603 50.6863 13.9944 50.6994 14.0262C50.7125 14.058 50.7318 14.087 50.7562 14.1113C50.7805 14.1356 50.8094 14.1549 50.8412 14.1681C50.8731 14.1812 50.9072 14.1879 50.9416 14.1878H52.9096C52.944 14.1879 52.9781 14.1812 53.0099 14.1681C53.0418 14.1549 53.0707 14.1356 53.095 14.1113C53.1194 14.087 53.1387 14.058 53.1518 14.0262C53.1649 13.9944 53.1716 13.9603 53.1715 13.9259V9.03324C53.1715 8.62482 53.4528 8.11366 53.7744 7.87955C54.0675 7.66566 54.3959 7.51745 54.8405 7.47871C54.9643 7.46776 55.158 7.47619 55.4199 7.50061C55.5715 7.51492 55.7045 7.39618 55.7062 7.24292L55.7315 5.68755C55.7332 5.55703 55.6389 5.44755 55.5125 5.42482L55.5151 5.42397ZM61.4645 12.2871L61.0831 12.304C60.7631 12.304 60.5374 12.2425 60.4043 12.1204C60.2713 11.9983 60.2048 11.7667 60.2048 11.4257V7.50229H61.3888C61.4232 7.5024 61.4573 7.4957 61.4891 7.48258C61.5209 7.46946 61.5498 7.45017 61.5742 7.42583C61.5985 7.40149 61.6178 7.37257 61.6309 7.34075C61.6441 7.30892 61.6508 7.27482 61.6506 7.2404V5.64882C61.6508 5.61439 61.6441 5.58029 61.6309 5.54846C61.6178 5.51664 61.5985 5.48772 61.5742 5.46338C61.5498 5.43904 61.5209 5.41975 61.4891 5.40663C61.4573 5.39351 61.4232 5.38681 61.3888 5.38692H60.2048V3.66903C60.2049 3.6346 60.1982 3.6005 60.185 3.56867C60.1719 3.53685 60.1526 3.50793 60.1283 3.48359C60.104 3.45925 60.075 3.43996 60.0432 3.42684C60.0114 3.41372 59.9773 3.40702 59.9429 3.40713H57.9749C57.9404 3.40702 57.9063 3.41372 57.8745 3.42684C57.8427 3.43996 57.8138 3.45925 57.7894 3.48359C57.7651 3.50793 57.7458 3.53685 57.7327 3.56867C57.7195 3.6005 57.7128 3.6346 57.713 3.66903V5.38692H56.7917C56.7573 5.38681 56.7232 5.39351 56.6913 5.40663C56.6595 5.41975 56.6306 5.43904 56.6063 5.46338C56.5819 5.48772 56.5626 5.51664 56.5495 5.54846C56.5364 5.58029 56.5297 5.61439 56.5298 5.64882V7.2404C56.5297 7.27482 56.5364 7.30892 56.5495 7.34075C56.5626 7.37257 56.5819 7.40149 56.6063 7.42583C56.6306 7.45017 56.6595 7.46946 56.6913 7.48258C56.7232 7.4957 56.7573 7.5024 56.7917 7.50229H57.7121V11.728C57.7121 12.6332 57.9344 13.2968 58.3791 13.717C58.8237 14.1372 59.4654 14.3486 60.2991 14.3486C60.7277 14.3525 61.1549 14.2967 61.5681 14.1827C61.6776 14.1516 61.7534 14.0463 61.7534 13.9301V12.5465C61.7534 12.3907 61.6186 12.272 61.4637 12.2854L61.4645 12.2871ZM46.1997 12.2593C45.9412 12.4059 45.6422 12.4783 45.3012 12.4783C44.998 12.4783 44.7538 12.3974 44.5702 12.2341C44.3866 12.0707 44.2949 11.8602 44.2949 11.5991C44.2949 11.2261 44.4229 10.9187 44.678 10.6762C44.9332 10.4337 45.3264 10.3141 45.8603 10.3141H46.7555V11.7288C46.6435 11.9368 46.4582 12.1137 46.1997 12.2593ZM47.558 5.73303C47.0275 5.50145 46.4195 5.38524 45.7323 5.38524C44.9913 5.38524 44.3378 5.50818 43.7702 5.7524C43.2026 5.99661 42.7664 6.34187 42.4599 6.75871C42.2163 7.09165 42.0637 7.4823 42.017 7.89219C42.0001 8.04629 42.1239 8.18103 42.278 8.18103H44.2502C44.3782 8.18103 44.4801 8.08503 44.5029 7.95871C44.5316 7.76445 44.6286 7.5868 44.7765 7.45766C44.9702 7.28924 45.2439 7.20503 45.5951 7.20503C45.9892 7.20503 46.2805 7.31282 46.4709 7.5284C46.6612 7.74397 46.7546 8.04629 46.7546 8.43534V8.90692H45.8283C44.4978 8.90692 43.494 9.15366 42.8203 9.64629C42.1466 10.1389 41.8098 10.8404 41.8098 11.7516C41.8098 12.2467 41.9403 12.693 42.2014 13.0905C42.4624 13.488 42.8161 13.7962 43.2641 14.0168C43.7243 14.2405 44.2304 14.3538 44.742 14.3478C45.6473 14.3478 46.3614 14.0387 46.8826 13.4214V13.9267C46.8825 13.9611 46.8892 13.9952 46.9024 14.0271C46.9155 14.0589 46.9348 14.0878 46.9591 14.1121C46.9834 14.1365 47.0124 14.1558 47.0442 14.1689C47.076 14.182 47.1101 14.1887 47.1445 14.1886H49.0005C49.035 14.1887 49.0691 14.182 49.1009 14.1689C49.1327 14.1558 49.1616 14.1365 49.186 14.1121C49.2103 14.0878 49.2296 14.0589 49.2427 14.0271C49.2559 13.9952 49.2625 13.9611 49.2624 13.9267L49.2633 8.45303C49.2633 7.77934 49.1117 7.22608 48.8119 6.76713C48.5121 6.30818 48.0961 5.96461 47.5656 5.73303H47.558ZM80.9222 7.23703C80.6241 7.50145 80.1896 7.63282 79.6203 7.63282H77.7677V4.63745H79.6203C80.1955 4.63745 80.6309 4.76966 80.9256 5.03324C81.2203 5.29682 81.3685 5.66734 81.3685 6.14145C81.3685 6.60629 81.2195 6.97092 80.9222 7.23618V7.23703ZM84.1812 13.808L81.9075 9.35576C82.5812 9.05261 83.0822 8.63997 83.4334 8.11787C83.7845 7.59576 83.9605 6.91366 83.9605 6.07155C83.9605 5.31534 83.7862 4.67366 83.4384 4.14987C83.0906 3.62608 82.5879 3.22861 81.9361 2.95997C81.2843 2.69134 80.5104 2.55576 79.6153 2.55576H75.4275C75.3931 2.55565 75.359 2.56235 75.3271 2.57547C75.2953 2.5886 75.2664 2.60788 75.2421 2.63222C75.2177 2.65656 75.1984 2.68548 75.1853 2.7173C75.1722 2.74913 75.1655 2.78324 75.1656 2.81766V13.925C75.1655 13.9595 75.1722 13.9936 75.1853 14.0254C75.1984 14.0572 75.2177 14.0861 75.2421 14.1105C75.2664 14.1348 75.2953 14.1541 75.3271 14.1672C75.359 14.1803 75.3931 14.187 75.4275 14.1869H77.4991C77.5335 14.187 77.5676 14.1803 77.5994 14.1672C77.6312 14.1541 77.6602 14.1348 77.6845 14.1105C77.7088 14.0861 77.7281 14.0572 77.7413 14.0254C77.7544 13.9936 77.7611 13.9595 77.761 13.925V9.7524H79.3635L81.5226 14.0438C81.5444 14.0872 81.5779 14.1236 81.6192 14.1491C81.6606 14.1745 81.7082 14.1879 81.7568 14.1878H83.9462C84.1424 14.1878 84.2688 13.9806 84.1795 13.8063L84.1812 13.808ZM73.0165 2.54229H70.95C70.8052 2.54229 70.6873 2.66019 70.6873 2.80503V7.63197H66.2738V2.80503C66.2738 2.66019 66.1559 2.54229 66.0111 2.54229H63.937C63.7921 2.54229 63.6742 2.66019 63.6742 2.80503V13.925C63.6742 14.0699 63.7921 14.1878 63.937 14.1878H66.0111C66.1559 14.1878 66.2738 14.0699 66.2738 13.925V9.71955H70.689V13.925C70.689 14.0699 70.8069 14.1878 70.9517 14.1878H73.0182C73.1631 14.1878 73.281 14.0699 73.281 13.925V2.80503C73.281 2.66019 73.1631 2.54229 73.0182 2.54229H73.0165ZM6.50707 9.56545C6.57443 9.58903 6.64517 9.60082 6.71338 9.60082C6.97191 9.60082 7.21443 9.43913 7.30454 9.17976C7.41822 8.85303 7.24559 8.49597 6.9197 8.38229C6.53279 8.24729 6.20616 7.97968 5.9977 7.62688C5.78924 7.27408 5.7124 6.85888 5.7808 6.45484C5.84919 6.05081 6.05841 5.68403 6.37138 5.41951C6.68435 5.15498 7.08086 5.00979 7.49064 5.00966C7.85091 5.00958 8.20226 5.12168 8.49592 5.33038C8.78959 5.53908 9.01098 5.83403 9.12938 6.17429C9.24306 6.50103 9.60096 6.67366 9.92601 6.55997C10.2511 6.44629 10.4254 6.0884 10.3117 5.76334C10.0767 5.10026 9.61537 4.5413 9.00889 4.1848C8.40242 3.82831 7.68964 3.69711 6.99598 3.81429C6.30231 3.93148 5.6722 4.28954 5.21649 4.82549C4.76078 5.36143 4.50868 6.04091 4.50454 6.7444C4.50488 7.36405 4.69777 7.96828 5.05652 8.47352C5.41527 8.97876 5.92216 9.36088 6.50707 9.56545ZM37.8022 5.3844C37.238 5.3844 36.7395 5.49808 36.3083 5.72376C35.8753 5.9518 35.507 6.28584 35.238 6.69471C35.0309 6.25261 34.7344 5.92418 34.3513 5.70776C33.9681 5.49134 33.5092 5.3844 32.977 5.3844C32.4498 5.3844 31.9782 5.48292 31.5622 5.67913C31.149 5.87464 30.7878 6.16489 30.5079 6.52629L30.4473 5.78524C30.4422 5.71956 30.4124 5.65824 30.364 5.61358C30.3156 5.56891 30.2521 5.5442 30.1862 5.5444H28.3504C28.316 5.54428 28.2819 5.55098 28.2501 5.5641C28.2183 5.57723 28.1893 5.59651 28.165 5.62085C28.1407 5.6452 28.1214 5.67411 28.1082 5.70594C28.0951 5.73776 28.0884 5.77187 28.0885 5.80629V13.9259C28.0884 13.9603 28.0951 13.9944 28.1082 14.0262C28.1214 14.058 28.1407 14.087 28.165 14.1113C28.1893 14.1356 28.2183 14.1549 28.2501 14.1681C28.2819 14.1812 28.316 14.1879 28.3504 14.1878H30.3184C30.3529 14.1879 30.387 14.1812 30.4188 14.1681C30.4506 14.1549 30.4795 14.1356 30.5039 14.1113C30.5282 14.087 30.5475 14.058 30.5606 14.0262C30.5737 13.9944 30.5804 13.9603 30.5803 13.9259V8.51955C30.7193 8.2804 30.897 8.09513 31.1159 7.96376C31.3349 7.8324 31.59 7.7684 31.8822 7.7684C32.1483 7.7684 32.3664 7.80461 32.5374 7.87619C32.7083 7.94776 32.838 8.0825 32.929 8.2804C33.0199 8.47829 33.0637 8.7545 33.0637 9.11071V13.9276C33.0636 13.962 33.0703 13.9961 33.0834 14.0279C33.0965 14.0597 33.1158 14.0886 33.1402 14.113C33.1645 14.1373 33.1934 14.1566 33.2252 14.1697C33.2571 14.1829 33.2912 14.1896 33.3256 14.1894H35.2936C35.328 14.1896 35.3621 14.1829 35.3939 14.1697C35.4258 14.1566 35.4547 14.1373 35.479 14.113C35.5034 14.0886 35.5227 14.0597 35.5358 14.0279C35.5489 13.9961 35.5556 13.962 35.5555 13.9276V8.61387C35.6835 8.34776 35.8561 8.13976 36.0751 7.99071C36.294 7.84166 36.5568 7.76671 36.8666 7.76671C37.1328 7.76671 37.35 7.80292 37.5176 7.8745C37.6852 7.94608 37.8149 8.07997 37.905 8.2745C37.9951 8.46903 38.0397 8.74187 38.0397 9.09303V13.925C38.0396 13.9595 38.0463 13.9936 38.0594 14.0254C38.0725 14.0572 38.0918 14.0861 38.1162 14.1105C38.1405 14.1348 38.1694 14.1541 38.2012 14.1672C38.2331 14.1803 38.2672 14.187 38.3016 14.1869H40.278C40.3124 14.187 40.3465 14.1803 40.3784 14.1672C40.4102 14.1541 40.4391 14.1348 40.4635 14.1105C40.4878 14.0861 40.5071 14.0572 40.5202 14.0254C40.5333 13.9936 40.54 13.9595 40.5399 13.925V8.72334C40.5399 7.54103 40.3016 6.68882 39.8241 6.16671C39.3466 5.64461 38.6721 5.38355 37.7989 5.38355L37.8022 5.3844ZM13.718 10.8859C13.7178 11.8257 13.3444 12.727 12.6799 13.3916C12.0154 14.0562 11.1143 14.4298 10.1744 14.4303H4.78496C3.84499 14.4301 2.94358 14.0566 2.27892 13.3919C1.61426 12.7272 1.24076 11.8258 1.24054 10.8859V5.4964C1.24076 5.03026 1.3329 4.56874 1.51169 4.13825C1.69048 3.70777 1.95241 3.31676 2.28249 2.98762C2.61257 2.65848 3.00432 2.39767 3.43531 2.2201C3.86631 2.04254 4.32809 1.95171 4.79422 1.95282H10.1837C11.1234 1.95326 12.0244 2.32675 12.6889 2.9912C13.3533 3.65565 13.7268 4.55672 13.7273 5.4964V10.8859H13.718ZM13.5639 2.10692C13.1273 1.66937 12.61 1.32075 12.0405 1.0804C11.4499 0.830313 10.815 0.701997 10.1736 0.703132H4.78412C4.14276 0.701997 3.50777 0.830313 2.91717 1.0804C2.34772 1.32075 1.83036 1.66937 1.3938 2.10692C0.954222 2.5465 0.608117 3.0585 0.366433 3.63113C0.120214 4.22225 -0.0043706 4.85691 0.000117061 5.49724V10.8867C-0.00101867 11.5281 0.127297 12.1631 0.37738 12.7537C0.617981 13.3232 0.966896 13.8405 1.40475 14.277C1.84131 14.7146 2.35867 15.0632 2.92812 15.3036C3.51871 15.5536 4.1537 15.682 4.79506 15.6808H10.1845C10.8259 15.682 11.4609 15.5536 12.0515 15.3036C12.6209 15.0632 13.1383 14.7146 13.5749 14.277C14.0144 13.8374 14.3605 13.3254 14.6022 12.7528C14.8523 12.1622 14.9806 11.5272 14.9795 10.8859V5.4964C14.9806 4.85504 14.8523 4.22004 14.6022 3.62945C14.3605 3.0585 14.0153 2.54566 13.5749 2.10524L13.5639 2.10692ZM8.46075 6.81766C8.13401 6.70397 7.77696 6.87661 7.66328 7.2025C7.54959 7.5284 7.72222 7.88629 8.04812 7.99998C8.43503 8.13498 8.76165 8.40259 8.97011 8.75538C9.17858 9.10818 9.25542 9.52339 9.18702 9.92742C9.11862 10.3315 8.9094 10.6982 8.59643 10.9628C8.28346 11.2273 7.88695 11.3725 7.47717 11.3726C7.1169 11.3727 6.76555 11.2606 6.47189 11.0519C6.17823 10.8432 5.95683 10.5482 5.83843 10.208C5.72475 9.88124 5.36685 9.70861 5.0418 9.82229C4.71675 9.93598 4.54243 10.2922 4.65612 10.6189C4.89113 11.282 5.35245 11.841 5.95892 12.1975C6.5654 12.554 7.27817 12.6852 7.97184 12.568C8.6655 12.4508 9.29562 12.0927 9.75132 11.5568C10.207 11.0208 10.4591 10.3414 10.4633 9.63787C10.4629 9.01822 10.27 8.41398 9.9113 7.90874C9.55255 7.40351 9.04566 7.02223 8.46075 6.81766ZM24.454 7.44334L22.7563 6.76966C21.7517 6.3764 21.0258 6.09176 21.0258 5.39534C21.0258 4.69892 21.6043 4.28882 22.5753 4.28882C23.3921 4.28882 24.0928 4.51787 24.8658 5.04671C24.9204 5.08336 24.9867 5.09809 25.0517 5.08794C25.1166 5.07779 25.1753 5.04352 25.2161 4.99197L26.2578 3.68082C26.3462 3.56966 26.3285 3.40966 26.2216 3.31618C25.2473 2.46903 23.9092 1.9705 22.5753 1.9705C20.1096 1.9705 18.2502 3.51324 18.2502 5.55955C18.2502 7.62861 19.937 8.52376 20.662 8.81008L22.4271 9.55282C23.3702 9.94692 23.9934 10.208 23.9934 10.9254C23.9934 11.3574 23.7744 12.0817 22.3142 12.0817C21.4603 12.0817 20.4313 11.6859 19.5631 11.0316C19.4511 10.9473 19.2936 10.9625 19.206 11.0703L17.9909 12.5499C17.947 12.6028 17.9258 12.6708 17.9318 12.7392C17.9378 12.8076 17.9705 12.8709 18.0229 12.9153C19.185 13.872 20.7058 14.416 22.2502 14.416C25.3795 14.416 26.8043 12.4791 26.8043 10.6964C26.8043 9.12166 26.0582 8.0884 24.4574 7.44587L24.454 7.44334Z" fill="#00C4CC"/>
</svg>
