<svg width="128" height="128" fill="none" xmlns="http://www.w3.org/2000/svg"><title>SmartHR年末調整</title><path d="M62.27 98.02c-1.86 2.23-5.18 2.23-7.24 0l-14-14c-2.03-1.86-2.03-5.18 0-7.24 2.06-2.03 5.38-2.03 7.24 0l10.48 10.3 20.78-20.8c2.06-2.03 5.38-2.03 7.24 0 2.23 2.06 2.23 5.38 0 7.24l-24.5 24.5ZM43 8.75c2.91 0 5.25 2.35 5.25 5.25v8.75h31.5V14c0-2.9 2.34-5.25 5.25-5.25s5.25 2.35 5.25 5.25v8.75H99c7.72 0 14 6.27 14 14v70c0 7.72-6.28 14-14 14H29c-7.73 0-14-6.28-14-14v-70c0-7.73 6.27-14 14-14h8.75V14c0-2.9 2.34-5.25 5.25-5.25Zm59.5 42h-77v56c0 1.93 1.57 3.5 3.5 3.5h70c1.92 0 3.5-1.57 3.5-3.5v-56Z" fill="#23221F"/></svg>