<svg xmlns="http://www.w3.org/2000/svg" width="32" height="32" viewBox="0 0 32 32">
  <g fill="none" fill-rule="evenodd">
    <rect width="32" height="32" fill="#00C4CC" rx="10"/>
    <path fill="#FFF" d="M25.9966142,20.317649 C25.9966142,23.4540779 23.4540262,25.9965625 20.317649,25.9965625 L11.682351,25.9965625 C8.54597382,25.9965625 6.00338584,23.4540779 6.00338584,20.317649 L6.00338584,11.682351 C6.00338584,8.54597382 8.54597382,6.00343754 11.682351,6.00343754 L20.317649,6.00343754 C23.4540262,6.00343754 25.9966142,8.54597382 25.9966142,11.682351 L25.9966142,20.317649 Z M25.7498869,6.25011308 C25.0449594,5.5452372 24.2236725,4.99156124 23.3086158,4.60454117 C22.3601659,4.20340911 21.3538724,4 20.317649,4 L11.682351,4 C10.6461276,4 9.63983407,4.20340911 8.69143588,4.60454117 C7.77637921,4.99156124 6.95498895,5.5452372 6.25011308,6.25011308 C5.5452372,6.95498895 4.99161293,7.77637921 4.60459286,8.69138419 C4.20340911,9.63983407 4,10.6461276 4,11.682351 L4,20.317649 C4,21.3538724 4.20340911,22.3601659 4.60459286,23.3085641 C4.99161293,24.2236208 5.5452372,25.045011 6.25011308,25.7498869 C6.95498895,26.4547628 7.77637921,27.0084388 8.69143588,27.3954588 C9.63983407,27.7965909 10.6461276,27.9999483 11.682351,27.9999483 L20.317649,27.9999483 C21.3538724,27.9999483 22.3601659,27.7965909 23.3086158,27.3954588 C24.2236725,27.0084388 25.0449594,26.4547628 25.7498869,25.7498869 C26.4547628,25.045011 27.0083871,24.2236208 27.3954588,23.3085641 C27.7965909,22.3601659 28,21.3538724 28,20.317649 L28,11.682351 C28,10.6461276 27.7965909,9.63983407 27.3954588,8.69138419 C27.0083871,7.77637921 26.4547628,6.95498895 25.7498869,6.25011308 L25.7498869,6.25011308 Z M14.4257634,18.2018842 C14.5350409,18.2399814 14.6464378,18.2580737 14.7560254,18.2580737 C15.1708042,18.2580737 15.5589098,17.9987852 15.703183,17.5849886 C15.8855533,17.0619144 15.6093615,16.4899911 15.0862873,16.307569 C13.9717502,15.9188948 13.2228842,14.8641139 13.2228842,13.6827387 C13.2228842,12.1504762 14.4694434,10.9039687 16.0016542,10.9039687 C17.184115,10.9039687 18.2393094,11.6537651 18.6273116,12.7697497 C18.8092167,13.2930823 19.3811401,13.5698427 19.9041625,13.3877825 C20.4273917,13.2058774 20.7041522,12.6342642 20.5221954,12.1109833 C19.8540727,10.1890645 18.0373477,8.89779145 16.0016542,8.89779145 C13.3632287,8.89779145 11.2167586,11.0443132 11.2167586,13.6827387 C11.2167586,15.7164679 12.5063258,17.5325726 14.4257634,18.2018842 L14.4257634,18.2018842 Z M17.5742366,13.7981158 C17.0512141,13.6157972 16.4792391,13.8918339 16.296817,14.4150114 C16.114395,14.9381373 16.3906385,15.5100089 16.9137127,15.692431 C18.0282498,16.0810535 18.7771675,17.1358861 18.7771675,18.3172097 C18.7771675,19.8494721 17.5305566,21.0960313 15.9983458,21.0960313 C14.815885,21.0960313 13.7606906,20.3461832 13.3726884,19.2301986 C13.1907833,18.7069177 12.619015,18.4301573 12.0958892,18.6121658 C11.5726083,18.7940709 11.2958995,19.3657358 11.4778563,19.8890167 C12.145979,21.8109355 13.9626523,23.1021569 15.9983458,23.1021569 C18.636823,23.1021569 20.7832931,20.9556868 20.7832931,18.3172097 C20.7832931,16.2834804 19.4936742,14.4674274 17.5742366,13.7981158 L17.5742366,13.7981158 Z"/>
  </g>
</svg>
