<svg width="128" height="128" fill="none" xmlns="http://www.w3.org/2000/svg"><title>SmartHR CSV</title><path d="M79 12V41.0002H108L79 12Z" fill="#23221F"/><path d="M77.4561 48.3337C74.1028 48.3337 71.3944 45.6384 71.3944 42.3013V10H23.6748C20.5364 10 18 12.5242 18 15.6474V111.353C18 114.477 20.5364 117.001 23.6748 117.001H104.325C107.464 117.001 110 114.477 110 111.353V48.3337H77.4561ZM50.7589 86.5391C49.6841 88.0366 48.3084 89.1489 46.6318 89.8762C44.9981 90.6036 43.2785 90.9458 41.5159 90.9458C39.5383 90.9458 37.6897 90.6463 36.0561 90.0046C34.3794 89.4056 32.9178 88.5072 31.714 87.352C30.5103 86.1969 29.5215 84.785 28.8336 83.1593C28.1458 81.5335 27.8019 79.6938 27.8019 77.683C27.8019 75.6722 28.1458 73.8325 28.8336 72.2068C29.5215 70.581 30.4673 69.1692 31.714 68.014C32.9178 66.8589 34.3794 65.9604 36.0561 65.3615C37.7327 64.7625 39.5813 64.4202 41.5159 64.4202C42.2467 64.4202 42.9776 64.5058 43.7514 64.6341C44.5252 64.7625 45.2991 64.9764 46.0729 65.2759C46.8467 65.5754 47.5776 65.9604 48.2654 66.431C48.9533 66.9017 49.5981 67.5006 50.157 68.1852C50.243 68.3135 50.243 68.4846 50.114 68.5702L45.9009 71.9929C45.772 72.0784 45.6 72.0784 45.514 71.9501C44.9981 71.3511 44.3533 70.8377 43.6224 70.5382C42.8916 70.196 41.9888 70.0248 41 70.0248C40.0112 70.0248 39.0654 70.196 38.2486 70.581C37.3888 70.9661 36.6579 71.4795 36.0561 72.164C35.4542 72.8485 34.9383 73.6614 34.5944 74.6026C34.2505 75.5439 34.0785 76.5707 34.0785 77.683C34.0785 78.7954 34.2505 79.865 34.5944 80.8062C34.9383 81.7474 35.4112 82.5603 36.0561 83.2448C36.6579 83.9294 37.3888 84.4428 38.2056 84.8278C39.0224 85.2129 39.9252 85.384 40.871 85.384C41.9458 85.384 42.8916 85.1701 43.7514 84.6995C44.5682 84.2716 45.2561 83.6299 45.815 82.817C45.8579 82.7742 45.9009 82.7314 45.9869 82.6887C46.0729 82.6887 46.1159 82.6887 46.2019 82.7314L50.7589 86.1113C50.8449 86.2824 50.8449 86.4536 50.7589 86.5391ZM71.9533 86.2824C71.4374 87.352 70.7065 88.2505 69.8037 88.935C68.9009 89.6195 67.8262 90.1329 66.6654 90.4752C65.5047 90.8175 64.215 90.9886 62.9252 90.9886C61.2916 90.9886 59.7439 90.7319 58.3252 90.2185C56.9065 89.7051 55.5738 88.8922 54.3701 87.7799C54.2411 87.6943 54.2411 87.5232 54.3701 87.3948L58.2822 83.1165C58.3252 83.0737 58.4112 83.0309 58.4972 83.0309C58.5832 83.0309 58.6692 83.0737 58.7121 83.1165C59.228 83.8438 59.9159 84.4 60.7327 84.785C61.9365 85.384 63.2262 85.5124 64.5589 85.2129C64.9888 85.1273 65.3757 84.9562 65.7196 84.785C66.0636 84.6139 66.3215 84.3572 66.4935 84.0577C66.7084 83.7582 66.7944 83.4588 66.7944 83.0309C66.7944 82.3464 66.5364 81.8758 66.0206 81.4907C65.4617 81.0629 64.7738 80.7206 63.914 80.4212C63.0542 80.1217 62.1084 79.8222 61.1196 79.5227C60.0879 79.2232 59.1421 78.7954 58.2393 78.282C57.3364 77.7686 56.6056 77.0413 56.0037 76.1856C55.4019 75.2872 55.1009 74.132 55.1009 72.7202C55.1009 71.3511 55.3589 70.1104 55.9178 69.0836C56.4766 68.0568 57.2075 67.1584 58.1103 66.4738C59.0131 65.7893 60.0879 65.2331 61.2486 64.8908C62.4093 64.5486 63.6561 64.3774 64.8598 64.3774C66.2785 64.3774 67.6972 64.5914 69.0299 64.9764C70.3626 65.4042 71.6093 66.0888 72.6841 67.03C72.7271 67.0728 72.7701 67.1584 72.7701 67.2011C72.7701 67.2867 72.7271 67.3295 72.6841 67.4151L68.9009 71.5222C68.8579 71.565 68.772 71.6078 68.686 71.6078C68.6 71.6078 68.514 71.565 68.471 71.5222C68.0411 71.0088 67.4822 70.6238 66.7944 70.3671C66.0636 70.1104 65.3757 69.982 64.7308 69.982C64.3439 69.982 63.957 70.0248 63.5701 70.1104C63.1832 70.196 62.7963 70.3243 62.4523 70.5382C62.1084 70.7094 61.8505 70.9661 61.6355 71.2655C61.4206 71.565 61.3346 71.9073 61.3346 72.2923C61.3346 72.9341 61.5925 73.4475 62.0654 73.7898C62.6243 74.1748 63.3122 74.5171 64.129 74.7738C64.9888 75.0305 65.8916 75.3299 66.8804 75.6294C67.8692 75.9289 68.815 76.314 69.7178 76.8274C70.6206 77.3408 71.3514 78.0681 71.9533 78.9665C72.5551 79.865 72.8561 81.1057 72.8561 82.5603C72.7701 83.9722 72.4692 85.2129 71.9533 86.2824ZM101.101 65.4042L90.8262 90.2185C90.7832 90.3041 90.6972 90.3896 90.5682 90.3896H86.1832C86.0542 90.3896 85.9682 90.3041 85.9252 90.2185L75.9514 65.4042C75.9084 65.3187 75.9084 65.2331 75.9944 65.1475C76.0374 65.062 76.1234 65.0192 76.2093 65.0192H82.486C82.615 65.0192 82.7009 65.1048 82.7439 65.1903L88.6766 80.8918L94.7383 65.1903C94.7813 65.1048 94.8673 65.0192 94.9963 65.0192H100.886C100.972 65.0192 101.058 65.062 101.101 65.1475C101.144 65.2331 101.144 65.3187 101.101 65.4042Z" fill="#23221F"/></svg>