<svg width="128" height="128" fill="none" xmlns="http://www.w3.org/2000/svg"><title>SmartHR API</title><path d="M118.691 39.6915L109.563 30.586C109.466 30.4833 109.35 30.4014 109.22 30.3454C109.091 30.2895 108.952 30.2606 108.811 30.2606C108.67 30.2606 108.531 30.2895 108.401 30.3454C108.272 30.4014 108.156 30.4833 108.059 30.586L94.0766 44.545L83.3373 33.8073L97.3199 19.8483C97.518 19.644 97.6288 19.3705 97.6288 19.0859C97.6288 18.8013 97.518 18.5279 97.3199 18.3236L88.2989 9.32539C88.2025 9.22267 88.086 9.1408 87.9567 9.08484C87.8274 9.02887 87.688 9 87.5471 9C87.4062 9 87.2668 9.02887 87.1375 9.08484C87.0082 9.1408 86.8918 9.22267 86.7954 9.32539L72.8128 23.2844L65.1235 15.5962C64.944 15.4655 64.72 15.4115 64.5006 15.4459C64.3516 15.4449 64.2039 15.4749 64.0671 15.534C63.9303 15.5932 63.8073 15.6802 63.7059 15.7895L52.2149 27.1714C38.7693 40.6364 28.5885 55.0894 43.3657 74.0091L9 108.37L19.7393 119L54.105 84.6394C60.7204 89.815 66.7773 91.9625 72.4477 91.9625C83.0151 91.9625 92.165 84.5321 100.928 75.7701L112.419 64.2808C112.606 64.0919 112.71 63.8374 112.71 63.5721C112.71 63.3069 112.606 63.0523 112.419 62.8634L104.709 55.1753L118.691 41.2163C118.889 41.0119 119 40.7385 119 40.4539C119 40.1693 118.889 39.8959 118.691 39.6915V39.6915Z" fill="#23221F"/></svg>