<svg width="128" height="128" fill="none" xmlns="http://www.w3.org/2000/svg"><title>SmartHRカスタム社員名簿機能</title><path fill-rule="evenodd" clip-rule="evenodd" d="M97.974 14.748c3.033 0 5.743 1.358 7.357 3.621 1.678 2.329 2.065 5.369 1.161 8.408L88.81 85.372c-3.033 9.96-4.71 12.158-12.907 12.158h-56.08c-.839 0-1.871.194-2.452.97-.516.777-.58 1.359-.064 2.782 1.29 3.751 5.743 4.527 9.292 4.527h59.565c2.388 0 5.163-1.358 5.873-3.687l19.36-63.833c.387-1.229.387-2.522.323-3.686 1.484.582 2.839 1.487 3.807 2.78 1.613 2.329 2.065 5.369 1.162 8.344L98.942 104.32c-1.613 5.497-7.292 9.766-12.842 9.766H26.535c-6.583 0-13.617-5.239-16.005-11.965-1.032-2.91-1.032-5.756-.129-8.213.13-1.294.388-2.587.452-4.14.065-1.034-.516-1.875-.387-2.651.258-1.552 1.613-2.652 2.646-4.398 1.936-3.234 4.13-8.472 4.84-11.835.322-1.229-.323-2.652 0-3.751.189-.72.689-1.33 1.2-1.945l.18-.218c.3-.364.591-.734.814-1.136 1.742-2.975 4.001-8.73 4.324-11.77.129-1.358-.517-2.846-.13-3.88.453-1.488 1.872-2.135 2.84-3.428 1.549-2.135 4.13-8.279 4.518-11.706.129-1.1-.517-2.2-.323-3.364.258-1.228 1.807-2.522 2.84-4.01 2.71-4.01 3.226-12.87 11.422-10.541l-.065.194c1.097-.259 2.194-.582 3.292-.582h49.11ZM75.15 54.69c-.974-1.291-2.935-3.864-7.566-1.291-4.488 2.5-6.724 2.575-7.227 2.577h-.09c-.511-.003-2.695-.087-5.851-2.577-3.273-2.573-6.587 0-8.245 1.29-1.657 1.287-5.316 5.142-6.337 9.001-1.022 3.86-2.385 9.006 2.885 9.006h26.347c5.266 0 6.628-5.146 7.65-9.006 1.022-3.859-.59-7.714-1.566-9Zm-8.047-23.253c-5.44 0-10.995 4.363-12.4 9.73-1.407 5.382 1.865 9.74 7.305 9.74 5.436 0 10.989-4.358 12.397-9.74 1.404-5.367-1.867-9.73-7.302-9.73Z" fill="#23221F"/></svg>