<svg width="128" height="128"  fill="none" xmlns="http://www.w3.org/2000/svg"><title>SmartHR 源泉徴収票</title><path fill-rule="evenodd" clip-rule="evenodd" d="M88.2319 15C89.7799 15 91.2477 15.5932 92.3747 16.6684L92.4705 16.7618L117.959 42.2152C119.073 43.3307 119.726 44.872 119.76 46.4671L119.761 46.5965L120 107.121C120 110.472 117.346 113.208 114.06 113.263L113.959 113.264H14.2854C10.9871 113.264 8.29403 110.562 8.23996 107.223L8.23913 107.121L8 21.1431C8 17.792 10.6597 15.0558 13.9455 15.0008L14.0463 15H88.2319ZM87.7052 22.0189H14.9999V106.245H112.999V52.434H105.999V96.7887L21.9999 96.8868V45.6703L30.5248 45.5722H88.0794C87.9143 44.9374 87.7052 44.3199 87.7052 43.6331V22.0189ZM47.6663 80.5094H28.9998V89.8679H47.6663V80.5094ZM98.9991 80.5094H80.3326V89.8679H98.9991V80.5094ZM73.3327 80.5094H54.6662V89.8679H73.3327V80.5094ZM47.6663 66.4717H28.9998V75.8302H47.6663V66.4717ZM98.9991 66.4717H80.3326V75.8302H98.9991V66.4717ZM73.3327 66.4717H54.6662V75.8302H73.3327V66.4717ZM47.6663 52.434H28.9998V61.7925H47.6663V52.434ZM98.9991 52.434H80.3326V61.7925H98.9991V52.434ZM73.3327 52.434H54.6662V61.7925H73.3327V52.434ZM94.3133 26.6981L94.3134 43.6684C94.3144 44.6664 94.3325 45.4151 94.3325 45.4151H112.999L94.3133 26.6981ZM62.6375 29.2277C65.0232 29.2277 66.9612 31.1172 66.9612 33.4445C66.9612 35.7829 65.0232 37.6669 62.6375 37.6669C60.2462 37.6669 58.3083 35.7829 58.3083 33.4445C58.3083 31.1172 60.2462 29.2277 62.6375 29.2277ZM78.1765 29.2277C80.5678 29.2277 82.5058 31.1172 82.5058 33.4445C82.5058 35.7829 80.5678 37.6669 78.1765 37.6669C75.7909 37.6669 73.8529 35.7829 73.8529 33.4445C73.8529 31.1172 75.7909 29.2277 78.1765 29.2277ZM47.0878 29.2277C49.4791 29.2277 51.4228 31.1172 51.4228 33.4445C51.4228 35.7829 49.4791 37.6669 47.0878 37.6669C44.7022 37.6669 42.7642 35.7829 42.7642 33.4445C42.7642 31.1172 44.7022 29.2277 47.0878 29.2277ZM31.5488 29.2277C33.9345 29.2277 35.8781 31.1172 35.8781 33.4445C35.8781 35.7829 33.9345 37.6669 31.5488 37.6669C29.1632 37.6669 27.2195 35.7829 27.2195 33.4445C27.2195 31.1172 29.1632 29.2277 31.5488 29.2277Z" fill="#23221F"/></svg>