<svg width="128" height="128" fill="none" xmlns="http://www.w3.org/2000/svg"><title>SmartHR人事評価機能</title><path d="M26.602 16.028v89.962H59.91L58.769 112H26.602a6.02 6.02 0 0 1-6.01-6.01V16.028c0-3.311 2.698-6.01 6.01-6.01h71.986a6.02 6.02 0 0 1 6.01 6.01v44.104a13.847 13.847 0 0 0-6.01 2.365v-46.47H26.602Z" fill="#23221F"/><path d="M35.59 93.996h31.36l-4.146 4.174c-.557.53-1.002 1.17-1.364 1.837H35.59a1.805 1.805 0 0 1-1.809-1.809v-2.393c0-1.002.807-1.809 1.809-1.809ZM33.781 83.812c0-1.002.807-1.809 1.809-1.809h43.38l-6.01 6.01H35.59a1.805 1.805 0 0 1-1.809-1.808v-2.393Z" fill="#23221F"/><path fill-rule="evenodd" clip-rule="evenodd" d="M90.685 69.983a8.05 8.05 0 0 0-1.308 1.725c-.361.278-.695.556-1.057.918l-3.395 3.395H35.562a1.805 1.805 0 0 1-1.809-1.809V25.016c0-1.002.807-1.81 1.809-1.81h53.983c1.001 0 1.808.808 1.808 1.81v44.299l-.668.668Zm-13.94-.14c1.947 0 3.533-1.363 3.533-3.033v-3.033c0-5.008-4.758-9.099-10.63-9.099h-.778a16.256 16.256 0 0 1-6.289 1.252 16.36 16.36 0 0 1-6.289-1.252h-.779c-5.871 0-10.63 4.063-10.63 9.1v3.032c0 1.67 1.587 3.033 3.534 3.033h28.328ZM72.71 39.485c0-5.593-4.536-10.128-10.129-10.128s-10.129 4.535-10.129 10.128 4.536 10.129 10.129 10.129S72.71 45.078 72.71 39.485Z" fill="#23221F"/><path d="m106.491 90.74-12.41-12.41-25.517 25.545-2.004 10.574 3.534 3.534 10.852-1.698 25.545-25.544ZM114.783 73.572l-3.785-3.784c-2.393-2.393-6.26-2.393-8.626 0l-5.927 5.927 12.411 12.41 5.927-5.927c2.393-2.365 2.393-6.233 0-8.626Z" fill="#23221F"/></svg>