<svg width="128" height="128" fill="none" xmlns="http://www.w3.org/2000/svg"><title>SmartHR従業員サーベイ機能</title><path fill-rule="evenodd" clip-rule="evenodd" d="M90.082 67.06H74.37c-1.578 0-2.857-1.307-2.857-2.92 0-1.615 1.279-2.923 2.857-2.923h15.712c1.578 0 2.857 1.308 2.857 2.922s-1.279 2.922-2.857 2.922Zm0 28.383H74.37c-1.578 0-2.857-1.307-2.857-2.921 0-1.614 1.279-2.922 2.857-2.922h15.712c1.578 0 2.857 1.308 2.857 2.922s-1.279 2.921-2.857 2.921Zm-26.32-38.83L50.372 70.35l-2.514 2.58a1.691 1.691 0 0 1-1.258.532c-.494 0-.912-.177-1.257-.531l-2.516-2.581-6.694-6.867a1.78 1.78 0 0 1-.517-1.29c0-.507.172-.936.517-1.29l2.517-2.58a1.685 1.685 0 0 1 1.256-.532c.493 0 .912.177 1.258.532l5.436 5.597 12.13-12.466a1.696 1.696 0 0 1 1.257-.531c.493 0 .913.178 1.257.531l2.516 2.58c.345.354.517.784.517 1.29s-.172.937-.517 1.29Zm0 28.66L50.372 99.01l-2.514 2.58a1.69 1.69 0 0 1-1.258.532c-.494 0-.912-.177-1.257-.532l-2.516-2.58-6.694-6.868a1.78 1.78 0 0 1-.517-1.29c0-.506.172-.936.517-1.289l2.517-2.58a1.685 1.685 0 0 1 1.256-.532c.493 0 .912.177 1.258.532l5.436 5.597 12.13-12.466a1.696 1.696 0 0 1 1.257-.531c.493 0 .913.177 1.257.53l2.516 2.58c.345.355.517.785.517 1.291 0 .506-.172.937-.517 1.29Zm31.46-61.343h-2.566v3.418c0 5.654-4.605 10.252-10.266 10.252H45.888c-5.66 0-10.266-4.598-10.266-10.252V23.93h-2.566c-5.04 0-9.126 4.08-9.126 9.114v78.886c0 5.033 4.086 9.114 9.126 9.114h62.166c5.04 0 9.126-4.081 9.126-9.114V33.044c0-5.033-4.086-9.113-9.126-9.113Zm-49.448 7.792h36.73c2.536 0 4.592-2.04 4.592-4.555v-6.832c0-2.515-2.056-4.554-4.592-4.554h-9.47c0-.998-.174-1.953-.481-2.847a8.763 8.763 0 0 0-1.623-2.846 8.898 8.898 0 0 0-6.79-3.131 8.897 8.897 0 0 0-6.791 3.13 8.761 8.761 0 0 0-1.623 2.847 8.725 8.725 0 0 0-.483 2.847h-9.47c-2.535 0-4.59 2.04-4.59 4.554v6.832c0 2.515 2.055 4.555 4.59 4.555Z" fill="#23221F"/></svg>