<svg width="128" height="128" fill="none" xmlns="http://www.w3.org/2000/svg"><title>SmartHR給与明細機能</title><path fill-rule="evenodd" clip-rule="evenodd" d="M63.812 17.53c25.204 0 39.767 17.181 43.687 34.362a93.432 93.432 0 0 1 1.243 6.38c.64-.084 1.286-.215 1.915-.402-1.146-1.928-1.837-4.188-1.859-6.325-.032-2.948.497-5.317 1.527-7.028 1.042-1.732 2.618-2.772 4.305-2.752 1.728.021 3.236 1.204 4.235 3.06.942 1.75 1.463 4.125 1.493 6.995.001.094-.004.188-.014.281-.3 2.565-1.179 4.653-2.522 6.285.815.088 1.622-.283 2.473-1.166a2.213 2.213 0 0 1 3.132-.056c.881.85.906 2.254.056 3.136-2.938 3.048-6.588 3.263-9.647 1.104-.439.202-.896.383-1.369.543a16.59 16.59 0 0 1-3.194.731c.829 10.133-1.691 16.3-6.814 23.576-6.722 9.545-10.642 23.778-11.763 26.323-1.088 2.472-2.704 2.543-3.823 2.545h-7.939c-1.1 0-2.202-1.845-2.239-3.116V104.071s-.078.025-.227.068l-.068.02c-1.018.287-4.612 1.185-9.788 1.185-6.16 0-12.882-1.273-12.882-1.273l-.067.549-.014.113-.007.06-.016.127c-.1.787-.263 2.025-.455 3.294l-.033.212a50.224 50.224 0 0 1-.528 2.956c-.551 2.504-1.644 3.776-3.279 3.817l-.082.001h-4.644c-2.705 0-3.596-.825-4.132-1.81l-.048-.09a8.672 8.672 0 0 1-.219-.459l-.062-.14-.02-.046c-.56-1.273-5.6-16.22-5.6-16.22s-18.32-8.908-22.801-12.726C7.242 79.89 6.122 65.255 6.122 61.437c0-3.246 2.429-4.652 5.222-5.783l.196-.078.198-.079.2-.078.602-.23.202-.077.1-.038c3.361-1.273 6.162-5.09 9.522-14.636.547-1.552 1.346-3.206 2.408-4.887-1.946-3.465-3.839-9.123-3.839-18.02 6.835 1.56 11.808 4.183 15.394 6.963 6.675-4.064 15.743-6.964 27.485-6.964ZM50.299 36.335H39.05L50.6 55.907h-8.25v3.622h10.424l4.2 7.104H42.35v3.622h15.449v20.13h10.199v-20.13H83.82v-3.622H68.823l4.274-7.104h10.724v-3.622h-8.549l11.774-19.572H76.697l-11.174 20.06c-.825 1.323-1.2 2.02-1.875 3.343-.675-1.254-1.05-2.02-1.8-3.274L50.3 36.334Zm64.225 9.96a2.12 2.12 0 0 0-.404.51c-.564.938-.916 2.51-.892 4.692.014 1.322.47 2.79 1.196 4.036.788-.972 1.297-2.222 1.502-3.809-.038-2.127-.402-3.756-.962-4.796a2.807 2.807 0 0 0-.44-.632Z" fill="#23221F"/></svg>