<svg width="128" height="128" fill="none" xmlns="http://www.w3.org/2000/svg"><title>SmartHRマイナンバー機能</title><path fill-rule="evenodd" clip-rule="evenodd" d="m43.755 7.235.13.001c4.073.075 9.27 2.962 11.64 10.843 3.42 11.377 3.337 26.78 2.779 39.362a76.82 76.82 0 0 1 5.695-.207c1.751 0 3.465.057 5.14.169l.233-2.44.048-.496c.214-2.226.566-5.892.889-9.656l.047-.551c.35-4.139.654-8.318.689-10.765l-.35.06c-2.912.504-8.976 1.552-11.516-3.994-1.805-3.933-.969-8.39 2.353-12.546 2.366-2.962 6.025-5.795 9.787-7.578 5.154-2.441 9.985-2.682 13.971-.696 3.824 1.905 6.425 5.64 7.523 10.8 1.14 5.356.527 13.805-1.824 25.11a200.126 200.126 0 0 1-1.71 7.472l-.142.568a221.926 221.926 0 0 1-2.317 8.51c3.088 1.242 5.896 2.765 8.382 4.563 7.986 5.78 12.207 13.958 12.207 23.65 0 9.694-4.221 17.873-12.207 23.653C87.49 118.65 76.7 121.6 63.999 121.6c-12.7 0-23.49-2.95-31.201-8.533-7.986-5.78-12.207-13.96-12.207-23.653 0-9.692 4.221-17.87 12.207-23.65 2.297-1.662 4.869-3.09 7.682-4.277a715.247 715.247 0 0 0-1.078-3.373c-1.438-4.473-2.795-8.697-3.656-12.482-1.937-8.545-4.862-21.44-1.732-30.636 1.632-4.798 5.498-7.844 9.872-7.76l-.131-.001Zm20.244 55.702c-17.405 0-37.73 6.935-37.73 26.477 0 19.546 20.325 26.482 37.73 26.482 17.406 0 37.731-6.936 37.731-26.482 0-19.542-20.325-26.477-37.731-26.477Zm9.535 38.512c.81 0 1.467.66 1.467 1.476 0 5.046-4.936 9.152-11.002 9.152-6.065 0-11-4.106-11-9.152 0-.816.657-1.476 1.466-1.476.81 0 1.466.66 1.466 1.476 0 3.419 3.62 6.202 8.068 6.202 4.45 0 8.07-2.783 8.07-6.202a1.47 1.47 0 0 1 1.465-1.476Zm-9.536-7.95c.148 0 .3.002.453.005l.132.004c1.474.051 3.054.387 3.054 2.391 0 2.263-2.41 2.959-3.64 2.959-1.227 0-3.637-.696-3.637-2.959 0-2.273 2.03-2.4 3.638-2.4ZM48.299 73.545v18.147h-4.141v-14.37H40.45v-3.777h7.85Zm35.881 0v18.147h-4.143v-14.37h-3.705v-3.777h7.848Zm-40.392-61c-2.06-.022-3.871 1.522-4.774 4.169-2.643 7.772.081 19.78 1.884 27.727.804 3.54 2.13 7.669 3.534 12.042.345 1.072.689 2.15 1.03 3.227a57.225 57.225 0 0 1 5.149-1.252 61.372 61.372 0 0 1 2.376-.415c.569-12.31.743-27.569-2.523-38.429-1.276-4.243-3.897-7.017-6.676-7.068Zm39.153.953c-2.486-1.239-5.726-.983-9.367.743-5.168 2.449-11.792 8.307-9.594 13.1.786 1.712 2.812 1.499 5.819.98l.646-.11.164-.026.332-.05.166-.024c2.083-.289 4.236-.253 4.917 1.946.745 2.404-.126 12.27-1.343 24.92l-.284 2.974c2.59.373 5.064.892 7.413 1.551a199.087 199.087 0 0 0 2.37-8.752 213.248 213.248 0 0 0 .935-3.95 182.337 182.337 0 0 0 1.007-4.747 152.569 152.569 0 0 0 .747-4.085 121.371 121.371 0 0 0 .512-3.344 95.414 95.414 0 0 0 .322-2.598c.07-.638.13-1.267.182-1.885.07-.823.122-1.627.156-2.406.026-.584.04-1.155.045-1.71a37.982 37.982 0 0 0-.044-2.13c-.063-1.19-.192-2.279-.398-3.244-.75-3.52-2.375-5.993-4.703-7.153Z" fill="#23221F"/></svg>