<svg width="128" height="128" fill="none" xmlns="http://www.w3.org/2000/svg"><title>SmartHR年末調整機能</title><path fill-rule="evenodd" clip-rule="evenodd" d="M64 8.348c30.736 0 55.652 24.916 55.652 55.652S94.736 119.652 64 119.652 8.348 94.736 8.348 64 33.264 8.348 64 8.348Zm6.735 20.083c.378 3.508.533 6.042.539 10.692v2.74h-3.852c-6.87 0-9.227-.15-9.753-.155h-.03c-.752 0-.844.074-.848.872v5.805c0 .757.073.85.791.854h.087c.524-.006 2.91-.152 9.621-.155h3.907a170.652 170.652 0 0 1-.616 12.267h-4.314c-7.242 0-9.784-.155-10.246-.155-.77 0-.848.078-.848.854v5.823c0 .776.078.854.848.854.453 0 2.903-.15 9.817-.155h3.664c-.231 1.242-.616 2.329-.924 3.338-3.313 8.852-9.476 15.684-19.722 20.498 1.695 1.63 2.85 2.95 3.93 4.891.616 1.242.924 1.786 1.463 1.786.385 0 .847-.233 1.695-.699 10.4-6.056 16.794-14.519 19.644-23.137 3.929 9.317 9.63 16.382 18.335 22.36.847.544 1.31.855 1.694.855.54 0 .77-.621 1.387-1.864 1.001-2.096 2.388-4.347 3.775-5.667-9.784-5.28-16.948-12.345-20.877-22.361h7.901c6.914.006 9.364.155 9.817.155.77 0 .848-.078.848-.854V62.05c0-.776-.077-.854-.848-.854-.457 0-2.953.152-10.03.155h-9.229c.385-3.804.617-7.842.77-12.267h5.701c6.795 0 9.298.149 9.83.155h.031c.77 0 .847-.078.847-.854v-5.746c0-.833-.073-.927-.793-.931h-.084c-.527.006-2.985.152-9.624.155h-5.753v-2.906c.006-5.416.154-6.686.444-7.45l.018-.048c.231-.621.54-.932.54-1.63 0-.466-.386-.7-1.156-.777-2.774-.388-5.547-.543-8.397-.621Zm-32.355 0c.539 3.571.616 6.056.616 11.025v4.115h-1.484c-5.286-.006-6.92-.155-7.298-.155-.827 0-.92.074-.925.8v5.955c0 .776.077.854.925.854.377 0 2.012-.15 7.298-.155h1.484v13.897a35.398 35.398 0 0 1-3.236.932c-2.696.776-4.622 1.165-7.087 1.553.54 2.717 1.155 5.435 1.772 7.531.23.699.54.932 1.001.932.385 0 .848-.233 1.233-.466.462-.31 1.155-.776 2.542-1.242a72.687 72.687 0 0 0 3.775-1.32v15.839c0 1.94-.462 2.329-2.003 2.329-2.157 0-4.16 0-6.24-.233.77 1.32 1.54 3.339 2.08 5.823.52 2.322.538 2.404 2.683 2.407h.244c5.162 0 6.934-.31 8.628-1.63 2.003-1.476 2.465-3.494 2.465-7.454 0-2.823-.042-7.098-.064-11.337l-.003-.552c-.006-1.289-.01-2.567-.01-3.795v-4.348l4.854-2.096c2.14-1.042 2.16-1.299 2.157-3.164v-.252c0-1.941.154-3.96.308-5.357-2.465 1.087-4.93 2.174-7.319 3.105V50.87h.307c4.691.007 6.251.156 6.704.156.77 0 .847-.078.847-.854V44.27c0-.777-.077-.854-.847-.854-.453 0-2.013.149-6.703.155h-.308V38.067c.004-4.31.039-5.753.463-6.608.23-.543.462-1.01.462-1.63 0-.389-.462-.777-1.233-.855-2.542-.31-5.161-.465-8.089-.543Z" fill="#23221F"/></svg>