<svg width="129" height="128" fill="none" xmlns="http://www.w3.org/2000/svg"><title>SmartHR 履歴・予約機能</title><path d="M2.00001 63.5C2.00001 33.953 26.0043 10 55.6156 10C85.2239 10 109.226 33.9482 109.231 63.4912L126.003 63.4912L103.732 95.3116L81.461 63.4912H98.2331C98.2283 40.0078 79.1494 20.9726 55.6156 20.9726C32.0788 20.9726 12.9981 40.0125 12.9981 63.5C12.9981 67.4096 13.5253 71.2438 14.554 74.932C19.641 93.1699 36.3591 106.027 55.6156 106.027C58.6526 106.027 61.1146 108.484 61.1146 111.514C61.1146 114.544 58.6526 117 55.6156 117C31.3887 117 10.3611 100.828 3.95856 77.8736C2.66333 73.2298 2.00001 68.4062 2.00001 63.5Z" fill="#23221F"/><path fill-rule="evenodd" clip-rule="evenodd" d="M60.4832 31C61.2015 31 61.8121 31.2517 62.315 31.7552C62.8178 32.2587 63.0692 32.8701 63.0692 33.5894V64.2308L77.5077 74.5884C78.0824 75.02 78.4056 75.5954 78.4774 76.3147C78.5493 77.034 78.3697 77.6813 77.9387 78.2567L74.0597 83.8671C73.6287 84.4426 73.054 84.8022 72.3357 84.9461C71.6174 85.0899 70.9709 84.9461 70.3962 84.5145L52.0787 71.1359C51.3604 70.5604 51.0012 69.8412 51.0012 68.978V33.5894C51.0012 32.8701 51.2526 32.2587 51.7555 31.7552C52.2583 31.2517 52.8689 31 53.5872 31H60.4832Z" fill="#23221F"/></svg>