<svg width="128" height="128" fill="none" xmlns="http://www.w3.org/2000/svg"><title>SmartHR組織図機能</title><path fill-rule="evenodd" clip-rule="evenodd" d="M109.983 50.226H88.651a6.679 6.679 0 0 0-6.678 6.678v14.47a6.679 6.679 0 0 0 6.678 6.678h21.332a6.678 6.678 0 0 0 6.678-6.678v-14.47a6.678 6.678 0 0 0-6.678-6.678Zm0 41.6H88.651a6.679 6.679 0 0 0-6.678 6.678v14.47a6.678 6.678 0 0 0 6.678 6.678h21.332a6.678 6.678 0 0 0 6.678-6.678v-14.47a6.678 6.678 0 0 0-6.678-6.678ZM58.195 23.93v35.606h-9.86v-5.553a6.678 6.678 0 0 0-6.679-6.679H18.087a6.679 6.679 0 0 0-6.678 6.679v20.034a6.679 6.679 0 0 0 6.678 6.679h23.57a6.678 6.678 0 0 0 6.678-6.679v-5.553h9.86v35.606a6.678 6.678 0 0 0 6.678 6.678h12.135v-8.928h-9.885V68.464h9.593v-8.928h-9.593V26.18h9.885v-8.789H63.514a6.68 6.68 0 0 0-5.32 6.54Zm51.788-15.582H88.651a6.679 6.679 0 0 0-6.678 6.678v14.47a6.679 6.679 0 0 0 6.678 6.678h21.332a6.678 6.678 0 0 0 6.678-6.678v-14.47a6.678 6.678 0 0 0-6.678-6.678Z" fill="#23221F"/></svg>