<svg width="128" height="128" fill="none" xmlns="http://www.w3.org/2000/svg"><title>SmartHR多言語対応</title><path fill-rule="evenodd" clip-rule="evenodd" d="M64 6.4c6.393 0 11.576 5.182 11.576 11.576v34.727h34.727c6.392 0 11.575 5.181 11.575 11.575v46.303c0 6.393-5.183 11.576-11.575 11.576H64c-6.393 0-11.576-5.183-11.576-11.576V75.854H17.697c-6.392 0-11.575-5.183-11.575-11.576V17.976c0-6.394 5.183-11.576 11.576-11.576H64Zm46.303 52.09H64a5.794 5.794 0 0 0-5.788 5.788v46.303A5.796 5.796 0 0 0 64 116.369h46.303a5.795 5.795 0 0 0 5.788-5.788V64.278a5.794 5.794 0 0 0-5.788-5.788ZM92.116 64.35l15.015 46.121h-9.305l-3.038-10.481-14.724.037-2.886 10.444h-9.004l14.915-46.102 9.027-.019Zm-4.553 8.752h-.24a313.33 313.33 0 0 1-3.594 13.742l-.189.657-1.32 4.82h10.565l-1.322-4.82c-1.38-4.58-2.58-9.637-3.9-14.399ZM32.47 16.207c.174.927.231 1.738.231 2.605 0 1.62-.231 4.225-.461 6.307-4.341.06-7.523.175-11.227-.231.116 1.62.116 3.125.288 4.398.058.984.405 1.272 1.043 1.33.654.11 1.514.116 3.017.116h.378c.462.002 1.05.014 1.882.015h.182c.929-.002 2.147-.017 3.799-.073-.116 2.201-.232 4.748-.29 7.235-7.117 3.53-13.54 10.59-13.54 17.997 0 4.513 2.487 7.176 6.423 7.176 2.952 0 5.96-1.331 10.07-4.166.288.868.578 1.561.983 2.257.347.578.579.578 1.158.288.81-.347 2.14-1.042 3.47-2.026.58-.405.813-.693.464-1.447-.405-.924-.751-1.56-1.04-2.603 4.165-4.223 7.58-8.796 10.936-15.16 3.877.983 7.175 3.761 7.175 8.39 0 4.166-1.85 6.653-4.629 8.68-2.14 1.505-6.598 3.356-10.762 4.224 1.85 1.563 3.008 2.778 3.413 3.587.635 1.273 1.274 1.447 2.547 1.101a34.853 34.853 0 0 0 4.443-1.525v-.404c0-6.266 4.978-11.368 11.194-11.57l.167-.003.042-.218c.14-.757.225-1.541.239-2.354l.002-.245c0-7.233-4.399-12.153-11.863-14.12.289-.52.462-.869.752-1.158.231-.232.347-.462.347-.693 0-.349-.347-.812-1.042-1.273-.81-.58-3.066-1.505-5.15-2.142-.057 1.62-.636 3.299-.985 4.224-2.834.057-6.595.522-8.852 1.273.056-2.024.172-3.413.405-5.844 5.265-.463 8.796-.869 16.434-2.431.636-.116 1.216-.405 1.216-1.158 0-1.272-.29-2.719-.58-3.934-.116-.522-.288-.752-.983-.58-5.613 1.273-9.722 1.911-15.047 2.43.174-.983.29-1.85.465-2.892.115-.637.29-1.447.809-2.083.231-.29.289-.521.289-.927 0-.461-.347-.81-1.04-1.041-1.447-.521-3.415-.925-6.772-1.332ZM31.399 43.41c.115 3.368.58 6.505 1.158 9.988-2.952 2.323-5.094 3.368-6.716 3.368-1.04 0-1.91-.813-1.91-2.207 0-3.775 3.01-7.955 7.467-11.15ZM44.5 39.79c-1.639 3.199-4.39 7.198-6.79 9.883-.467-2.914-.643-5.597-.701-8.569 2.691-.857 5.383-1.256 7.491-1.314Z" fill="#23221F"/></svg>