<svg width="128" height="128" fill="none" xmlns="http://www.w3.org/2000/svg"><path fill-rule="evenodd" clip-rule="evenodd" d="M107.357 37.913c.58.58 1.16 1.325 1.74 2.236H79.768V10.832c.912.58 1.657 1.16 2.237 1.74l25.352 25.341ZM77.78 48.1h33.803v65.59c0 1.657-.58 3.065-1.74 4.224-1.16 1.159-2.569 1.739-4.226 1.739H22.104c-1.657 0-3.065-.58-4.225-1.739-1.16-1.159-1.74-2.567-1.74-4.224V14.311c0-1.657.58-3.065 1.74-4.224 1.16-1.16 2.568-1.74 4.225-1.74h49.71v33.79c0 1.656.58 3.064 1.74 4.223 1.16 1.16 2.569 1.74 4.226 1.74Zm9.942 45.715v-3.975c0-.58-.187-1.056-.56-1.429-.372-.373-.849-.559-1.429-.559H41.988c-.58 0-1.056.186-1.429.559-.373.373-.559.849-.559 1.428v3.976c0 .58.186 1.056.56 1.428.372.373.848.56 1.428.56h43.745c.58 0 1.057-.187 1.43-.56.372-.372.559-.849.559-1.428Zm0-15.9v-3.976c0-.58-.187-1.056-.56-1.429-.372-.372-.849-.559-1.429-.559H41.988c-.58 0-1.056.187-1.429.56-.373.372-.559.848-.559 1.428v3.975c0 .58.186 1.056.56 1.429.372.372.848.559 1.428.559h43.745c.58 0 1.057-.187 1.43-.56.372-.372.559-.848.559-1.428Zm0-15.902v-3.975c0-.58-.187-1.056-.56-1.428-.372-.373-.849-.56-1.429-.56H41.988c-.58 0-1.056.187-1.429.56-.373.372-.559.849-.559 1.428v3.975c0 .58.186 1.056.56 1.429.372.373.848.559 1.428.559h43.745c.58 0 1.057-.186 1.43-.559.372-.373.559-.849.559-1.429Z" fill="#23221F"/></svg>