<svg width="128" height="128" fill="none" xmlns="http://www.w3.org/2000/svg"><g clip-path="url(#a)"><path fill-rule="evenodd" clip-rule="evenodd" d="M57.725 70.302V17.318c0-2.65-2.258-4.685-4.908-4.49C22.505 15.394-1.143 41.356.056 72.56c1.115 29.616 25.042 53.849 54.658 55.355 15.365.781 29.476-4.434 40.24-13.525 2.008-1.701 2.148-4.768.28-6.609l-37.508-37.48Zm65.785-1.645H80.76c-4.044 0-6.024 4.908-3.123 7.697l30.201 29.253c1.868 1.813 4.88 1.645 6.581-.335A57.432 57.432 0 0 0 128 73.649c.251-2.677-1.813-4.992-4.49-4.992ZM71.195 58.395h48.634c2.594 0 4.657-2.203 4.49-4.797C122.395 25.154 99.89 2.37 71.585.028a4.499 4.499 0 0 0-4.88 4.49v49.415c0 2.454 2.008 4.462 4.49 4.462Z" fill="#23221F"/></g><defs><clipPath id="a"><path fill="#fff" d="M0 0h128v128H0z"/></clipPath></defs></svg>