<svg width="128" height="128" fill="none" xmlns="http://www.w3.org/2000/svg"><path fill-rule="evenodd" clip-rule="evenodd" d="M98.442 105.946c2.095 0 3.792 3.255 3.792 7.27 0 4.016-1.697 7.271-3.792 7.271H31.65c-2.094 0-3.792-3.255-3.792-7.271 0-4.015 1.698-7.27 3.792-7.27h66.792Zm9.578-23.63c1.814 0 3.284 1.453 3.284 3.246v13.502c0 1.793-1.47 3.246-3.284 3.246H20.258c-1.814 0-3.284-1.453-3.284-3.246V85.562c0-1.793 1.47-3.246 3.284-3.246h87.762ZM64.139 7.79C75.16 7.791 84.094 17 84.094 28.36c0 9.945-3.198 13.781-7.803 24.722-4.605 10.942-5.873 21.963-5.873 21.963H57.861s-1.269-11.021-5.873-21.963c-4.605-10.942-7.803-14.777-7.803-24.724 0-11.359 8.934-20.567 19.954-20.567Z" fill="#23221F"/></svg>