<svg width="128" height="128" fill="none" xmlns="http://www.w3.org/2000/svg"><path fill-rule="evenodd" clip-rule="evenodd" d="M58.583 66.743c.308.517.47 1.108.47 1.71v12.495h51.138a3.34 3.34 0 0 1 3.339 3.34v12.68a3.34 3.34 0 0 1-3.339 3.34H59.054v12.781a3.34 3.34 0 0 1-5.049 2.868L16.554 93.639a3.34 3.34 0 0 1 0-5.737l37.451-22.318a3.34 3.34 0 0 1 4.578 1.16ZM69.695 13.04a3.34 3.34 0 0 1 4.578-1.16l37.452 22.319a3.34 3.34 0 0 1 0 5.737L74.273 62.253a3.338 3.338 0 0 1-5.048-2.869v-12.78H18.087a3.34 3.34 0 0 1-3.34-3.34V30.583a3.34 3.34 0 0 1 3.34-3.34h51.138V14.749c0-.601.162-1.192.47-1.709Z" fill="#23221F"/></svg>