<svg width="128" height="128" fill="none" xmlns="http://www.w3.org/2000/svg"><path d="M76.87 61.62H100c3.87 0 7-3.13 7-7s-3.13-7-7-7H86.67L106 20.02a6.988 6.988 0 0 0 1.161-5.231 7.008 7.008 0 0 0-8.113-5.68 6.996 6.996 0 0 0-4.518 2.881L65.06 54.08 33.33 11.8a7.002 7.002 0 0 0-9.8-1.4 7.002 7.002 0 0 0-1.4 9.8L42.7 47.62H28a6.994 6.994 0 0 0-7 7c0 3.87 3.13 7 7 7h25.21L58 68v6.65H28a6.994 6.994 0 0 0-7 7c0 3.87 3.13 7 7 7h30V114c0 3.87 3.13 7 7 7s7-3.13 7-7V88.65h28c3.87 0 7-3.13 7-7s-3.13-7-7-7H72v-6.08l4.87-6.95Z" fill="#23221F"/></svg>