<svg width="64" height="64" fill="none" xmlns="http://www.w3.org/2000/svg"><title>SmartHRAPI連携</title><path d="m59.085 18.09-1.43-1.43a3.504 3.504 0 0 0-4.95 0l-6.945 6.945-5.165-5.165 6.93-6.93a3.504 3.504 0 0 0 0-4.95L45.82 4.85a3.504 3.504 0 0 0-4.95 0l-6.935 6.93-2.885-2.885a3.504 3.504 0 0 0-4.95 0l-6.765 6.77c-6.3 6.3-6.96 16.105-1.98 23.145L5.345 50.82a4.002 4.002 0 0 0 0 5.655l2.24 2.24a4.002 4.002 0 0 0 5.655 0L25.25 46.71c7.04 4.98 16.845 4.32 23.145-1.98l6.77-6.77a3.504 3.504 0 0 0 0-4.95l-3.025-3.025 6.945-6.945a3.495 3.495 0 0 0 0-4.95Z" fill="#23221F"/></svg>