<svg width="64" height="64" viewBox="0 0 64 64" fill="none" xmlns="http://www.w3.org/2000/svg">
<path d="M39 4V18H53L39 4Z" fill="#23221F"/>
<path d="M35.5 18V4H15.755C13.13 4 11 6.13 11 8.755V55.25C11 57.875 13.13 60.005 15.755 60.005H48.25C50.875 60.005 53.005 57.875 53.005 55.25V21.5H39.1C37.065 21.5 35.5 19.935 35.5 18ZM25.72 41.17C25.065 44.355 23.635 45.945 21.17 45.945C17.555 45.945 16.305 42.465 16.305 36.81C16.305 32.01 17.535 27.92 21.25 27.92C23.99 27.92 25.2 29.66 25.64 32.525C25.74 33.185 25.76 33.75 24.825 33.87L23.595 34.015C22.8 34.115 22.68 33.6 22.505 32.915C22.265 31.935 21.87 31.42 21.295 31.42C20.245 31.42 19.705 32.79 19.705 36.81C19.705 41.365 20.2 42.49 21.275 42.49C21.87 42.49 22.31 41.855 22.605 40.68C22.765 39.995 22.765 39.455 23.52 39.58L24.97 39.8C25.9 39.945 25.86 40.535 25.72 41.17ZM32.275 45.945C29.91 45.945 28.58 44.82 27.985 42.37C27.825 41.76 27.745 41.17 28.68 40.95L29.87 40.68C30.765 40.485 30.805 40.975 31.06 41.66C31.32 42.295 31.735 42.665 32.41 42.665C33.145 42.665 33.7 42.2 33.7 41.245C33.7 37.99 28 38.43 28 32.525C28 29.78 29.61 27.92 32.21 27.92C34.495 27.92 35.705 29.145 36.34 31.2C36.54 31.79 36.64 32.4 35.725 32.62L34.655 32.89C33.84 33.085 33.76 32.62 33.405 31.96C33.145 31.495 32.79 31.175 32.275 31.175C31.62 31.175 31.205 31.64 31.205 32.375C31.205 35.485 36.885 35.07 36.885 40.945C36.88 44.135 35.075 45.945 32.275 45.945ZM41.095 28.145C41.67 28.145 41.93 28.415 42.07 29.37L43.5 39.78H43.54L45.11 29.37C45.25 28.415 45.525 28.145 46.105 28.145H47.835C48.35 28.145 48.81 28.27 48.61 29.345L45.73 44.53C45.55 45.46 45.075 45.73 44.48 45.73H42.615C42.02 45.73 41.56 45.435 41.385 44.53L38.545 29.345C38.345 28.27 38.825 28.145 39.34 28.145H41.095Z" fill="#23221F"/>
</svg>
