<svg width="128" height="128" fill="none" xmlns="http://www.w3.org/2000/svg"><path d="M78 8v28h28L78 8Z" fill="#23221F"/><path d="M71 36V8H31.51C26.26 8 22 12.26 22 17.51v92.99c0 5.25 4.26 9.51 9.51 9.51H96.5c5.25 0 9.51-4.26 9.51-9.51V43H78.2c-4.07 0-7.2-3.13-7.2-7ZM51.44 82.34c-1.31 6.37-4.17 9.55-9.1 9.55-7.23 0-9.73-6.96-9.73-18.27 0-9.6 2.46-17.78 9.89-17.78 5.48 0 7.9 3.48 8.78 9.21.2 1.32.24 2.45-1.63 2.69l-2.46.29c-1.59.2-1.83-.83-2.18-2.2-.48-1.96-1.27-2.99-2.42-2.99-2.1 0-3.18 2.74-3.18 10.78 0 9.11.99 11.36 3.14 11.36 1.19 0 2.07-1.27 2.66-3.62.32-1.37.32-2.45 1.83-2.2l2.9.44c1.86.29 1.78 1.47 1.5 2.74Zm13.11 9.55c-4.73 0-7.39-2.25-8.58-7.15-.32-1.22-.48-2.4 1.39-2.84l2.38-.54c1.79-.39 1.87.59 2.38 1.96.52 1.27 1.35 2.01 2.7 2.01 1.47 0 2.58-.93 2.58-2.84 0-6.51-11.4-5.63-11.4-17.44 0-5.49 3.22-9.21 8.42-9.21 4.57 0 6.99 2.45 8.26 6.56.4 1.18.6 2.4-1.23 2.84l-2.14.54c-1.63.39-1.79-.54-2.5-1.86-.52-.93-1.23-1.57-2.26-1.57-1.31 0-2.14.93-2.14 2.4 0 6.22 11.36 5.39 11.36 17.14-.01 6.38-3.62 10-9.22 10Zm17.64-35.6c1.15 0 1.67.54 1.95 2.45L87 79.56h.08l3.14-20.82c.28-1.91.83-2.45 1.99-2.45h3.46c1.03 0 1.95.25 1.55 2.4l-5.76 30.37c-.36 1.86-1.31 2.4-2.5 2.4h-3.73c-1.19 0-2.11-.59-2.46-2.4l-5.68-30.37c-.4-2.15.56-2.4 1.59-2.4h3.51Z" fill="#23221F"/></svg>