<svg xmlns="http://www.w3.org/2000/svg" width="90" height="90" fill="none"><title>SmartHRHRアナリティクス</title><path fill="#23221F" d="M38.637 30.776c0 1.16-.232 2.299-.661 3.36l-5.527-4.626v-7.207c3.586 1.146 6.188 4.514 6.188 8.473ZM27.035 30.776c0 .801.352 1.56.97 2.074l6.497 5.435a8.868 8.868 0 0 1-4.76 1.378c-4.908 0-8.894-3.986-8.894-8.894 0-3.959 2.601-7.327 6.187-8.473v8.48Z"/><path fill="#23221F" fill-rule="evenodd" d="M73.125 82.266h-56.25c-5.041 0-9.14-4.1-9.14-9.141v-56.25c0-5.041 4.099-9.14 9.14-9.14h56.25c5.041 0 9.14 4.099 9.14 9.14v56.25c0 5.041-4.099 9.14-9.14 9.14ZM52.65 27.47h17.789a3.469 3.469 0 0 0 3.466-3.466 3.469 3.469 0 0 0-3.466-3.467H52.65a3.469 3.469 0 0 0-3.466 3.467 3.469 3.469 0 0 0 3.466 3.466Zm0 6.616h17.789a3.469 3.469 0 0 1 3.466 3.467 3.469 3.469 0 0 1-3.466 3.466H52.65a3.469 3.469 0 0 1-3.466-3.466 3.469 3.469 0 0 1 3.466-3.467ZM29.742 45.084c4.24 0 8.24-1.87 10.969-5.126v-.006a14.309 14.309 0 0 0 3.333-9.176c0-7.89-6.42-14.309-14.309-14.309-7.889 0-14.308 6.42-14.308 14.309 0 7.889 6.42 14.308 14.308 14.308h.007Zm29.335 9.746a6.983 6.983 0 0 1 6.971-6.975 6.983 6.983 0 0 1 6.971 6.975 6.983 6.983 0 0 1-6.975 6.975 6.93 6.93 0 0 1-4.359-1.54l-9.879 6.124c.106.478.162.977.162 1.49 0 3.847-3.157 6.976-6.975 6.976-3.818 0-6.926-3.087-6.968-6.898l-8.48-2.897a6.96 6.96 0 0 1-5.597 2.834 6.983 6.983 0 0 1-6.975-6.975c0-3.846 3.228-6.975 6.975-6.975 3.748 0 6.8 2.967 6.961 6.672l8.628 2.946a6.94 6.94 0 0 1 9.822-1.117l9.88-6.125a6.922 6.922 0 0 1-.162-1.49Zm6.971-6.975h.004-.008.004Z" clip-rule="evenodd"/></svg>