<svg xmlns="http://www.w3.org/2000/svg" width="128" height="128" fill="none"><title>SmartHR IdP</title><path fill="#23221F" fill-rule="evenodd" d="M55.948 21.994c0-6.588 5.365-11.953 11.953-11.953 6.588 0 11.953 5.365 11.953 11.953 0 6.588-5.365 11.953-11.953 11.953-6.588 0-11.953-5.365-11.953-11.953Zm7.924 6.019a2.442 2.442 0 0 0 1.736.717l.007-.007c.626 0 1.259-.24 1.737-.717l7.953-7.953a2.457 2.457 0 0 0 0-3.48 2.457 2.457 0 0 0-3.481 0l-6.216 6.216-1.793-1.793a2.457 2.457 0 0 0-3.48 0 2.457 2.457 0 0 0 0 3.48l3.537 3.537Z" clip-rule="evenodd"/><path fill="#23221F" fill-rule="evenodd" d="M51.729 21.29c0 8.916 7.256 16.172 16.172 16.172h.007c2.496 0 4.865-.569 6.982-1.589v38.63c0 5.056-4.127 9.169-9.197 9.169H24.314c-5.07 0-9.197-4.113-9.197-9.169v-55.49c0-5.056 4.127-9.17 9.197-9.17H56.49a16.128 16.128 0 0 0-4.76 11.448Zm-9.042 6.315H28.624a2.812 2.812 0 1 1 0-5.625h14.063a2.812 2.812 0 1 1 0 5.625Zm0 9.724H28.624a2.812 2.812 0 1 1 0-5.625h14.063a2.812 2.812 0 1 1 0 5.625ZM40.992 64.3h8.016c5.533 0 10.02 4.486 10.02 10.02 0 1.103-.9 2.003-2.005 2.003H32.976c-1.103 0-2.003-.9-2.003-2.004 0-5.533 4.486-10.02 10.02-10.02Zm12.024-12.024a8.017 8.017 0 1 1-16.03-.002 8.017 8.017 0 0 1 16.03.002Z" clip-rule="evenodd"/></svg>