<svg width="64" height="64" viewBox="0 0 64 64" fill="none" xmlns="http://www.w3.org/2000/svg">
<path d="M60.625 28.9152C60.625 24.5902 58.355 21.0352 55.435 20.5502V11.5652C55.435 10.1152 54.625 8.82521 53.32 8.20021C52.015 7.57021 50.5 7.74021 49.37 8.64021L49.25 8.74021C43.33 13.9752 35.73 17.1052 27.84 17.5452L25.905 17.6552H10C6.685 17.6552 4 20.3402 4 23.6552V33.4702C4 36.7852 6.685 39.4702 10 39.4702H12.695V52.1002C12.695 55.0502 15.095 57.4502 18.045 57.4502H20.69C23.64 57.4502 26.04 55.0502 26.04 52.1002V39.3552L27.83 39.4552C35.72 39.8952 43.325 43.0252 49.245 48.2602L49.365 48.3602C50.045 48.9002 50.86 49.1802 51.685 49.1802C52.235 49.1802 52.79 49.0552 53.315 48.8052C54.62 48.1752 55.43 46.8852 55.43 45.4402V37.2802C58.355 36.7952 60.625 33.2352 60.625 28.9152ZM49.435 40.7902C43.35 36.5702 36.175 34.0252 28.76 33.5002V23.5002C36.175 22.9802 43.35 20.4302 49.435 16.2102V40.7902Z" fill="#23221F"/>
</svg>
