<svg xmlns="http://www.w3.org/2000/svg" width="128" height="128" fill="none"><title>SmartHRキャリア台帳</title><path fill="#23221F" d="M28.5 36h-14a4 4 0 1 1 0-8h14a4 4 0 1 1 0 8ZM28.5 57.33h-14a4 4 0 1 1 0-8h14a4 4 0 1 1 0 8ZM28.5 78.67h-14a4 4 0 1 1 0-8h14a4 4 0 1 1 0 8ZM28.5 100h-14a4 4 0 1 1 0-8h14a4 4 0 1 1 0 8ZM95.57 110.13 85.7 120H97c5.94 0 10.95-4.01 12.5-9.46a24.58 24.58 0 0 1-13.93-.41Z"/><path fill="#23221F" d="M97 8H33c-7.17 0-13 5.83-13 13v3h8.5a8 8 0 1 1 0 16H20v5.33h8.5a8 8 0 1 1 0 16H20v5.33h8.5a8 8 0 1 1 0 16H20V88h8.5a8 8 0 1 1 0 16H20v3c0 7.17 5.83 13 13 13h31.26a10.02 10.02 0 0 1 1.86-11.54L80 94.58a24.93 24.93 0 0 1-.88-3.58h-33.4a3.52 3.52 0 0 1-3.5-3.5A17.5 17.5 0 0 1 59.72 70h14c3.51 0 6.77 1.04 9.5 2.82A24.5 24.5 0 0 1 110 63.36V21c0-7.17-5.83-13-13-13ZM66.72 63a14 14 0 1 1 .02-28.02A14 14 0 0 1 66.72 63Z"/><path fill="#23221F" d="M116.33 73.81a18.52 18.52 0 0 0-26.16 0 18.52 18.52 0 0 0-3.04 22.13L70.37 112.7a4 4 0 0 0 0 5.66l1.41 1.41a4 4 0 0 0 5.66 0l16.76-16.76a18.52 18.52 0 0 0 22.13-3.04 18.5 18.5 0 0 0 0-26.16Zm-6.36 19.8a9.51 9.51 0 0 1-13.43 0 9.51 9.51 0 0 1 0-13.43 9.51 9.51 0 0 1 13.43 0 9.51 9.51 0 0 1 0 13.43Z"/></svg>