<svg xmlns="http://www.w3.org/2000/svg" width="128" height="128" fill="none"><path fill="#23221F" d="M17.31 101.5a4.008 4.008 0 0 0-.57 4.33c.69 1.43 2.16 2.29 3.74 2.27l12.11-.4 2.22 9.21c.35 1.47 1.5 2.61 2.97 2.96a3.98 3.98 0 0 0 3.98-1.32l14.86-17.71c-10.49-1.57-19.91-6.43-27.19-13.5l-12.12 14.17v-.01Zm93.47 0L98.62 87.29c-7.27 7.07-16.68 11.95-27.16 13.53l14.87 17.72c.77.92 1.9 1.43 3.06 1.43.3 0 .61-.03.92-.11a3.982 3.982 0 0 0 2.97-2.96l2.22-9.21 12.11.4c1.56.03 3.05-.83 3.74-2.27a3.99 3.99 0 0 0-.57-4.33v.01Zm-3.1-49.79c0-24.08-19.59-43.67-43.67-43.67-24.08 0-43.69 19.59-43.69 43.67 0 24.08 19.59 43.67 43.67 43.67 24.08 0 43.67-19.59 43.67-43.67h.02Zm-22.81-8.02L61.08 67.48a4.492 4.492 0 0 1-6.34 0l-11.9-11.9a4.439 4.439 0 0 1-1.31-3.17c0-1.2.46-2.32 1.31-3.17a4.472 4.472 0 0 1 6.33 0l8.74 8.73 20.63-20.63c1.75-1.74 4.59-1.75 6.33 0 .04.04.08.09.12.13 1.62 1.75 1.57 4.5-.13 6.2l.01.02Z"/></svg>