<svg width="128" height="128" fill="none" xmlns="http://www.w3.org/2000/svg"><path d="M64 35.23a6.5 6.5 0 0 0-6.5 6.5V64c0 1.72.68 3.38 1.9 4.6l13 12.99a6.471 6.471 0 0 0 4.6 1.9 6.494 6.494 0 0 0 4.6-11.09L70.5 61.31V41.73a6.5 6.5 0 0 0-6.5-6.5Z" fill="#23221F"/><path d="M112.28 9.26a5.007 5.007 0 0 0-5.45 1.08l-7.61 7.61C77.37 2.75 47.03 4.87 27.56 24.34c-21.87 21.87-21.87 57.45 0 79.32 10.94 10.93 25.29 16.4 39.66 16.4 14.36 0 28.73-5.47 39.66-16.4a6.494 6.494 0 0 0 0-9.19 6.494 6.494 0 0 0-9.19 0c-16.8 16.8-44.13 16.8-60.93 0-16.8-16.8-16.8-44.13 0-60.93 14.38-14.38 36.48-16.44 53.08-6.2l-6.01 6.01a4.989 4.989 0 0 0-1.08 5.45 5 5 0 0 0 4.62 3.09h23c2.76 0 5-2.24 5-5v-23c-.01-2.03-1.22-3.86-3.09-4.63Z" fill="#23221F"/></svg>