<svg width="64" height="64" viewBox="0 0 64 64" fill="none" xmlns="http://www.w3.org/2000/svg">
<path d="M32.0001 17.6152C30.2051 17.6152 28.7501 19.0702 28.7501 20.8652V32.0002C28.7501 32.8602 29.0901 33.6902 29.7001 34.3002L36.2001 40.7952C36.8351 41.4302 37.6651 41.7452 38.5001 41.7452C39.3351 41.7452 40.1651 41.4302 40.8001 40.7952C42.0701 39.5252 42.0701 37.4702 40.8001 36.2002L35.2501 30.6552V20.8652C35.2501 19.0702 33.7951 17.6152 32.0001 17.6152Z" fill="#23221F"/>
<path d="M56.1401 4.63016C55.2051 4.24516 54.1301 4.45516 53.4151 5.17016L49.6101 8.97516C38.6851 1.37516 23.5151 2.43516 13.7801 12.1702C2.84511 23.1052 2.84511 40.8952 13.7801 51.8302C19.2501 57.2952 26.4251 60.0302 33.6101 60.0302C40.7901 60.0302 47.9751 57.2952 53.4401 51.8302C54.7101 50.5602 54.7101 48.5052 53.4401 47.2352C52.1701 45.9652 50.1151 45.9652 48.8451 47.2352C40.4451 55.6352 26.7801 55.6352 18.3801 47.2352C9.98011 38.8352 9.98011 25.1702 18.3801 16.7702C25.5701 9.58016 36.6201 8.55016 44.9201 13.6702L41.9151 16.6752C41.2001 17.3902 40.9851 18.4652 41.3751 19.4002C41.7601 20.3352 42.6751 20.9452 43.6851 20.9452H55.1851C56.5651 20.9452 57.6851 19.8252 57.6851 18.4452V6.94516C57.6801 5.93016 57.0751 5.01516 56.1401 4.63016Z" fill="#23221F"/>
</svg>
