<svg width="64" height="64" viewBox="0 0 64 64" fill="none" xmlns="http://www.w3.org/2000/svg">
<path d="M29.93 15.565C28.135 15.565 26.68 17.02 26.68 18.815V29.945C26.68 30.805 27.02 31.635 27.63 32.245L34.125 38.74C34.76 39.375 35.59 39.69 36.425 39.69C37.255 39.69 38.09 39.375 38.725 38.74C39.995 37.47 39.995 35.415 38.725 34.145L33.18 28.6V18.815C33.18 17.02 31.725 15.565 29.93 15.565Z" fill="#23221F"/>
<path d="M59.515 38.91L58.17 37.555C56.69 36.085 54.31 36.085 52.84 37.555L50.825 39.57L57.5 46.25L59.515 44.235C60.995 42.76 60.995 40.375 59.515 38.91Z" fill="#23221F"/>
<path d="M38.785 51.525C38.4 51.995 38.125 52.475 37.995 53.005L36.58 58.59C36.45 59.185 36.6 59.73 36.975 60.105C37.35 60.47 37.89 60.625 38.405 60.5L44.065 59.08C44.59 58.95 45.08 58.675 45.47 58.29L55.375 48.385L48.69 41.705L38.785 51.525Z" fill="#23221F"/>
<path d="M29.55 49.24C18.7 49.24 9.875 40.415 9.875 29.565C9.875 18.715 18.7 9.89002 29.55 9.89002C40.4 9.89002 49.225 18.715 49.225 29.565C49.225 32.675 48.495 35.62 47.205 38.24L50.365 35.08C51.735 33.71 53.56 32.955 55.5 32.955C55.645 31.845 55.725 30.72 55.725 29.57C55.725 15.115 44.005 3.39502 29.55 3.39502C15.095 3.39502 3.375 15.11 3.375 29.565C3.375 44.02 15.095 55.74 29.55 55.74C30.99 55.74 32.4 55.62 33.775 55.395L34.595 52.155C34.85 51.145 35.33 50.215 36.075 49.305L36.19 49.165L36.32 49.04L38.08 47.295C35.5 48.54 32.605 49.24 29.55 49.24Z" fill="#23221F"/>
</svg>
