<svg width="64" height="64" viewBox="0 0 64 64" fill="none" xmlns="http://www.w3.org/2000/svg">
<path d="M50.2199 12.1699C40.4849 2.43492 25.3149 1.37492 14.3899 8.97492L10.5849 5.16992C9.86994 4.45492 8.79494 4.23992 7.85994 4.62992C6.92494 5.01492 6.31494 5.92992 6.31494 6.93992V18.4399C6.31494 19.8199 7.43494 20.9399 8.81494 20.9399H20.3149C21.3249 20.9399 22.2399 20.3299 22.6249 19.3949C23.0099 18.4599 22.7999 17.3849 22.0849 16.6699L19.0799 13.6649C27.3849 8.54492 38.4299 9.57492 45.6199 16.7649C54.0199 25.1649 54.0199 38.8299 45.6199 47.2299C37.2199 55.6299 23.5549 55.6299 15.1549 47.2299C13.8849 45.9599 11.8299 45.9599 10.5599 47.2299C9.28994 48.4999 9.28994 50.5549 10.5599 51.8249C16.0249 57.2899 23.2099 60.0249 30.3899 60.0249C37.5699 60.0249 44.7499 57.2899 50.2199 51.8249C61.1499 40.8949 61.1499 23.1049 50.2199 12.1699Z" fill="#23221F"/>
<path d="M30.3899 17.6149C28.5949 17.6149 27.1399 19.0699 27.1399 20.8649V31.9999C27.1399 32.8599 27.4799 33.6899 28.0899 34.2999L34.5849 40.7949C35.2199 41.4299 36.0499 41.7449 36.8849 41.7449C37.7199 41.7449 38.5499 41.4299 39.1849 40.7949C40.4549 39.5249 40.4549 37.4699 39.1849 36.1999L33.6399 30.6549V20.8649C33.6399 19.0699 32.1849 17.6149 30.3899 17.6149Z" fill="#23221F"/>
</svg>
