<svg xmlns="http://www.w3.org/2000/svg" id="solid" version="1.1" viewBox="0 0 128 128"><defs><style>.cls-1{fill:#00b1b4;stroke-width:0}</style></defs><title>SmartHR採用管理</title><path d="M97.01 63.98c7.05 0 12.78-5.73 12.78-12.78s-5.73-12.78-12.78-12.78-12.78 5.73-12.78 12.78 5.73 12.78 12.78 12.78ZM30.99 63.98c7.05 0 12.78-5.73 12.78-12.78s-5.73-12.78-12.78-12.78-12.78 5.73-12.78 12.78 5.73 12.78 12.78 12.78Z" class="cls-1"/><path d="M70.07 51.4a7.107 7.107 0 0 0-3.88-3.83 7.055 7.055 0 0 0-5.45.03 7.092 7.092 0 0 0-3.84 3.88C52.33 62.73 43.53 68.42 36.82 70c-1.91.45-3.99.76-5.99 1.06-9.41 1.41-20.07 3.01-18.72 20.51l.94 14.38c0 3.67 2.98 6.65 6.65 6.65h19.79c3.67 0 6.65-2.98 6.65-6.62L47 83.51c.01-.44.36-.72.68-.83 9.34-3.27 16.68-11.72 22.42-25.84.72-1.76.7-3.7-.04-5.45ZM97.16 71.08c-2.01-.3-4.08-.61-5.99-1.06-5.42-1.28-12.19-5.24-17.01-12.64-.1.33-.21.66-.35.99-2.2 5.4-4.63 10.04-7.33 13.95 4.03 5.13 8.61 8.57 13.83 10.39.32.11.67.39.68.84l.85 22.42c0 3.67 2.99 6.65 6.65 6.65h19.79c3.67 0 6.65-2.98 6.65-6.59l.94-14.43c1.36-17.5-9.31-19.11-18.72-20.52ZM74.41 26.56c.7.49 1.5.72 2.29.72 1.26 0 2.5-.59 3.28-1.71l5.09-7.28c1.27-1.81.83-4.3-.98-5.57a3.996 3.996 0 0 0-5.57.98l-5.09 7.28c-1.27 1.81-.83 4.3.98 5.57ZM48.05 25.57a4.006 4.006 0 0 0 3.28 1.71 3.996 3.996 0 0 0 3.27-6.29l-5.09-7.28a3.996 3.996 0 0 0-5.57-.98 3.996 3.996 0 0 0-.98 5.57l5.09 7.28ZM64 25.3c2.21 0 4-1.79 4-4V12c0-2.21-1.79-4-4-4s-4 1.79-4 4v9.3c0 2.21 1.79 4 4 4Z" class="cls-1"/></svg>