<svg xmlns="http://www.w3.org/2000/svg" width="128" height="128" fill="none"><path fill="#23221F" fill-rule="evenodd" d="M68 21.3c0 2.21-1.79 4-4 4s-4-1.79-4-4V12c0-2.21 1.79-4 4-4s4 1.79 4 4v9.3Zm8.7 5.98c-.79 0-1.59-.23-2.29-.72a4.008 4.008 0 0 1-.98-5.58l5.09-7.28a3.996 3.996 0 0 1 5.57-.98 3.996 3.996 0 0 1 .98 5.57l-5.09 7.28a3.98 3.98 0 0 1-3.28 1.71Zm-45.71 36.7c7.05 0 12.78-5.73 12.78-12.78 0-7.05-5.73-12.78-12.78-12.78-7.05 0-12.78 5.73-12.78 12.78 0 7.05 5.73 12.78 12.78 12.78Zm66.02 0c7.05 0 12.78-5.73 12.78-12.78 0-7.05-5.73-12.78-12.78-12.78-7.05 0-12.78 5.73-12.78 12.78 0 7.05 5.73 12.78 12.78 12.78ZM66.19 47.57c1.76.72 3.13 2.07 3.87 3.82.74 1.75.76 3.69.04 5.45-5.74 14.12-13.08 22.57-22.42 25.84-.32.11-.67.39-.68.83l-.86 22.47c0 3.64-2.98 6.62-6.65 6.62H19.7c-3.67 0-6.65-2.98-6.65-6.65l-.94-14.38c-1.35-17.5 9.31-19.1 18.72-20.51l.072-.011c1.977-.297 4.03-.605 5.918-1.05 6.71-1.58 15.51-7.27 20.08-18.52a7.092 7.092 0 0 1 3.84-3.88c1.76-.74 3.69-.75 5.45-.03Zm30.96 23.51c-2.01-.3-4.07-.61-5.98-1.06-5.42-1.28-12.19-5.24-17.01-12.64-.1.33-.21.66-.35.99-2.2 5.4-4.63 10.04-7.33 13.95 4.03 5.13 8.61 8.57 13.83 10.39.32.11.67.39.68.84l.85 22.42c0 3.67 2.99 6.65 6.65 6.65h19.79c3.67 0 6.65-2.98 6.65-6.59l.94-14.43c1.36-17.5-9.31-19.11-18.72-20.52Zm-49.1-45.51a4.006 4.006 0 0 0 3.28 1.71 3.996 3.996 0 0 0 3.27-6.29l-5.09-7.28a3.996 3.996 0 0 0-5.57-.98 3.996 3.996 0 0 0-.98 5.57l5.09 7.27Z" clip-rule="evenodd"/></svg>