<svg fill="none" height="64" width="64" xmlns="http://www.w3.org/2000/svg"><title>SmartHRAPI連携</title><path d="m59.405 18.48-2.135-2.135a3.006 3.006 0 0 0 -4.245 0l-7.26 7.26-5.17-5.165 7.255-7.255a3.006 3.006 0 0 0 0-4.245l-2.415-2.415a3.006 3.006 0 0 0 -4.245 0l-7.255 7.255-2.885-2.885a3.487 3.487 0 0 0 -2.475-1.025c-.895 0-1.79.34-2.475 1.025l-6.765 6.77c-6.3 6.3-6.96 16.105-1.98 23.145l-12.05 12.05a4.002 4.002 0 0 0 0 5.655l2.24 2.24a4.002 4.002 0 0 0 5.655 0l12.05-12.05a18 18 0 0 0 10.395 3.3c4.615 0 9.23-1.76 12.75-5.28l6.77-6.77a3.504 3.504 0 0 0 0-4.95l-3.025-3.025 7.26-7.26a2.995 2.995 0 0 0 .005-4.24zm-14.545 22.715a12.95 12.95 0 0 1 -9.215 3.815 12.95 12.95 0 0 1 -9.215-3.815l-3.56-3.56c-5.08-5.08-5.08-13.35 0-18.43l5.71-5.71 21.99 21.99z" fill="#23221f"/></svg>