<svg width="128" height="128" fill="none" xmlns="http://www.w3.org/2000/svg"><title>SmartHRサービス連携</title><path d="M99 70h-2c-9.87 0-18.13 6.82-20.38 16H53c-4.69 0-8.5-3.81-8.5-8.5 0-4.69 3.81-8.5 8.5-8.5h22c10.2 0 18.5-8.3 18.5-18.5S85.2 32 75 32H51.38C49.13 22.82 40.87 16 31 16h-2C17.4 16 8 25.4 8 37s9.4 21 21 21h2c9.87 0 18.13-6.82 20.38-16H75c4.69 0 8.5 3.81 8.5 8.5 0 4.69-3.81 8.5-8.5 8.5H53c-10.2 0-18.5 8.3-18.5 18.5S42.8 96 53 96h23.62c2.25 9.18 10.5 16 20.38 16h2c11.6 0 21-9.4 21-21s-9.4-21-21-21ZM31 48h-2c-6.07 0-11-4.93-11-11s4.93-11 11-11h2c6.07 0 11 4.93 11 11s-4.93 11-11 11Zm68 54h-2c-6.07 0-11-4.93-11-11s4.93-11 11-11h2c6.07 0 11 4.93 11 11s-4.93 11-11 11Z" fill="#23221F"/></svg>