<svg width="128" height="128" fill="none" xmlns="http://www.w3.org/2000/svg"><title>SmartHR分析レポート</title><path d="M74.71 21.21c7.05 1.31 13.55 4.68 18.77 9.82 5.35 5.27 8.87 11.93 10.22 19.17H74.71V21.21Zm-29.92 8.24v44.8l2.93 2.93 26.02 26.02c-4.9 2.11-10.19 3.2-15.64 3.2-21.84 0-39.6-17.76-39.6-39.6 0-16.97 10.87-31.86 26.29-37.35Zm63.85 50.66a39.77 39.77 0 0 1-5.8 10.67L92.16 80.11h16.48ZM68.02 10.59c-2.05 0-3.31 1.56-3.31 3.43v44.17c0 1.1.9 2 2 2h43.59c2.24 0 4.04-1.84 4.01-4.08-.41-25.2-20.98-45.52-46.29-45.52Zm-16.46 7.05c-.15 0-.31.01-.46.03C27.12 21 8.5 41.74 8.5 66.81c0 27.4 22.22 49.6 49.6 49.6 10.71 0 20.63-3.39 28.73-9.16 1.59-1.14 1.69-3.41.31-4.79L54.79 70.11V20.85c0-1.77-1.37-3.21-3.23-3.21Zm65.73 52.47H72.85c-1.78 0-2.67 2.15-1.41 3.41l29.38 29.38c.6.6 1.4.88 2.2.88.78 0 1.57-.27 2.18-.76 8.1-7.58 13.68-17.86 15.27-29.41.25-1.88-1.28-3.5-3.18-3.5Z" fill="#23221F"/></svg>