<svg width="128" height="128" fill="none" xmlns="http://www.w3.org/2000/svg"><title>SmartHR従業員データベース</title><path d="M74.5 74.5h-21C32.24 74.5 15 91.74 15 113c0 3.87 3.13 7 7 7h84c3.87 0 7-3.13 7-7 0-21.26-17.24-38.5-38.5-38.5Zm-48.78 35C27.44 95.7 39.24 85 53.5 85h21c14.25 0 26.05 10.71 27.78 24.5H25.72ZM64 64c15.46 0 28-12.54 28-28S79.46 8 64 8 36 20.54 36 36c0 15.47 12.53 28 28 28Zm0-45.5c9.65 0 17.5 7.85 17.5 17.5S73.65 53.5 64 53.5 46.5 45.65 46.5 36 54.35 18.5 64 18.5Z" fill="#23221F"/></svg>