<svg width="128" height="128" fill="none" xmlns="http://www.w3.org/2000/svg"><title>SmartHR文書配布</title><path d="m115.03 43.64-11.12-8.74c-.98-6.21-6.35-10.97-12.82-10.97h-1.15L72.03 9.86a12.977 12.977 0 0 0-16.05-.01L38.03 23.92h-1.01c-6.42 0-11.76 4.69-12.8 10.83l-11.23 8.8A12.914 12.914 0 0 0 8 53.78v54.14c0 7.17 5.83 13 13 13h86c7.17 0 13-5.83 13-13V53.87c0-4.02-1.81-7.75-4.97-10.23ZM62.14 17.72c.54-.43 1.2-.64 1.85-.64.65 0 1.31.21 1.85.64l7.9 6.2-19.51-.01 7.91-6.19Zm-28.13 19.2c0-1.65 1.35-3 3-3l54.07.01c1.65 0 3 1.35 3 3l-.01 32.99-28.31 20.54c-.25.18-.52.32-.81.41-.01.01-.03.01-.04.02-.13.04-.26.07-.39.09-.17.03-.35.05-.53.05-.05 0-.11-.01-.16-.01-.14-.01-.28-.02-.42-.05h-.01c-.13-.03-.27-.06-.4-.11-.03-.01-.06-.03-.09-.04-.1-.04-.21-.08-.3-.13a3.03 3.03 0 0 1-.38-.24l-28.25-20.5.03-33.03ZM18 53.78c0-.93.42-1.79 1.15-2.36l4.86-3.81-.01 15.1-6-4.34v-4.59Zm92 54.14c0 1.65-1.35 3-3 3H21c-1.65 0-3-1.35-3-3v-37.2l38.37 27.83a13.035 13.035 0 0 0 7.63 2.49c2.67 0 5.35-.83 7.63-2.48L110 70.72v37.2Zm0-49.55-5.92 4.3V47.76l4.77 3.75c.73.57 1.15 1.43 1.15 2.36v4.5Z" fill="#23221F"/><path d="M47.06 52.98h32.91c2.21 0 4-1.79 4-4s-1.79-4-4-4H47.06c-2.21 0-4 1.79-4 4s1.79 4 4 4Zm36.91 9.84c0-2.21-1.79-4-4-4H47.06c-2.21 0-4 1.79-4 4s1.79 4 4 4h32.91c2.21 0 4-1.79 4-4Z" fill="#23221F"/></svg>