<svg width="128" height="128" fill="none" xmlns="http://www.w3.org/2000/svg"><title>SmartHRカスタム社員名簿</title><path d="M89 8H26c-7.73 0-14 6.27-14 14v84c0 7.73 6.27 14 14 14h63c7.73 0 14-6.27 14-14V22c0-7.73-6.28-14-14-14ZM57.5 36c7.73 0 14 6.27 14 14s-6.27 14-14 14-14-6.27-14-14 6.28-14 14-14Zm21 56h-42a3.51 3.51 0 0 1-3.5-3.5C33 78.83 40.83 71 50.5 71h14C74.16 71 82 78.84 82 88.5c0 1.93-1.58 3.5-3.5 3.5Zm35-70H110v21h3.5c1.92 0 3.5-1.58 3.5-3.5v-14c0-1.93-1.58-3.5-3.5-3.5Zm0 28H110v21h3.5c1.92 0 3.5-1.57 3.5-3.5v-14c0-1.92-1.58-3.5-3.5-3.5Zm0 28H110v21h3.5c1.93 0 3.5-1.57 3.5-3.5v-14c0-1.92-1.58-3.5-3.5-3.5Z" fill="#23221F"/></svg>