<svg width="128" height="128" fill="none" xmlns="http://www.w3.org/2000/svg"><title>SmartHR分析レポート</title><path d="M64.21 14.43c0-1.87 1.26-3.43 3.31-3.43 25.57 0 46.29 20.73 46.29 46.29 0 1.86-1.57 3.31-3.43 3.31H64.21V14.43ZM8 67.22c0-25.07 18.62-45.81 42.59-49.14 2.09-.26 3.7 1.26 3.7 3.17v49.27l32.34 32.34c1.38 1.38 1.28 3.66-.31 4.79-8.1 5.77-18.02 9.16-28.73 9.16C30.22 116.82 8 94.62 8 67.22Zm108.79 3.3c1.9 0 3.43 1.61 3.18 3.51-1.59 11.55-7.17 21.82-15.27 29.41-1.24.99-3.18 1.07-4.38-.12l-32.8-32.8h49.27Z" fill="#23221F"/></svg>