<svg xmlns="http://www.w3.org/2000/svg" width="128" height="128" fill="none"><title>SmartHR学習管理</title><path fill="#23221F" d="M103 35.45H87.76v11.01c0 6.41-12.92 7.76-23.76 7.76-5.63 0-10.92-.44-14.87-1.25-2.43-.5-8.89-1.81-8.89-6.51V35.45H25c-7.17 0-13 5.83-13 13v42.22c0 7.17 5.83 13 13 13h78c7.17 0 13-5.83 13-13V48.45c0-7.17-5.83-13-13-13ZM54.16 73.04 40.37 85.46c-.74.67-1.69 1.03-2.68 1.03-.11 0-.22 0-.33-.01-1.1-.09-2.11-.64-2.8-1.5l-6.23-7.86a4.004 4.004 0 0 1 .65-5.62 4.004 4.004 0 0 1 5.62.65l3.58 4.52L48.8 67.1a4 4 0 0 1 5.36 5.94Zm42.65 15.04H66.83c-2.21 0-4-1.79-4-4s1.79-4 4-4h29.98c2.21 0 4 1.79 4 4s-1.79 4-4 4Zm0-14.04H66.83c-2.21 0-4-1.79-4-4s1.79-4 4-4h29.98c2.21 0 4 1.79 4 4s-1.79 4-4 4ZM115 120H13c-2.76 0-5-2.24-5-5s2.24-5 5-5h102c2.76 0 5 2.24 5 5s-2.24 5-5 5ZM92.69 17.92S69.24 9.33 67.15 8.56c-2.09-.77-4.17-.71-6.31 0-2.14.71-25.54 9.36-25.54 9.36-1.74.64-1.74 1.67 0 2.31 0 0 23.51 8.62 25.54 9.36 2.03.74 4.1.81 6.31 0l25.54-9.36c1.74-.64 1.74-1.67 0-2.31Z"/><path fill="#23221F" d="M69.22 35.23c-1.72.63-3.48.95-5.23.95-1.75 0-3.51-.32-5.23-.95-.96-.35-6.72-2.47-12.53-4.6v15.18c1.66 1.04 7.95 2.41 17.76 2.41 9.81 0 16.1-1.37 17.76-2.41V30.63c-5.77 2.12-11.5 4.22-12.54 4.6h.01Z"/></svg>