<svg width="64" height="64" viewBox="0 0 64 64" fill="none" xmlns="http://www.w3.org/2000/svg">
<path d="M48.5051 4.00977H15.5051C11.9101 4.00977 8.98511 6.93477 8.98511 10.5298V53.5298C8.98511 57.1248 11.9101 60.0498 15.5051 60.0498H48.5051C52.1001 60.0498 55.0251 57.1248 55.0251 53.5298V10.5298C55.0251 6.93477 52.1001 4.00977 48.5051 4.00977ZM28.1051 51.2398C28.7501 51.8848 28.7501 52.9298 28.1051 53.5748C27.7851 53.8948 27.3601 54.0598 26.9401 54.0598C26.5201 54.0598 26.0951 53.8998 25.7751 53.5748L23.4401 51.2398L21.1051 53.5748C20.7851 53.8948 20.3601 54.0598 19.9401 54.0598C19.5201 54.0598 19.0951 53.8998 18.7751 53.5748C18.1301 52.9298 18.1301 51.8848 18.7751 51.2398L21.1101 48.9048L18.7751 46.5698C18.1301 45.9248 18.1301 44.8798 18.7751 44.2348C19.4201 43.5898 20.4651 43.5898 21.1101 44.2348L23.4451 46.5698L25.7801 44.2348C26.4251 43.5898 27.4701 43.5898 28.1151 44.2348C28.7601 44.8798 28.7601 45.9248 28.1151 46.5698L25.7801 48.9048L28.1151 51.2398H28.1051ZM27.7601 35.0998H25.1901V37.6698C25.1901 38.6348 24.4051 39.4198 23.4401 39.4198C22.4751 39.4198 21.6901 38.6348 21.6901 37.6698V35.0998H19.1201C18.1551 35.0998 17.3701 34.3148 17.3701 33.3498C17.3701 32.3848 18.1551 31.5998 19.1201 31.5998H21.6901V29.0298C21.6901 28.0648 22.4751 27.2798 23.4401 27.2798C24.4051 27.2798 25.1901 28.0648 25.1901 29.0298V31.5998H27.7601C28.7251 31.5998 29.5101 32.3848 29.5101 33.3498C29.5101 34.3148 28.7251 35.0998 27.7601 35.0998ZM39.9201 54.8398C38.8851 54.8398 38.0451 53.9998 38.0451 52.9648C38.0451 51.9298 38.8851 51.0898 39.9201 51.0898C40.9551 51.0898 41.7951 51.9298 41.7951 52.9648C41.7951 53.9998 40.9551 54.8398 39.9201 54.8398ZM44.2401 49.9098H35.6001C34.7701 49.9098 34.1001 49.2398 34.1001 48.4098C34.1001 47.5798 34.7701 46.9098 35.6001 46.9098H44.2401C45.0701 46.9098 45.7401 47.5798 45.7401 48.4098C45.7401 49.2398 45.0701 49.9098 44.2401 49.9098ZM38.0451 43.8498C38.0451 42.8148 38.8851 41.9748 39.9201 41.9748C40.9551 41.9748 41.7951 42.8148 41.7951 43.8498C41.7951 44.8848 40.9551 45.7248 39.9201 45.7248C38.8851 45.7248 38.0451 44.8848 38.0451 43.8498ZM44.2401 35.0998H35.6001C34.6351 35.0998 33.8501 34.3148 33.8501 33.3498C33.8501 32.3848 34.6351 31.5998 35.6001 31.5998H44.2401C45.2051 31.5998 45.9901 32.3848 45.9901 33.3498C45.9901 34.3148 45.2051 35.0998 44.2401 35.0998ZM48.2551 19.5398C48.2551 20.7848 47.2501 21.7898 46.0051 21.7898H18.0051C16.7601 21.7898 15.7551 20.7848 15.7551 19.5398V12.5398C15.7551 11.2948 16.7601 10.2898 18.0051 10.2898H46.0051C47.2501 10.2898 48.2551 11.2948 48.2551 12.5398V19.5398Z" fill="#23221F"/>
</svg>
