<svg width="128" height="128" fill="none" xmlns="http://www.w3.org/2000/svg"><title>SmartHR設定</title><path d="m116.26 78.47-11.27-8.06c.32-2.09.49-4.23.49-6.42 0-2.58-.24-5.09-.69-7.54l10.95-7.83a4.133 4.133 0 0 0 1.18-5.44l-8.86-15.27c-1.07-1.85-3.37-2.58-5.33-1.71l-12.35 5.54c-3.72-3.1-7.97-5.58-12.61-7.26l-1.28-12.76C76.28 9.61 74.48 8 72.34 8H54.62c-2.14 0-3.94 1.61-4.15 3.74L49.19 24.5a42.256 42.256 0 0 0-13.12 7.69l-11.32-5.08a4.18 4.18 0 0 0-5.33 1.71l-8.86 15.27a4.131 4.131 0 0 0 1.18 5.44l10.35 7.4c-.39 2.3-.6 4.66-.6 7.07 0 2.81.28 5.55.81 8.2l-10.03 7.17a4.133 4.133 0 0 0-1.18 5.44l8.86 15.27c1.07 1.85 3.37 2.58 5.33 1.71l11.68-5.24c3.92 3.2 8.42 5.69 13.32 7.32l1.25 12.4c.21 2.12 2.01 3.74 4.15 3.74H73.4c2.14 0 3.94-1.61 4.15-3.74l1.33-13.18c4.58-1.8 8.76-4.38 12.39-7.58l12.01 5.39c1.95.88 4.26.14 5.33-1.71l8.86-15.27c1.04-1.85.53-4.2-1.21-5.45ZM64 82c-9.94 0-18-8.06-18-18s8.06-18 18-18 18 8.06 18 18-8.06 18-18 18Z" fill="#23221F"/></svg>