<svg width="128" height="128" fill="none" xmlns="http://www.w3.org/2000/svg"><path d="M95.3 106.09c0 1.72-1.37 3.5-3.3 3.5H36c-1.93 0-3.5-1.57-3.5-3.5v-8.07H22v8.07c0 7.73 6.27 14 14 14h56c7.7 0 14-6.3 14-14v-8.07H95.3v8.07Zm6.61-77.57L85.58 12.19a14.09 14.09 0 0 0-9.9-4.1H36c-7.73 0-14 6.27-14 14v27.29h10.5V22.11c0-1.93 1.57-3.5 3.5-3.5h35v17.47c0 3.87 3.13 7 7 7h17.3v6.29H106V38.41c0-3.7-1.47-7.27-4.09-9.89ZM42.58 62.85c1.15 0 1.95 1.03 2.42 2.99.36 1.37.6 2.4 2.18 2.2l2.46-.29c1.87-.24 1.83-1.37 1.63-2.69-.87-5.73-3.3-9.21-8.78-9.21-7.43 0-9.89 8.18-9.89 17.78 0 11.31 2.5 18.27 9.73 18.27 4.93 0 7.79-3.18 9.1-9.55.28-1.27.36-2.45-1.51-2.74l-2.9-.44c-1.51-.25-1.51.83-1.83 2.2-.6 2.35-1.47 3.62-2.66 3.62-2.15 0-3.14-2.25-3.14-11.36.01-8.04 1.09-10.78 3.19-10.78Zm22.25 22.48c-1.35 0-2.18-.73-2.7-2.01-.52-1.37-.6-2.35-2.38-1.96l-2.38.54c-1.87.44-1.71 1.62-1.39 2.84 1.19 4.9 3.85 7.15 8.58 7.15 5.6 0 9.21-3.62 9.21-9.99 0-11.76-11.36-10.92-11.36-17.14 0-1.47.83-2.4 2.14-2.4 1.03 0 1.75.64 2.26 1.57.71 1.32.87 2.25 2.5 1.86l2.14-.54c1.83-.44 1.63-1.67 1.23-2.84-1.27-4.11-3.69-6.56-8.26-6.56-5.2 0-8.42 3.72-8.42 9.21 0 11.8 11.4 10.92 11.4 17.44.01 1.9-1.1 2.83-2.57 2.83Zm20.38 6.12h3.73c1.19 0 2.14-.54 2.5-2.4l5.76-30.37c.4-2.15-.52-2.4-1.55-2.4H92.2c-1.15 0-1.71.54-1.99 2.45l-3.14 20.82h-.08l-2.86-20.82c-.28-1.91-.79-2.45-1.95-2.45h-3.54c-1.03 0-1.99.25-1.59 2.4l5.68 30.37c.37 1.82 1.29 2.4 2.48 2.4Z" fill="#23221F"/></svg>