<svg xmlns="http://www.w3.org/2000/svg" width="128" height="128" fill="none"><title>SmartHRキャリア台帳</title><path fill="#23221F" d="M66.72 63a14 14 0 1 0 0-28 14 14 0 0 0 0 28Z"/><path fill="#23221F" d="M33 110a3 3 0 0 1-3-3v-9h4.5a4 4 0 1 0 0-8H30V78h4.5a4 4 0 1 0 0-8H30V58h4.5a4 4 0 1 0 0-8H30V38h4.5a4 4 0 1 0 0-8H30v-9a3 3 0 0 1 3-3h64a3 3 0 0 1 3 3v41.64c3.34-.44 6.74-.22 10 .71V21c0-7.17-5.83-13-13-13H33c-7.17 0-13 5.83-13 13v9h-5.5a4 4 0 1 0 0 8H20v12h-5.5a4 4 0 1 0 0 8H20v12h-5.5a4 4 0 1 0 0 8H20v12h-5.5a4 4 0 1 0 0 8H20v9c0 7.17 5.83 13 13 13h31.26a10.03 10.03 0 0 1 .61-10H33ZM95.57 110.13 85.7 120H97c5.94 0 10.95-4.01 12.5-9.46a24.58 24.58 0 0 1-13.93-.41Z"/><path fill="#23221F" d="M73.72 70h-14a17.5 17.5 0 0 0-17.5 17.5c0 1.92 1.58 3.5 3.5 3.5h33.42a24.61 24.61 0 0 1 4.09-18.18c-2.75-1.78-6-2.82-9.51-2.82ZM116.33 73.81a18.52 18.52 0 0 0-26.16 0 18.52 18.52 0 0 0-3.04 22.13L70.37 112.7a4 4 0 0 0 0 5.66l1.41 1.41a4 4 0 0 0 5.66 0l16.76-16.76a18.52 18.52 0 0 0 22.13-3.04 18.5 18.5 0 0 0 0-26.16Zm-6.36 19.8a9.51 9.51 0 0 1-13.43 0 9.51 9.51 0 0 1 0-13.43 9.51 9.51 0 0 1 13.43 0 9.51 9.51 0 0 1 0 13.43Z"/></svg>