<svg xmlns="http://www.w3.org/2000/svg" width="128" height="128" fill="none"><title>SmartHRデータ連携</title><path fill="#23221F" d="M104.92 89.84c-5.62 0-10.52 3.09-13.12 7.66H74c-2.76 0-5-2.24-5-5V84h26.5c11.03 0 20-8.97 20-20s-8.97-20-20-20H69v-9.01c0-8.27-6.73-15-15-15H37.84C36.41 13.15 30.34 8 23.08 8 14.76 8 8 14.77 8 23.08s6.77 15.08 15.08 15.08c5.82 0 10.88-3.32 13.39-8.17H54c2.76 0 5 2.24 5 5V44H32.5c-11.03 0-20 8.97-20 20s8.97 20 20 20H59v8.5c0 8.27 6.73 15 15 15h16.08c1.23 7.09 7.41 12.5 14.84 12.5 8.32 0 15.08-6.77 15.08-15.08s-6.77-15.08-15.08-15.08ZM23.08 28.16c-2.8 0-5.08-2.28-5.08-5.08 0-2.8 2.28-5.08 5.08-5.08 2.8 0 5.08 2.28 5.08 5.08 0 2.8-2.28 5.08-5.08 5.08ZM22.5 64c0-5.51 4.49-10 10-10h63c5.51 0 10 4.49 10 10s-4.49 10-10 10h-63c-5.51 0-10-4.49-10-10Zm82.42 46c-2.8 0-5.08-2.28-5.08-5.08 0-2.8 2.28-5.08 5.08-5.08 2.8 0 5.08 2.28 5.08 5.08 0 2.8-2.28 5.08-5.08 5.08Z"/></svg>