<svg width="128" height="128" fill="none" xmlns="http://www.w3.org/2000/svg"><title>SmartHRマイナンバー</title><path d="M49 64c6.63 0 12-5.37 12-12s-5.37-12-12-12-12 5.37-12 12c0 6.62 5.38 12 12 12Zm48-4.5H79c-2.48 0-4.5 2.02-4.5 4.5s2.02 4.5 4.5 4.5h18c2.48 0 4.5-2.02 4.5-4.5a4.5 4.5 0 0 0-4.5-4.5ZM55 70H43c-8.29 0-15 6.71-15 15 0 1.65 1.35 3 3 3h36c1.66 0 3-1.34 3-3 0-8.29-6.71-15-15-15Zm42-25.5H79c-2.48 0-4.5 2.02-4.5 4.5s2.02 4.5 4.5 4.5h18c2.48 0 4.5-2.02 4.5-4.5a4.5 4.5 0 0 0-4.5-4.5Zm9-22.5H22c-6.63 0-12 5.37-12 12v60c0 6.63 5.37 12 12 12h84c6.63 0 12-5.37 12-12V34c0-6.63-5.38-12-12-12Zm3 72c0 1.65-1.35 3-3 3H22c-1.65 0-3-1.35-3-3V34c0-1.65 1.35-3 3-3h84c1.65 0 3 1.35 3 3v60Z" fill="#23221F"/></svg>