<svg xmlns="http://www.w3.org/2000/svg" id="uuid-33e1eb45-3d6c-4295-b977-71a2d4ce7a7d" viewBox="0 0 128 128"><defs><style>.uuid-35145dd4-b98d-442d-9448-e26adee6750b{fill:#23221f}</style></defs><path d="M77.01 90.8H39.06c-2.2 0-4.31.8-5.96 2.25l-15.05 13.29c.07-10.11.11-15.88.11-17.59V43.49c0-2.76-2.24-5-5-5s-5 2.24-5 5v45.26c0 3.07-.12 19.55-.16 24.96a6.635 6.635 0 0 0 4.14 6.23 6.62 6.62 0 0 0 7.14-1.34l20.16-17.81h37.57c2.76 0 5-2.24 5-5s-2.24-5-5-5Z" class="uuid-35145dd4-b98d-442d-9448-e26adee6750b"/><path d="M119.84 64.84V19.58c0-6.64-5.38-12.04-11.99-12.04H38.99C32.38 7.54 27 12.94 27 19.58v45.26c0 6.64 5.38 12.04 11.99 12.04h46.55l23.11 21.74a6.67 6.67 0 0 0 4.67 1.92c.86 0 1.72-.17 2.55-.51a6.66 6.66 0 0 0 4.14-6.23c-.05-7.22-.16-26.04-.16-28.96Zm-80.85-47.3h68.86c1.1 0 1.99.92 1.99 2.04v3.21L74.79 43.3c-.79.36-1.71.36-2.5 0L37.01 22.65v-3.07c0-1.12.89-2.04 1.99-2.04Zm53.02 51.7-.12-.11a9.014 9.014 0 0 0-5.96-2.25H38.98c-1.1 0-1.99-.92-1.99-2.04v-30.6l30.39 17.79.27.15c1.84.93 3.85 1.4 5.87 1.4s4.03-.46 5.87-1.4l30.44-17.8v30.47c0 2.15.06 12.86.11 21.27L92 69.25Z" class="uuid-35145dd4-b98d-442d-9448-e26adee6750b"/></svg>