<svg width="128" height="128" fill="none" xmlns="http://www.w3.org/2000/svg"><title>SmartHR従業員サーベイ</title><path d="M86.8 69.26h-14c-2.21 0-4-1.79-4-4s1.79-4 4-4h14c2.21 0 4 1.79 4 4s-1.79 4-4 4Zm0 25.9h-14c-2.21 0-4-1.79-4-4s1.79-4 4-4h14c2.21 0 4 1.79 4 4s-1.79 4-4 4Zm-40.03 5.66c-1.02 0-2.05-.39-2.83-1.17l-5.66-5.66a4.008 4.008 0 0 1 0-5.66 4.008 4.008 0 0 1 5.66 0l2.83 2.83 9.9-9.9a4.008 4.008 0 0 1 5.66 0 4.008 4.008 0 0 1 0 5.66L49.6 99.64c-.78.78-1.81 1.18-2.83 1.18Zm0-28c-1.02 0-2.05-.39-2.83-1.17l-5.66-5.66a4.008 4.008 0 0 1 0-5.66 4.008 4.008 0 0 1 5.66 0l2.83 2.83 9.9-9.9a4.008 4.008 0 0 1 5.66 0 4.008 4.008 0 0 1 0 5.66L49.6 71.64c-.78.78-1.81 1.18-2.83 1.18Z" fill="#23221F"/><path d="M92 22H81.15C79.33 14.01 72.47 8 64 8c-8.47 0-15.53 6.01-17.15 14H36c-7.73 0-14 6.27-14 14v70c0 7.73 6.27 14 14 14h56c7.73 0 14-6.27 14-14V36c0-7.73-6.28-14-14-14Zm-28-3.5c2.89 0 5.25 2.36 5.25 5.25S66.89 29 64 29s-5.25-2.36-5.25-5.25S61.11 18.5 64 18.5ZM95.5 106c0 1.93-1.57 3.5-3.5 3.5H36c-1.93 0-3.5-1.57-3.5-3.5V36c0-1.93 1.57-3.5 3.5-3.5h3.99c-.29 1.12-.49 2.27-.49 3.5v3.5c0 1.92 1.57 3.5 3.5 3.5h42c1.93 0 3.5-1.57 3.5-3.5V36c0-1.22-.2-2.38-.5-3.5h4c1.93 0 3.5 1.57 3.5 3.5v70Z" fill="#23221F"/></svg>