<svg width="128" height="128" fill="none" xmlns="http://www.w3.org/2000/svg"><title>SmartHR申請</title><path d="M63.21 45.27H35.53c-2.76 0-5-2.24-5-5s2.24-5 5-5h27.68c2.76 0 5 2.24 5 5s-2.24 5-5 5Zm0 18.56H35.53c-2.76 0-5-2.24-5-5s2.24-5 5-5h27.68c2.76 0 5 2.24 5 5s-2.24 5-5 5Z" fill="#23221F"/><path d="M70.3 104.16H25c-1.65 0-3-1.35-3-3V26.83c0-1.65 1.35-3 3-3h48c1.65 0 3 1.35 3 3v32.39c2.95-2.44 6.33-4.38 10-5.68v-26.7c0-7.17-5.83-13-13-13H25c-7.17 0-13 5.83-13 13v74.32c0 7.17 5.83 13 13 13h48c2.24 0 4.35-.57 6.19-1.57-3.46-2.24-6.48-5.1-8.89-8.43Z" fill="#23221F"/><path d="M97 57.64c-14.91 0-27 12.13-27 27.1s12.09 27.1 27 27.1 27-12.13 27-27.1-12.09-27.1-27-27.1Zm12.92 23.03L96.03 94.6c-1.05 1.27-2.94 1.27-4.1 0L84 86.64c-1.15-1.06-1.15-2.95 0-4.12 1.17-1.16 3.05-1.16 4.1 0l5.94 5.86 11.78-11.83c1.17-1.16 3.05-1.16 4.1 0 1.26 1.17 1.26 3.06 0 4.12Z" fill="#23221F"/></svg>