<svg width="128" height="128" fill="none" xmlns="http://www.w3.org/2000/svg"><title>SmartHR手続き</title><path d="M101.91 28.5 85.58 12.17a14.09 14.09 0 0 0-9.9-4.1H36c-7.73 0-14 6.27-14 14v84c0 7.73 6.27 14 14 14h56c7.7 0 14-6.3 14-14V38.39c0-3.69-1.47-7.26-4.09-9.89Zm-6.41 77.57c0 1.93-1.57 3.5-3.5 3.5H36c-1.93 0-3.5-1.57-3.5-3.5V22.1c0-1.93 1.57-3.5 3.5-3.5h35v17.47c0 3.87 3.13 7 7 7h17.3v63h.2ZM43 69.32a5.25 5.25 0 0 0 5.25 5.25h31.5c2.91 0 5.25-2.34 5.25-5.25s-2.34-5.25-5.25-5.25h-31.5c-2.89 0-5.25 2.37-5.25 5.25Zm36.75 15.75h-31.5c-2.89 0-5.25 2.36-5.25 5.25s2.35 5.25 5.25 5.25h31.5c2.9 0 5.25-2.35 5.25-5.25s-2.34-5.25-5.25-5.25Z" fill="#23221F"/></svg>