<svg width="64" height="64" viewBox="0 0 64 64" fill="none" xmlns="http://www.w3.org/2000/svg">
<path d="M52.115 4.7101L6.62001 30.9501C2.86001 33.1251 3.22001 38.6951 7.24501 40.3451L19.745 45.5201V54.7501C19.745 59.8251 26.22 61.9151 29.215 57.8801L34.005 51.4151L46.245 56.4701C46.89 56.7301 47.57 56.8651 48.245 56.8651C49.14 56.8651 50.03 56.6351 50.825 56.1851C52.225 55.4001 53.185 54.0001 53.44 52.4101L59.935 10.0651C60.6 5.6801 55.9 2.5401 52.115 4.7151V4.7101ZM24.995 54.7451V47.6801L29 49.3301L24.995 54.7451ZM48.245 51.6051L31.425 44.6601L46.76 22.5351C47.93 20.8401 45.72 18.8701 44.17 20.2151L21.04 40.3701L9.25001 35.4901L54.74 9.2501L48.245 51.6101V51.6051Z" fill="#23221F"/>
</svg>
