<svg width="129" height="128" viewBox="0 0 129 128" fill="none" xmlns="http://www.w3.org/2000/svg">
<path d="M114.196 89.4904H97.8995C94.702 89.4904 92.1022 92.0903 92.1022 95.2878V99.2523H79.1428C79.1428 99.2523 79.0631 99.1527 79.0233 99.1029L68.2653 88.3449C68.2653 88.3449 68.2454 88.335 68.2354 88.325V77.6965H88.1576C92.0026 77.6965 95.1303 74.5687 95.1303 70.7238V27.662C95.1303 25.7992 94.4032 24.0561 93.0883 22.7312L80.368 10.001C79.0531 8.67613 77.3 7.94897 75.4273 7.94897H40.3443C36.4994 7.94897 33.3716 11.0768 33.3716 14.9217V70.7038C33.3716 74.5488 36.4994 77.6766 40.3443 77.6766H60.2665V88.3051C60.2665 88.3051 60.2466 88.315 60.2366 88.325L49.4787 99.083C49.4787 99.083 49.399 99.1826 49.3591 99.2324H36.33V95.2679C36.33 92.0704 33.7302 89.4705 30.5327 89.4705H14.2264C11.0289 89.4705 8.42902 92.0704 8.42902 95.2679V111.564C8.42902 114.762 11.0289 117.362 14.2264 117.362H30.5227C33.7202 117.362 36.3201 114.762 36.3201 111.564V107.191H49.5683L60.2366 117.86C61.3423 118.965 62.7966 119.523 64.251 119.523C65.7053 119.523 67.1596 118.975 68.2653 117.86L78.9336 107.191H92.1121V111.564C92.1121 114.762 94.712 117.362 97.9095 117.362H114.206C117.403 117.362 120.003 114.762 120.003 111.564V95.2679C120.003 92.0704 117.403 89.4705 114.206 89.4705L114.196 89.4904ZM43.3327 17.92H69.5403V26.9946C69.5403 30.2917 72.2198 32.9712 75.517 32.9712H85.1693V67.7255H43.3327V17.92ZM28.3512 109.413H16.3979V97.4593H28.3512V109.413ZM64.251 110.628L56.7303 103.107L64.251 95.5866L71.7716 103.107L64.251 110.628ZM112.024 109.413H100.071V97.4593H112.024V109.413Z" fill="#23221F"/>
<path d="M75.0488 39.0774H53.1344C50.933 39.0774 49.15 40.8604 49.15 43.0618C49.15 45.2632 50.933 47.0463 53.1344 47.0463H75.0488C77.2502 47.0463 79.0332 45.2632 79.0332 43.0618C79.0332 40.8604 77.2502 39.0774 75.0488 39.0774Z" fill="#23221F"/>
<path d="M75.0488 52.8635H53.1344C50.933 52.8635 49.15 54.6466 49.15 56.848C49.15 59.0494 50.933 60.8324 53.1344 60.8324H75.0488C77.2502 60.8324 79.0332 59.0494 79.0332 56.848C79.0332 54.6466 77.2502 52.8635 75.0488 52.8635Z" fill="#23221F"/>
</svg>
