<svg width="128" height="128" fill="none" xmlns="http://www.w3.org/2000/svg"><title>SmartHR源泉徴収票</title><path d="M114.19 45.13 94.88 25.81C92.42 23.36 89.16 22 85.69 22H23c-7.17 0-13 5.83-13 13v58c0 7.17 5.83 13 13 13h82c7.17 0 13-5.83 13-13V54.32c0-3.48-1.35-6.74-3.81-9.19ZM93 82H79v-7h14v7Zm0-22v7H79v-7h14Zm-22 7H57v-7h14v7Zm-22 0H35v-7h14v7Zm-14 8h14v7H35v-7Zm22 0h14v7H57v-7Zm48 21H23c-1.65 0-3-1.35-3-3V35c0-1.65 1.35-3 3-3h59v18c0 .69.08 1.36.23 2H35c-4.41 0-8 3.59-8 8v22c0 4.41 3.59 8 8 8h58c4.41 0 8-3.59 8-8V60c0-.34-.03-.67-.07-1H108v34c0 1.66-1.35 3-3 3Z" fill="#23221F"/></svg>