<svg width="128" height="128" fill="none" xmlns="http://www.w3.org/2000/svg"><title>SmartHR設定</title><path fill-rule="evenodd" clip-rule="evenodd" d="M44 64c0-11.03 8.97-20 20-20s20 8.97 20 20-8.97 20-20 20-20-8.97-20-20Zm10 0c0 5.51 4.49 10 10 10s10-4.49 10-10-4.49-10-10-10-10 4.49-10 10Z" fill="#23221F"/><path fill-rule="evenodd" clip-rule="evenodd" d="m106.62 67.58 7.55 5.42c3.78 2.71 4.88 7.79 2.55 11.84l-7.84 13.56a8.974 8.974 0 0 1-11.49 3.7l-7.85-3.54a43.153 43.153 0 0 1-7.38 4.49l-.89 8.86a8.98 8.98 0 0 1-8.96 8.1H56.62c-4.65 0-8.5-3.48-8.96-8.1l-.8-8a43.091 43.091 0 0 1-8.08-4.47l-7.7 3.47c-4.23 1.9-9.17.31-11.49-3.7l-7.84-13.56a8.966 8.966 0 0 1 2.54-11.82l6.31-4.53a43.338 43.338 0 0 1-.11-9.51L13.82 55a8.977 8.977 0 0 1-2.54-11.82l7.84-13.56a8.964 8.964 0 0 1 11.49-3.7l7.26 3.27c2.5-1.85 5.18-3.41 8.01-4.68l.84-8.41A8.98 8.98 0 0 1 55.68 8h15.69c4.65 0 8.5 3.48 8.95 8.1l.84 8.43c2.63 1.18 5.12 2.62 7.47 4.3l8.28-3.73c4.23-1.9 9.17-.31 11.49 3.7l7.84 13.56a8.966 8.966 0 0 1-2.54 11.82l-7.18 5.15c.07.62.12 1.25.16 1.86.13 2.14.11 4.27-.06 6.39ZM90.83 88.16l9.84 4.43 6.94-12-9.21-6.61a5.002 5.002 0 0 1-2.02-4.83c.38-2.4.49-4.87.33-7.33-.08-1.24-.24-2.54-.49-3.87-.35-1.9.43-3.84 2-4.97l8.92-6.4-6.93-11.99-10.19 4.59a4.99 4.99 0 0 1-5.26-.72 33.338 33.338 0 0 0-9.97-5.74 5 5 0 0 1-3.27-4.2L70.47 18H56.59l-1.04 10.51a4.998 4.998 0 0 1-3.28 4.21 32.844 32.844 0 0 0-10.39 6.07 5 5 0 0 1-5.32.77l-9.22-4.15-6.93 11.99 8.37 6.01a5.019 5.019 0 0 1 2.01 4.91c-.45 2.6-.6 5.24-.43 7.85.09 1.45.29 2.93.58 4.39.38 1.93-.39 3.9-1.99 5.05l-8.08 5.8L27.8 93.4l9.58-4.32c1.72-.78 3.74-.52 5.21.68 3.15 2.58 6.69 4.53 10.52 5.8 1.87.63 3.2 2.29 3.4 4.25L57.53 110h13.88l1.08-10.87c.19-1.87 1.4-3.48 3.15-4.16 3.6-1.41 6.9-3.43 9.83-6.01a5.01 5.01 0 0 1 5.36-.8Z" fill="#23221F"/></svg>