<svg width="128" height="128" fill="none" xmlns="http://www.w3.org/2000/svg"><title>SmartHR履歴・閲覧編集</title><g clip-path="url(#a)"><path fill-rule="evenodd" clip-rule="evenodd" d="M70.957 10.296c29.967 0 54.26 24.297 54.26 54.27 0 4.976-.671 9.87-1.982 14.58-6.479 23.285-27.76 39.689-52.278 39.689a5.565 5.565 0 1 1 0-11.13c19.488 0 36.407-13.043 41.555-31.543a43.196 43.196 0 0 0 1.575-11.597c0-23.825-19.31-43.139-43.13-43.139-23.82 0-43.13 19.314-43.13 43.14v-.01H44.8L22.26 96.835-.277 64.557h16.974c.005-29.968 24.296-54.261 54.26-54.261Zm2.052 21.217c.724 0 1.34.254 1.847.761.508.507.761 1.123.761 1.848v30.87l14.566 10.434c.58.435.905 1.015.978 1.74a2.704 2.704 0 0 1-.544 1.956l-3.913 5.652a2.782 2.782 0 0 1-1.739 1.087c-.725.145-1.377 0-1.956-.435L64.53 71.948c-.724-.58-1.087-1.304-1.087-2.174V34.122c0-.725.254-1.34.761-1.848a2.516 2.516 0 0 1 1.848-.76h6.957Z" fill="#23221F"/></g><defs><clipPath id="a"><path fill="#fff" d="M0 0h128v128H0z"/></clipPath></defs></svg>