<svg width="128" height="128" fill="none" xmlns="http://www.w3.org/2000/svg"><title>SmartHR電子申請</title><path d="M17.61 45.09h92.78c3.85 0 7.07-2.63 7.84-6.4.77-3.77-1.17-7.45-4.71-8.96L67.13 9.98a8.027 8.027 0 0 0-6.27 0L14.48 29.73c-3.54 1.51-5.47 5.19-4.71 8.96.77 3.77 3.99 6.4 7.84 6.4Zm15.38 5.76H26a4.01 4.01 0 0 0-4.01 4.01V94h-4c-2.76 0-5 2.24-5 5s2.24 5 5 5h92c2.76 0 5-2.24 5-5s-2.24-5-5-5h-4V54.86a4.01 4.01 0 0 0-4.01-4.01h-6.99a4.01 4.01 0 0 0-4.01 4.01V94h-8V54.86a4.01 4.01 0 0 0-4.01-4.01h-6.99a4.01 4.01 0 0 0-4.01 4.01V94h-8V54.86a4.01 4.01 0 0 0-4.01-4.01h-6.99a4.01 4.01 0 0 0-4.01 4.01V94h-8V54.86c.04-2.22-1.75-4.01-3.97-4.01ZM115 110.04H13c-2.76 0-5 2.24-5 5s2.24 5 5 5h102c2.76 0 5-2.24 5-5s-2.24-5-5-5Z" fill="#23221F"/></svg>